font.ufo
<glyph name="exclam" format="1">
  <advance width="219"/>
  <unicode hex="0021"/>
  <outline>
    <contour>
      <point x="123" y="229" type="line"/>
      <point x="126" y="722" type="line"/>
      <point x="94" y="722" type="line"/>
      <point x="97" y="229" type="line"/>
    </contour>
    <contour>
      <point x="129" y="13" type="curve"/>
      <point x="129" y="24"/>
      <point x="122" y="30"/>
      <point x="110" y="30" type="curve"/>
      <point x="99" y="30"/>
      <point x="92" y="23"/>
      <point x="92" y="13" type="curve"/>
      <point x="123" y="13"/>
      <point x="99" y="13"/>
      <point x="129" y="13" type="curve"/>
      <point x="129" y="1"/>
      <point x="122" y="-5"/>
      <point x="110" y="-5" type="curve"/>
      <point x="99" y="-5"/>
      <point x="92" y="1"/>
      <point x="92" y="13" type="curve"/>
      <point x="123" y="13"/>
      <point x="99" y="13"/>
    </contour>
  </outline>
</glyph>
<glyph name="quotedbl" format="1">
  <advance width="374"/>
  <unicode hex="0022"/>
  <outline>
    <contour>
      <point x="121" y="568" type="line"/>
      <point x="124" y="756" type="line"/>
      <point x="93" y="756" type="line"/>
      <point x="96" y="568" type="line"/>
    </contour>
    <contour>
      <point x="278" y="568" type="line"/>
      <point x="281" y="756" type="line"/>
      <point x="250" y="756" type="line"/>
      <point x="253" y="568" type="line"/>
    </contour>
  </outline>
</glyph>
<glyph name="numbersign" format="1">
  <advance width="600"/>
  <unicode hex="0023"/>
  <outline>
    <contour>
      <point x="49" y="247" type="line"/>
      <point x="480" y="247" type="line"/>
      <point x="486" y="270" type="line"/>
      <point x="54" y="270" type="line"/>
    </contour>
    <contour>
      <point x="112" y="491" type="line"/>
      <point x="544" y="491" type="line"/>
      <point x="550" y="513" type="line"/>
      <point x="118" y="513" type="line"/>
    </contour>
    <contour>
      <point x="340" y="39" type="line"/>
      <point x="529" y="722" type="line"/>
      <point x="504" y="722" type="line"/>
      <point x="315" y="39" type="line"/>
    </contour>
    <contour>
      <point x="111" y="46" type="line"/>
      <point x="296" y="722" type="line"/>
      <point x="271" y="722" type="line"/>
      <point x="87" y="46" type="line"/>
    </contour>
  </outline>
</glyph>
<glyph name="ampersand" format="1">
  <advance width="589"/>
  <unicode hex="0026"/>
  <outline>
    <contour>
      <point x="565" y="7" type="line"/>
      <point x="466" y="122"/>
      <point x="374" y="234"/>
      <point x="274" y="349" type="curve"/>
      <point x="217" y="422"/>
      <point x="148" y="481"/>
      <point x="148" y="577" type="curve"/>
      <point x="148" y="648"/>
      <point x="185" y="703"/>
      <point x="250" y="703" type="curve"/>
      <point x="318" y="703"/>
      <point x="359" y="652"/>
      <point x="359" y="579" type="curve"/>
      <point x="359" y="487"/>
      <point x="295" y="439"/>
      <point x="218" y="388" type="curve"/>
      <point x="133" y="330"/>
      <point x="64" y="278"/>
      <point x="64" y="177" type="curve"/>
      <point x="64" y="68"/>
      <point x="134" y="-5"/>
      <point x="244" y="-5" type="curve"/>
      <point x="417" y="-5"/>
      <point x="485" y="141"/>
      <point x="534" y="318" type="curve"/>
      <point x="512" y="323"/>
      <point x="534" y="318"/>
      <point x="512" y="323" type="curve"/>
      <point x="466" y="158"/>
      <point x="398" y="18"/>
      <point x="245" y="18" type="curve"/>
      <point x="150" y="18"/>
      <point x="89" y="81"/>
      <point x="89" y="177" type="curve"/>
      <point x="89" y="270"/>
      <point x="155" y="317"/>
      <point x="232" y="369" type="curve"/>
      <point x="315" y="427"/>
      <point x="384" y="480"/>
      <point x="384" y="580" type="curve"/>
      <point x="384" y="667"/>
      <point x="335" y="727"/>
      <point x="251" y="727" type="curve"/>
      <point x="168" y="727"/>
      <point x="123" y="663"/>
      <point x="123" y="577" type="curve"/>
      <point x="123" y="476"/>
      <point x="192" y="412"/>
      <point x="256" y="336" type="curve"/>
      <point x="352" y="222"/>
      <point x="450" y="106"/>
      <point x="547" y="-7" type="curve"/>
    </contour>
  </outline>
</glyph>
<glyph name="quotesingle" format="1">
  <advance width="216"/>
  <unicode hex="0027"/>
  <outline>
    <contour>
      <point x="121" y="568" type="line"/>
      <point x="124" y="756" type="line"/>
      <point x="93" y="756" type="line"/>
      <point x="96" y="568" type="line"/>
    </contour>
  </outline>
</glyph>
<glyph name="parenleft" format="1">
  <advance width="306"/>
  <unicode hex="0028"/>
  <outline>
    <contour>
      <point x="291" y="-236" type="curve"/>
      <point x="140" y="-62"/>
      <point x="85" y="96"/>
      <point x="85" y="326" type="curve"/>
      <point x="85" y="556"/>
      <point x="142" y="713"/>
      <point x="289" y="889" type="curve"/>
      <point x="273" y="903"/>
      <point x="289" y="889"/>
      <point x="273" y="903" type="curve"/>
      <point x="119" y="725"/>
      <point x="59" y="563"/>
      <point x="59" y="326" type="curve"/>
      <point x="59" y="89"/>
      <point x="120" y="-72"/>
      <point x="273" y="-251" type="curve"/>
      <point x="291" y="-236"/>
      <point x="273" y="-251"/>
    </contour>
  </outline>
</glyph>
<glyph name="plus" format="1">
  <advance width="634"/>
  <unicode hex="002B"/>
  <outline>
    <contour>
      <point x="57" y="297" type="curve"/>
      <point x="577" y="297" type="line"/>
      <point x="577" y="322"/>
      <point x="577" y="297"/>
      <point x="577" y="322" type="curve"/>
      <point x="57" y="322" type="line"/>
      <point x="57" y="297"/>
      <point x="57" y="322"/>
    </contour>
    <contour>
      <point x="328" y="18" type="curve"/>
      <point x="328" y="588" type="line"/>
      <point x="302" y="588"/>
      <point x="328" y="588"/>
      <point x="302" y="588" type="curve"/>
      <point x="302" y="18" type="line"/>
      <point x="328" y="18"/>
      <point x="302" y="18"/>
    </contour>
  </outline>
</glyph>
<glyph name="hyphen" format="1">
  <advance width="429"/>
  <unicode hex="002D"/>
  <outline>
    <contour>
      <point x="88" y="260" type="curve"/>
      <point x="173" y="260"/>
      <point x="257" y="260"/>
      <point x="341" y="260" type="curve"/>
      <point x="341" y="285"/>
      <point x="341" y="260"/>
      <point x="341" y="285" type="curve"/>
      <point x="257" y="285"/>
      <point x="173" y="285"/>
      <point x="88" y="285" type="curve"/>
      <point x="88" y="260"/>
      <point x="88" y="285"/>
    </contour>
  </outline>
</glyph>
<glyph name="period" format="1">
  <advance width="207"/>
  <unicode hex="002E"/>
  <outline>
    <contour>
      <point x="122" y="13" type="curve"/>
      <point x="122" y="24"/>
      <point x="115" y="30"/>
      <point x="102" y="30" type="curve"/>
      <point x="91" y="30"/>
      <point x="85" y="23"/>
      <point x="85" y="13" type="curve"/>
      <point x="115" y="13"/>
      <point x="91" y="13"/>
      <point x="122" y="13" type="curve"/>
      <point x="122" y="1"/>
      <point x="115" y="-5"/>
      <point x="102" y="-5" type="curve"/>
      <point x="91" y="-5"/>
      <point x="85" y="1"/>
      <point x="85" y="13" type="curve"/>
      <point x="115" y="13"/>
      <point x="91" y="13"/>
    </contour>
  </outline>
</glyph>
<glyph name="slash" format="1">
  <advance width="475"/>
  <unicode hex="002F"/>
  <outline>
    <contour>
      <point x="64" y="-66" type="curve"/>
      <point x="188" y="236"/>
      <point x="312" y="540"/>
      <point x="436" y="842" type="curve"/>
      <point x="411" y="842"/>
      <point x="436" y="842"/>
      <point x="411" y="842" type="curve"/>
      <point x="287" y="540"/>
      <point x="163" y="236"/>
      <point x="39" y="-66" type="curve"/>
      <point x="64" y="-66"/>
      <point x="39" y="-66"/>
    </contour>
  </outline>
</glyph>
<glyph name="zero" format="1">
  <advance width="631"/>
  <unicode hex="0030"/>
  <outline>
    <contour>
      <point x="95" y="360" type="curve"/>
      <point x="95" y="553"/>
      <point x="145" y="703"/>
      <point x="315" y="703" type="curve"/>
      <point x="487" y="703"/>
      <point x="536" y="554"/>
      <point x="536" y="363" type="curve"/>
      <point x="536" y="171"/>
      <point x="484" y="20"/>
      <point x="319" y="20" type="curve"/>
      <point x="152" y="20"/>
      <point x="95" y="168"/>
      <point x="95" y="360" type="curve"/>
      <point x="71" y="360"/>
      <point x="93" y="360"/>
      <point x="69" y="360" type="curve"/>
      <point x="69" y="152"/>
      <point x="128" y="-5"/>
      <point x="317" y="-5" type="curve"/>
      <point x="506" y="-5"/>
      <point x="561" y="154"/>
      <point x="561" y="363" type="curve"/>
      <point x="561" y="570"/>
      <point x="505" y="727"/>
      <point x="318" y="727" type="curve"/>
      <point x="128" y="727"/>
      <point x="69" y="569"/>
      <point x="69" y="360" type="curve"/>
      <point x="93" y="360"/>
      <point x="71" y="360"/>
    </contour>
  </outline>
</glyph>
<glyph name="three" format="1">
  <advance width="485"/>
  <unicode hex="0033"/>
  <outline>
    <contour>
      <point x="61" y="56" type="curve"/>
      <point x="113" y="19"/>
      <point x="156" y="-5"/>
      <point x="221" y="-5" type="curve"/>
      <point x="347" y="-5"/>
      <point x="420" y="64"/>
      <point x="420" y="195" type="curve"/>
      <point x="420" y="325"/>
      <point x="305" y="390"/>
      <point x="144" y="390" type="curve"/>
      <point x="144" y="379"/>
      <point x="144" y="382"/>
      <point x="144" y="370" type="curve"/>
      <point x="282" y="370"/>
      <point x="395" y="312"/>
      <point x="395" y="194" type="curve"/>
      <point x="395" y="79"/>
      <point x="320" y="20"/>
      <point x="222" y="20" type="curve"/>
      <point x="163" y="20"/>
      <point x="125" y="41"/>
      <point x="74" y="74" type="curve"/>
      <point x="61" y="56"/>
      <point x="74" y="74"/>
    </contour>
    <contour>
      <point x="84" y="626" type="curve"/>
      <point x="111" y="663"/>
      <point x="158" y="702"/>
      <point x="219" y="702" type="curve"/>
      <point x="313" y="702"/>
      <point x="366" y="647"/>
      <point x="366" y="552" type="curve"/>
      <point x="366" y="449"/>
      <point x="267" y="394"/>
      <point x="144" y="394" type="curve"/>
      <point x="144" y="384"/>
      <point x="144" y="385"/>
      <point x="144" y="375" type="curve"/>
      <point x="284" y="375"/>
      <point x="391" y="434"/>
      <point x="391" y="553" type="curve"/>
      <point x="391" y="662"/>
      <point x="329" y="727"/>
      <point x="221" y="727" type="curve"/>
      <point x="152" y="727"/>
      <point x="97" y="682"/>
      <point x="67" y="640" type="curve"/>
      <point x="84" y="626"/>
      <point x="67" y="640"/>
    </contour>
  </outline>
</glyph>
<glyph name="four" format="1">
  <advance width="552"/>
  <unicode hex="0034"/>
  <outline>
    <contour>
      <point x="329" y="23" type="line"/>
      <point x="201" y="23" type="line"/>
      <point x="201" y="0" type="line"/>
      <point x="329" y="0" type="line"/>
    </contour>
    <contour>
      <point x="329" y="0" type="line"/>
      <point x="451" y="0" type="line"/>
      <point x="451" y="23" type="line"/>
      <point x="329" y="23" type="line"/>
    </contour>
    <contour>
      <point x="51" y="274" type="line"/>
      <point x="340" y="717" type="line"/>
      <point x="318" y="722" type="line"/>
      <point x="33" y="288" type="line"/>
    </contour>
    <contour>
      <point x="500" y="288" type="line"/>
      <point x="33" y="288" type="line"/>
      <point x="33" y="265" type="line"/>
      <point x="500" y="265" type="line"/>
    </contour>
    <contour>
      <point x="343" y="0" type="line"/>
      <point x="343" y="722" type="line"/>
      <point x="318" y="722" type="line"/>
      <point x="318" y="0" type="line"/>
    </contour>
  </outline>
</glyph>
<glyph name="colon" format="1">
  <advance width="213"/>
  <unicode hex="003A"/>
  <outline>
    <contour>
      <point x="125" y="414" type="curve"/>
      <point x="125" y="425"/>
      <point x="118" y="432"/>
      <point x="105" y="432" type="curve"/>
      <point x="94" y="432"/>
      <point x="88" y="425"/>
      <point x="88" y="414" type="curve"/>
      <point x="118" y="414"/>
      <point x="94" y="414"/>
      <point x="125" y="414" type="curve"/>
      <point x="125" y="402"/>
      <point x="118" y="396"/>
      <point x="105" y="396" type="curve"/>
      <point x="94" y="396"/>
      <point x="88" y="402"/>
      <point x="88" y="414" type="curve"/>
      <point x="118" y="414"/>
      <point x="94" y="414"/>
    </contour>
    <contour>
      <point x="125" y="14" type="curve"/>
      <point x="125" y="25"/>
      <point x="118" y="31"/>
      <point x="105" y="31" type="curve"/>
      <point x="94" y="31"/>
      <point x="88" y="24"/>
      <point x="88" y="14" type="curve"/>
      <point x="118" y="14"/>
      <point x="94" y="14"/>
      <point x="125" y="14" type="curve"/>
      <point x="125" y="2"/>
      <point x="118" y="-5"/>
      <point x="105" y="-5" type="curve"/>
      <point x="94" y="-5"/>
      <point x="88" y="2"/>
      <point x="88" y="14" type="curve"/>
      <point x="118" y="14"/>
      <point x="94" y="14"/>
    </contour>
  </outline>
</glyph>
<glyph name="semicolon" format="1">
  <advance width="253"/>
  <unicode hex="003B"/>
  <outline>
    <contour>
      <point x="95" y="-95" type="line"/>
      <point x="122" y="-70"/>
      <point x="144" y="-41"/>
      <point x="144" y="9" type="curve"/>
      <point x="144" y="29"/>
      <point x="140" y="48"/>
      <point x="121" y="48" type="curve"/>
      <point x="108" y="48"/>
      <point x="101" y="41"/>
      <point x="101" y="29" type="curve"/>
      <point x="101" y="19"/>
      <point x="105" y="13"/>
      <point x="116" y="8" type="curve"/>
      <point x="116" y="-15"/>
      <point x="105" y="-53"/>
      <point x="79" y="-76" type="curve"/>
    </contour>
    <contour>
      <point x="145" y="427" type="curve"/>
      <point x="145" y="439"/>
      <point x="137" y="445"/>
      <point x="125" y="445" type="curve"/>
      <point x="114" y="445"/>
      <point x="108" y="438"/>
      <point x="108" y="427" type="curve"/>
      <point x="138" y="427"/>
      <point x="114" y="427"/>
      <point x="145" y="427" type="curve"/>
      <point x="145" y="416"/>
      <point x="137" y="410"/>
      <point x="125" y="410" type="curve"/>
      <point x="114" y="410"/>
      <point x="108" y="416"/>
      <point x="108" y="427" type="curve"/>
      <point x="138" y="427"/>
      <point x="114" y="427"/>
    </contour>
  </outline>
</glyph>
<glyph name="less" format="1">
  <advance width="640"/>
  <unicode hex="003C"/>
  <outline>
    <contour>
      <point x="572" y="583" type="curve"/>
      <point x="395" y="493"/>
      <point x="219" y="403"/>
      <point x="42" y="313" type="curve"/>
      <point x="42" y="288"/>
      <point x="42" y="313"/>
      <point x="42" y="288" type="curve"/>
      <point x="219" y="378"/>
      <point x="395" y="468"/>
      <point x="572" y="558" type="curve"/>
      <point x="572" y="583"/>
      <point x="572" y="558"/>
    </contour>
    <contour>
      <point x="581" y="49" type="curve"/>
      <point x="401" y="137"/>
      <point x="221" y="225"/>
      <point x="42" y="313" type="curve"/>
      <point x="42" y="288"/>
      <point x="42" y="313"/>
      <point x="42" y="288" type="curve"/>
      <point x="221" y="200"/>
      <point x="401" y="112"/>
      <point x="581" y="24" type="curve"/>
      <point x="581" y="49"/>
      <point x="581" y="24"/>
    </contour>
  </outline>
</glyph>
<glyph name="equal" format="1">
  <advance width="727"/>
  <unicode hex="003D"/>
  <outline>
    <contour>
      <point x="89" y="206" type="curve"/>
      <point x="271" y="206"/>
      <point x="454" y="206"/>
      <point x="637" y="206" type="curve"/>
      <point x="637" y="229"/>
      <point x="637" y="206"/>
      <point x="637" y="229" type="curve"/>
      <point x="454" y="229"/>
      <point x="271" y="229"/>
      <point x="89" y="229" type="curve"/>
      <point x="89" y="206"/>
      <point x="89" y="229"/>
    </contour>
    <contour>
      <point x="89" y="428" type="curve"/>
      <point x="271" y="428"/>
      <point x="454" y="428"/>
      <point x="637" y="428" type="curve"/>
      <point x="637" y="451"/>
      <point x="637" y="428"/>
      <point x="637" y="451" type="curve"/>
      <point x="454" y="451"/>
      <point x="271" y="451"/>
      <point x="89" y="451" type="curve"/>
      <point x="89" y="428"/>
      <point x="89" y="451"/>
    </contour>
  </outline>
</glyph>
<glyph name="greater" format="1">
  <advance width="639"/>
  <unicode hex="003E"/>
  <outline>
    <contour>
      <point x="66" y="24" type="curve"/>
      <point x="243" y="114"/>
      <point x="421" y="204"/>
      <point x="598" y="294" type="curve"/>
      <point x="598" y="319"/>
      <point x="598" y="294"/>
      <point x="598" y="319" type="curve"/>
      <point x="421" y="229"/>
      <point x="243" y="139"/>
      <point x="66" y="49" type="curve"/>
      <point x="66" y="24"/>
      <point x="66" y="49"/>
    </contour>
    <contour>
      <point x="58" y="558" type="curve"/>
      <point x="237" y="470"/>
      <point x="418" y="382"/>
      <point x="598" y="294" type="curve"/>
      <point x="598" y="319"/>
      <point x="598" y="294"/>
      <point x="598" y="319" type="curve"/>
      <point x="418" y="407"/>
      <point x="237" y="495"/>
      <point x="58" y="583" type="curve"/>
      <point x="58" y="558"/>
      <point x="58" y="583"/>
    </contour>
  </outline>
</glyph>
<glyph name="question" format="1">
  <advance width="447"/>
  <unicode hex="003F"/>
  <outline>
    <contour>
      <point x="186" y="334" type="curve"/>
      <point x="186" y="297"/>
      <point x="186" y="258"/>
      <point x="186" y="221" type="curve"/>
      <point x="212" y="221"/>
      <point x="186" y="221"/>
      <point x="212" y="221" type="curve"/>
      <point x="212" y="258"/>
      <point x="212" y="297"/>
      <point x="212" y="334" type="curve"/>
      <point x="186" y="334"/>
      <point x="212" y="334"/>
    </contour>
    <contour>
      <point x="82" y="623" type="line"/>
      <point x="107" y="658"/>
      <point x="148" y="686"/>
      <point x="204" y="686" type="curve"/>
      <point x="302" y="686"/>
      <point x="356" y="619"/>
      <point x="356" y="519" type="curve"/>
      <point x="356" y="410"/>
      <point x="296" y="334"/>
      <point x="190" y="334" type="curve"/>
      <point x="190" y="315"/>
      <point x="190" y="330"/>
      <point x="190" y="311" type="curve"/>
      <point x="311" y="311"/>
      <point x="381" y="396"/>
      <point x="381" y="519" type="curve"/>
      <point x="381" y="631"/>
      <point x="317" y="710"/>
      <point x="206" y="710" type="curve"/>
      <point x="138" y="710"/>
      <point x="95" y="677"/>
      <point x="65" y="637" type="curve"/>
    </contour>
    <contour>
      <point x="216" y="12" type="curve"/>
      <point x="216" y="23"/>
      <point x="209" y="29"/>
      <point x="199" y="29" type="curve"/>
      <point x="187" y="29"/>
      <point x="182" y="22"/>
      <point x="182" y="12" type="curve"/>
      <point x="216" y="12"/>
      <point x="182" y="12"/>
      <point x="216" y="12" type="curve"/>
      <point x="216" y="1"/>
      <point x="209" y="-4"/>
      <point x="199" y="-4" type="curve"/>
      <point x="187" y="-4"/>
      <point x="182" y="2"/>
      <point x="182" y="12" type="curve"/>
      <point x="216" y="12"/>
      <point x="182" y="12"/>
    </contour>
  </outline>
</glyph>
<glyph name="at" format="1">
  <advance width="721"/>
  <unicode hex="0040"/>
  <outline>
    <contour>
      <point x="508" y="-95" type="curve"/>
      <point x="462" y="-124"/>
      <point x="427" y="-132"/>
      <point x="372" y="-132" type="curve"/>
      <point x="178" y="-132"/>
      <point x="86" y="-3"/>
      <point x="86" y="197" type="curve"/>
      <point x="86" y="394"/>
      <point x="180" y="522"/>
      <point x="370" y="522" type="curve"/>
      <point x="546" y="522"/>
      <point x="632" y="396"/>
      <point x="632" y="212" type="curve"/>
      <point x="632" y="126"/>
      <point x="622" y="52"/>
      <point x="564" y="52" type="curve"/>
      <point x="498" y="52"/>
      <point x="488" y="121"/>
      <point x="488" y="202" type="curve"/>
      <point x="488" y="302"/>
      <point x="450" y="375"/>
      <point x="358" y="375" type="curve"/>
      <point x="260" y="375"/>
      <point x="217" y="305"/>
      <point x="217" y="203" type="curve"/>
      <point x="217" y="95"/>
      <point x="254" y="19"/>
      <point x="354" y="19" type="curve"/>
      <point x="445" y="19"/>
      <point x="472" y="94"/>
      <point x="483" y="192" type="curve"/>
      <point x="468" y="195"/>
      <point x="483" y="192"/>
      <point x="468" y="195" type="curve"/>
      <point x="451" y="114"/>
      <point x="429" y="42"/>
      <point x="358" y="42" type="curve"/>
      <point x="270" y="42"/>
      <point x="241" y="110"/>
      <point x="241" y="204" type="curve"/>
      <point x="241" y="293"/>
      <point x="273" y="352"/>
      <point x="355" y="352" type="curve"/>
      <point x="435" y="352"/>
      <point x="465" y="289"/>
      <point x="465" y="201" type="curve"/>
      <point x="465" y="108"/>
      <point x="477" y="31"/>
      <point x="562" y="31" type="curve"/>
      <point x="647" y="31"/>
      <point x="657" y="113"/>
      <point x="657" y="213" type="curve"/>
      <point x="657" y="414"/>
      <point x="566" y="546"/>
      <point x="372" y="546" type="curve"/>
      <point x="164" y="546"/>
      <point x="61" y="410"/>
      <point x="61" y="196" type="curve"/>
      <point x="61" y="-18"/>
      <point x="163" y="-155"/>
      <point x="370" y="-155" type="curve"/>
      <point x="430" y="-155"/>
      <point x="470" y="-147"/>
      <point x="520" y="-116" type="curve"/>
      <point x="508" y="-95"/>
      <point x="520" y="-116"/>
    </contour>
  </outline>
</glyph>
<glyph name="C" format="1">
  <advance width="612"/>
  <unicode hex="0043"/>
  <outline>
    <contour>
      <point x="347" y="825" type="move" name="top"/>
    </contour>
    <contour>
      <point x="331" y="-1" type="move" name="bottom"/>
    </contour>
    <contour>
      <point x="526" y="655" type="curve"/>
      <point x="526" y="535"/>
      <point x="526" y="655"/>
      <point x="526" y="535" type="curve"/>
      <point x="549" y="535"/>
      <point x="526" y="535"/>
      <point x="549" y="535" type="curve"/>
      <point x="549" y="655"/>
      <point x="549" y="535"/>
      <point x="549" y="655" type="curve"/>
      <point x="526" y="655"/>
      <point x="549" y="655"/>
    </contour>
    <contour>
      <point x="549" y="655" type="curve"/>
      <point x="492" y="695"/>
      <point x="428" y="727"/>
      <point x="350" y="727" type="curve"/>
      <point x="147" y="727"/>
      <point x="68" y="568"/>
      <point x="68" y="344" type="curve"/>
      <point x="68" y="139"/>
      <point x="143" y="-5"/>
      <point x="332" y="-5" type="curve"/>
      <point x="433" y="-5"/>
      <point x="495" y="32"/>
      <point x="566" y="96" type="curve"/>
      <point x="549" y="114"/>
      <point x="565" y="96"/>
      <point x="548" y="114" type="curve"/>
      <point x="484" y="54"/>
      <point x="425" y="21"/>
      <point x="334" y="21" type="curve"/>
      <point x="160" y="21"/>
      <point x="93" y="157"/>
      <point x="93" y="345" type="curve"/>
      <point x="93" y="552"/>
      <point x="165" y="702"/>
      <point x="349" y="702" type="curve"/>
      <point x="421" y="702"/>
      <point x="482" y="675"/>
      <point x="535" y="637" type="curve"/>
      <point x="549" y="655"/>
      <point x="535" y="637"/>
    </contour>
  </outline>
</glyph>
<glyph name="F" format="1">
  <advance width="567"/>
  <unicode hex="0046"/>
  <outline>
    <contour>
      <point x="168" y="0" type="curve"/>
      <point x="215" y="0"/>
      <point x="168" y="0"/>
      <point x="309" y="0" type="curve"/>
      <point x="309" y="23"/>
      <point x="309" y="0"/>
      <point x="309" y="23" type="curve"/>
      <point x="168" y="23"/>
      <point x="309" y="23"/>
      <point x="168" y="23" type="curve"/>
      <point x="168" y="0"/>
      <point x="168" y="23"/>
    </contour>
    <contour>
      <point x="168" y="722" type="curve"/>
      <point x="120" y="722"/>
      <point x="88" y="722"/>
      <point x="41" y="722" type="curve"/>
      <point x="41" y="699"/>
      <point x="41" y="722"/>
      <point x="41" y="699" type="curve"/>
      <point x="182" y="699"/>
      <point x="26" y="699"/>
      <point x="168" y="699" type="curve"/>
      <point x="168" y="722"/>
      <point x="168" y="699"/>
    </contour>
    <contour>
      <point x="168" y="23" type="curve"/>
      <point x="26" y="23"/>
      <point x="182" y="23"/>
      <point x="41" y="23" type="curve"/>
      <point x="41" y="0"/>
      <point x="41" y="23"/>
      <point x="41" y="0" type="curve"/>
      <point x="88" y="0"/>
      <point x="120" y="0"/>
      <point x="168" y="0" type="curve"/>
      <point x="168" y="23"/>
      <point x="168" y="0"/>
    </contour>
    <contour>
      <point x="494" y="711" type="curve"/>
      <point x="494" y="591"/>
      <point x="494" y="717"/>
      <point x="494" y="597" type="curve"/>
      <point x="517" y="597"/>
      <point x="494" y="597"/>
      <point x="517" y="597" type="curve"/>
      <point x="517" y="717"/>
      <point x="517" y="591"/>
      <point x="517" y="711" type="curve"/>
      <point x="494" y="711"/>
      <point x="517" y="711"/>
    </contour>
    <contour>
      <point x="171" y="363" type="curve"/>
      <point x="265" y="363"/>
      <point x="358" y="363"/>
      <point x="453" y="363" type="curve"/>
      <point x="453" y="385"/>
      <point x="453" y="363"/>
      <point x="453" y="385" type="curve"/>
      <point x="358" y="385"/>
      <point x="265" y="385"/>
      <point x="171" y="385" type="curve"/>
      <point x="171" y="363"/>
      <point x="171" y="385"/>
    </contour>
    <contour>
      <point x="181" y="0" type="curve"/>
      <point x="181" y="722" type="line"/>
      <point x="156" y="722"/>
      <point x="181" y="722"/>
      <point x="156" y="722" type="curve"/>
      <point x="156" y="481"/>
      <point x="156" y="241"/>
      <point x="156" y="0" type="curve"/>
      <point x="181" y="0"/>
      <point x="156" y="0"/>
    </contour>
    <contour>
      <point x="158" y="699" type="curve"/>
      <point x="277" y="699"/>
      <point x="396" y="699"/>
      <point x="517" y="699" type="curve"/>
      <point x="517" y="722"/>
      <point x="517" y="699"/>
      <point x="517" y="722" type="curve"/>
      <point x="396" y="722"/>
      <point x="277" y="722"/>
      <point x="158" y="722" type="curve"/>
      <point x="158" y="699"/>
      <point x="158" y="722"/>
    </contour>
  </outline>
</glyph>
<glyph name="G" format="1">
  <advance width="683"/>
  <unicode hex="0047"/>
  <outline>
    <contour>
      <point x="354" y="825" type="move" name="top"/>
    </contour>
    <contour>
      <point x="367" y="-56" type="move" name="bottom"/>
    </contour>
    <contour>
      <point x="574" y="642" type="curve"/>
      <point x="574" y="522"/>
      <point x="574" y="649"/>
      <point x="574" y="529" type="curve"/>
      <point x="597" y="529"/>
      <point x="574" y="529"/>
      <point x="597" y="529" type="curve"/>
      <point x="597" y="649"/>
      <point x="597" y="522"/>
      <point x="597" y="642" type="curve"/>
      <point x="574" y="642"/>
      <point x="597" y="642"/>
    </contour>
    <contour>
      <point x="604" y="320" type="curve"/>
      <point x="540" y="320"/>
      <point x="476" y="320"/>
      <point x="412" y="320" type="curve"/>
      <point x="412" y="297"/>
      <point x="412" y="320"/>
      <point x="412" y="297" type="curve"/>
      <point x="476" y="297"/>
      <point x="540" y="297"/>
      <point x="604" y="297" type="curve"/>
      <point x="604" y="320"/>
      <point x="604" y="297"/>
    </contour>
    <contour>
      <point x="612" y="77" type="curve"/>
      <point x="612" y="158"/>
      <point x="612" y="238"/>
      <point x="612" y="320" type="curve"/>
      <point x="589" y="320"/>
      <point x="612" y="320"/>
      <point x="589" y="320" type="curve"/>
      <point x="589" y="238"/>
      <point x="589" y="158"/>
      <point x="589" y="77" type="curve"/>
      <point x="612" y="77"/>
      <point x="589" y="77"/>
    </contour>
    <contour>
      <point x="597" y="642" type="curve"/>
      <point x="522" y="698"/>
      <point x="449" y="727"/>
      <point x="355" y="727" type="curve"/>
      <point x="153" y="727"/>
      <point x="65" y="581"/>
      <point x="65" y="365" type="curve"/>
      <point x="65" y="143"/>
      <point x="157" y="-5"/>
      <point x="365" y="-5" type="curve"/>
      <point x="465" y="-5"/>
      <point x="528" y="23"/>
      <point x="612" y="77" type="curve"/>
      <point x="597" y="97"/>
      <point x="612" y="77"/>
      <point x="597" y="97" type="curve"/>
      <point x="530" y="51"/>
      <point x="457" y="20"/>
      <point x="365" y="20" type="curve"/>
      <point x="172" y="20"/>
      <point x="91" y="161"/>
      <point x="91" y="367" type="curve"/>
      <point x="91" y="565"/>
      <point x="170" y="702"/>
      <point x="355" y="702" type="curve"/>
      <point x="444" y="702"/>
      <point x="512" y="675"/>
      <point x="584" y="623" type="curve"/>
      <point x="597" y="642"/>
      <point x="584" y="623"/>
    </contour>
  </outline>
</glyph>
<glyph name="H" format="1">
  <advance width="775"/>
  <unicode hex="0048"/>
  <outline>
    <contour>
      <point x="609" y="699" type="curve"/>
      <point x="751" y="699"/>
      <point x="594" y="699"/>
      <point x="736" y="699" type="curve"/>
      <point x="736" y="722"/>
      <point x="736" y="699"/>
      <point x="736" y="722" type="curve"/>
      <point x="689" y="722"/>
      <point x="656" y="722"/>
      <point x="609" y="722" type="curve"/>
      <point x="609" y="699"/>
      <point x="609" y="722"/>
    </contour>
    <contour>
      <point x="609" y="0" type="curve"/>
      <point x="656" y="0"/>
      <point x="689" y="0"/>
      <point x="736" y="0" type="curve"/>
      <point x="736" y="23"/>
      <point x="736" y="0"/>
      <point x="736" y="23" type="curve"/>
      <point x="594" y="23"/>
      <point x="751" y="23"/>
      <point x="609" y="23" type="curve"/>
      <point x="609" y="0"/>
      <point x="609" y="23"/>
    </contour>
    <contour>
      <point x="609" y="23" type="curve"/>
      <point x="467" y="23"/>
      <point x="624" y="23"/>
      <point x="482" y="23" type="curve"/>
      <point x="482" y="0"/>
      <point x="482" y="23"/>
      <point x="482" y="0" type="curve"/>
      <point x="529" y="0"/>
      <point x="562" y="0"/>
      <point x="609" y="0" type="curve"/>
      <point x="609" y="23"/>
      <point x="609" y="0"/>
    </contour>
    <contour>
      <point x="609" y="722" type="curve"/>
      <point x="562" y="722"/>
      <point x="529" y="722"/>
      <point x="482" y="722" type="curve"/>
      <point x="482" y="699"/>
      <point x="482" y="722"/>
      <point x="482" y="699" type="curve"/>
      <point x="624" y="699"/>
      <point x="467" y="699"/>
      <point x="609" y="699" type="curve"/>
      <point x="609" y="722"/>
      <point x="609" y="699"/>
    </contour>
    <contour>
      <point x="168" y="699" type="curve"/>
      <point x="309" y="699"/>
      <point x="153" y="699"/>
      <point x="295" y="699" type="curve"/>
      <point x="295" y="722"/>
      <point x="295" y="699"/>
      <point x="295" y="722" type="curve"/>
      <point x="248" y="722"/>
      <point x="215" y="722"/>
      <point x="168" y="722" type="curve"/>
      <point x="168" y="699"/>
      <point x="168" y="722"/>
    </contour>
    <contour>
      <point x="168" y="722" type="curve"/>
      <point x="120" y="722"/>
      <point x="88" y="722"/>
      <point x="41" y="722" type="curve"/>
      <point x="41" y="699"/>
      <point x="41" y="722"/>
      <point x="41" y="699" type="curve"/>
      <point x="182" y="699"/>
      <point x="26" y="699"/>
      <point x="168" y="699" type="curve"/>
      <point x="168" y="722"/>
      <point x="168" y="699"/>
    </contour>
    <contour>
      <point x="168" y="0" type="curve"/>
      <point x="215" y="0"/>
      <point x="153" y="0"/>
      <point x="295" y="0" type="curve"/>
      <point x="295" y="23"/>
      <point x="295" y="0"/>
      <point x="295" y="23" type="curve"/>
      <point x="153" y="23"/>
      <point x="309" y="23"/>
      <point x="168" y="23" type="curve"/>
      <point x="168" y="0"/>
      <point x="168" y="23"/>
    </contour>
    <contour>
      <point x="168" y="23" type="curve"/>
      <point x="26" y="23"/>
      <point x="182" y="23"/>
      <point x="41" y="23" type="curve"/>
      <point x="41" y="0"/>
      <point x="41" y="23"/>
      <point x="41" y="0" type="curve"/>
      <point x="88" y="0"/>
      <point x="120" y="0"/>
      <point x="168" y="0" type="curve"/>
      <point x="168" y="23"/>
      <point x="168" y="0"/>
    </contour>
    <contour>
      <point x="181" y="0" type="curve"/>
      <point x="181" y="722" type="line"/>
      <point x="156" y="722"/>
      <point x="181" y="722"/>
      <point x="156" y="722" type="curve"/>
      <point x="156" y="481"/>
      <point x="156" y="241"/>
      <point x="156" y="0" type="curve"/>
      <point x="181" y="0"/>
      <point x="156" y="0"/>
    </contour>
    <contour>
      <point x="606" y="374" type="curve"/>
      <point x="460" y="374"/>
      <point x="314" y="374"/>
      <point x="168" y="374" type="curve"/>
      <point x="168" y="352"/>
      <point x="168" y="374"/>
      <point x="168" y="352" type="curve"/>
      <point x="314" y="352"/>
      <point x="460" y="352"/>
      <point x="606" y="352" type="curve"/>
      <point x="606" y="374"/>
      <point x="606" y="352"/>
    </contour>
    <contour>
      <point x="621" y="1" type="curve"/>
      <point x="621" y="241"/>
      <point x="621" y="481"/>
      <point x="621" y="721" type="curve"/>
      <point x="596" y="721"/>
      <point x="621" y="721"/>
      <point x="596" y="721" type="curve"/>
      <point x="596" y="1" type="line"/>
      <point x="621" y="1"/>
      <point x="596" y="1"/>
    </contour>
  </outline>
</glyph>
<glyph name="I" format="1">
  <advance width="335"/>
  <unicode hex="0049"/>
  <outline>
    <contour>
      <point x="168" y="825" type="move" name="top"/>
    </contour>
    <contour>
      <point x="180" y="0" type="move" name="bottom"/>
    </contour>
    <contour>
      <point x="168" y="722" type="curve"/>
      <point x="120" y="722"/>
      <point x="88" y="722"/>
      <point x="41" y="722" type="curve"/>
      <point x="41" y="699"/>
      <point x="41" y="722"/>
      <point x="41" y="699" type="curve"/>
      <point x="182" y="699"/>
      <point x="26" y="699"/>
      <point x="168" y="699" type="curve"/>
      <point x="168" y="722"/>
      <point x="168" y="699"/>
    </contour>
    <contour>
      <point x="168" y="699" type="curve"/>
      <point x="310" y="699"/>
      <point x="153" y="699"/>
      <point x="295" y="699" type="curve"/>
      <point x="295" y="722"/>
      <point x="295" y="699"/>
      <point x="295" y="722" type="curve"/>
      <point x="247" y="722"/>
      <point x="215" y="722"/>
      <point x="168" y="722" type="curve"/>
      <point x="168" y="699"/>
      <point x="168" y="722"/>
    </contour>
    <contour>
      <point x="168" y="0" type="curve"/>
      <point x="215" y="0"/>
      <point x="247" y="0"/>
      <point x="295" y="0" type="curve"/>
      <point x="295" y="23"/>
      <point x="295" y="0"/>
      <point x="295" y="23" type="curve"/>
      <point x="153" y="23"/>
      <point x="310" y="23"/>
      <point x="168" y="23" type="curve"/>
      <point x="168" y="0"/>
      <point x="168" y="23"/>
    </contour>
    <contour>
      <point x="168" y="23" type="curve"/>
      <point x="26" y="23"/>
      <point x="182" y="23"/>
      <point x="41" y="23" type="curve"/>
      <point x="41" y="0"/>
      <point x="41" y="23"/>
      <point x="41" y="0" type="curve"/>
      <point x="88" y="0"/>
      <point x="120" y="0"/>
      <point x="168" y="0" type="curve"/>
      <point x="168" y="23"/>
      <point x="168" y="0"/>
    </contour>
    <contour>
      <point x="180" y="0" type="curve"/>
      <point x="180" y="241"/>
      <point x="180" y="481"/>
      <point x="180" y="722" type="curve"/>
      <point x="155" y="722"/>
      <point x="180" y="722"/>
      <point x="155" y="722" type="curve"/>
      <point x="155" y="481"/>
      <point x="155" y="241"/>
      <point x="155" y="0" type="curve"/>
      <point x="180" y="0"/>
      <point x="155" y="0"/>
    </contour>
  </outline>
</glyph>
<glyph name="J" format="1">
  <advance width="436"/>
  <unicode hex="004A"/>
  <outline>
    <contour>
      <point x="288" y="722" type="curve"/>
      <point x="242" y="722"/>
      <point x="210" y="722"/>
      <point x="164" y="722" type="curve"/>
      <point x="164" y="699"/>
      <point x="164" y="722"/>
      <point x="164" y="699" type="curve"/>
      <point x="303" y="699"/>
      <point x="149" y="699"/>
      <point x="288" y="699" type="curve"/>
      <point x="288" y="722"/>
      <point x="288" y="699"/>
    </contour>
    <contour>
      <point x="288" y="699" type="curve"/>
      <point x="425" y="699"/>
      <point x="274" y="699"/>
      <point x="411" y="699" type="curve"/>
      <point x="411" y="722"/>
      <point x="411" y="699"/>
      <point x="411" y="722" type="curve"/>
      <point x="365" y="722"/>
      <point x="334" y="722"/>
      <point x="288" y="722" type="curve"/>
      <point x="288" y="699"/>
      <point x="288" y="722"/>
    </contour>
    <contour>
      <point x="32" y="39" type="curve"/>
      <point x="60" y="16"/>
      <point x="94" y="-4"/>
      <point x="140" y="-4" type="curve"/>
      <point x="258" y="-4"/>
      <point x="300" y="81"/>
      <point x="300" y="215" type="curve"/>
      <point x="300" y="401"/>
      <point x="300" y="536"/>
      <point x="300" y="722" type="curve"/>
      <point x="285" y="722"/>
      <point x="289" y="722"/>
      <point x="274" y="722" type="curve"/>
      <point x="274" y="536"/>
      <point x="274" y="401"/>
      <point x="274" y="215" type="curve"/>
      <point x="274" y="103"/>
      <point x="244" y="19"/>
      <point x="140" y="19" type="curve"/>
      <point x="100" y="19"/>
      <point x="72" y="38"/>
      <point x="44" y="57" type="curve"/>
      <point x="37" y="47"/>
      <point x="38" y="49"/>
    </contour>
  </outline>
</glyph>
<glyph name="L" format="1">
  <advance width="576"/>
  <unicode hex="004C"/>
  <outline>
    <contour>
      <point x="169" y="825" type="move" name="top"/>
    </contour>
    <contour>
      <point x="313" y="-56" type="move" name="bottom"/>
    </contour>
    <contour>
      <point x="535" y="11" type="curve"/>
      <point x="535" y="131"/>
      <point x="535" y="5"/>
      <point x="535" y="125" type="curve"/>
      <point x="512" y="125"/>
      <point x="535" y="125"/>
      <point x="512" y="125" type="curve"/>
      <point x="512" y="5"/>
      <point x="512" y="131"/>
      <point x="512" y="11" type="curve"/>
      <point x="535" y="11"/>
      <point x="512" y="11"/>
    </contour>
    <contour>
      <point x="167" y="23" type="curve"/>
      <point x="25" y="23"/>
      <point x="181" y="23"/>
      <point x="40" y="23" type="curve"/>
      <point x="40" y="0"/>
      <point x="40" y="23"/>
      <point x="40" y="0" type="curve"/>
      <point x="87" y="0"/>
      <point x="119" y="0"/>
      <point x="167" y="0" type="curve"/>
      <point x="167" y="23"/>
      <point x="167" y="0"/>
    </contour>
    <contour>
      <point x="167" y="722" type="curve"/>
      <point x="119" y="722"/>
      <point x="87" y="722"/>
      <point x="40" y="722" type="curve"/>
      <point x="40" y="699"/>
      <point x="40" y="722"/>
      <point x="40" y="699" type="curve"/>
      <point x="181" y="699"/>
      <point x="25" y="699"/>
      <point x="167" y="699" type="curve"/>
      <point x="167" y="722"/>
      <point x="167" y="699"/>
    </contour>
    <contour>
      <point x="167" y="699" type="curve"/>
      <point x="308" y="699"/>
      <point x="152" y="699"/>
      <point x="294" y="699" type="curve"/>
      <point x="294" y="722"/>
      <point x="294" y="699"/>
      <point x="294" y="722" type="curve"/>
      <point x="247" y="722"/>
      <point x="214" y="722"/>
      <point x="167" y="722" type="curve"/>
      <point x="167" y="699"/>
      <point x="167" y="722"/>
    </contour>
    <contour>
      <point x="181" y="0" type="curve"/>
      <point x="181" y="241"/>
      <point x="181" y="481"/>
      <point x="181" y="722" type="curve"/>
      <point x="156" y="722"/>
      <point x="181" y="722"/>
      <point x="156" y="722" type="curve"/>
      <point x="156" y="481"/>
      <point x="156" y="241"/>
      <point x="156" y="0" type="curve"/>
      <point x="181" y="0"/>
      <point x="156" y="0"/>
    </contour>
    <contour>
      <point x="167" y="0" type="curve"/>
      <point x="290" y="0"/>
      <point x="412" y="0"/>
      <point x="535" y="0" type="curve"/>
      <point x="535" y="23"/>
      <point x="535" y="0"/>
      <point x="535" y="23" type="curve"/>
      <point x="412" y="23"/>
      <point x="290" y="23"/>
      <point x="167" y="23" type="curve"/>
      <point x="167" y="0"/>
      <point x="167" y="23"/>
    </contour>
  </outline>
</glyph>
<glyph name="M" format="1">
  <advance width="907"/>
  <unicode hex="004D"/>
  <outline>
    <contour>
      <point x="755" y="0" type="curve"/>
      <point x="802" y="0"/>
      <point x="835" y="0"/>
      <point x="882" y="0" type="curve"/>
      <point x="882" y="23"/>
      <point x="882" y="0"/>
      <point x="882" y="23" type="curve"/>
      <point x="740" y="23"/>
      <point x="897" y="23"/>
      <point x="755" y="23" type="curve"/>
      <point x="755" y="0"/>
      <point x="755" y="23"/>
    </contour>
    <contour>
      <point x="755" y="23" type="curve"/>
      <point x="612" y="23"/>
      <point x="770" y="23"/>
      <point x="627" y="23" type="curve"/>
      <point x="627" y="0"/>
      <point x="627" y="23"/>
      <point x="627" y="0" type="curve"/>
      <point x="674" y="0"/>
      <point x="707" y="0"/>
      <point x="755" y="0" type="curve"/>
      <point x="755" y="23"/>
      <point x="755" y="0"/>
    </contour>
    <contour>
      <point x="153" y="23" type="curve"/>
      <point x="12" y="23"/>
      <point x="168" y="23"/>
      <point x="26" y="23" type="curve"/>
      <point x="26" y="0"/>
      <point x="26" y="23"/>
      <point x="26" y="0" type="curve"/>
      <point x="73" y="0"/>
      <point x="106" y="0"/>
      <point x="153" y="0" type="curve"/>
      <point x="153" y="23"/>
      <point x="153" y="0"/>
    </contour>
    <contour>
      <point x="205" y="722" type="curve"/>
      <point x="157" y="722"/>
      <point x="125" y="722"/>
      <point x="78" y="722" type="curve"/>
      <point x="78" y="699"/>
      <point x="78" y="722"/>
      <point x="78" y="699" type="curve"/>
      <point x="220" y="699"/>
      <point x="63" y="699"/>
      <point x="205" y="699" type="curve"/>
      <point x="205" y="722"/>
      <point x="205" y="699"/>
    </contour>
    <contour>
      <point x="701" y="699" type="curve"/>
      <point x="843" y="699"/>
      <point x="687" y="699"/>
      <point x="829" y="699" type="curve"/>
      <point x="829" y="722"/>
      <point x="829" y="699"/>
      <point x="829" y="722" type="curve"/>
      <point x="781" y="722"/>
      <point x="749" y="722"/>
      <point x="701" y="722" type="curve"/>
      <point x="701" y="699"/>
      <point x="701" y="722"/>
    </contour>
    <contour>
      <point x="153" y="0" type="curve"/>
      <point x="201" y="0"/>
      <point x="139" y="0"/>
      <point x="280" y="0" type="curve"/>
      <point x="280" y="23"/>
      <point x="280" y="0"/>
      <point x="280" y="23" type="curve"/>
      <point x="139" y="23"/>
      <point x="295" y="23"/>
      <point x="153" y="23" type="curve"/>
      <point x="153" y="0"/>
      <point x="153" y="23"/>
    </contour>
    <contour>
      <point x="767" y="0" type="curve"/>
      <point x="748" y="241"/>
      <point x="731" y="481"/>
      <point x="712" y="722" type="curve"/>
      <point x="689" y="722"/>
      <point x="712" y="722"/>
      <point x="689" y="722" type="curve"/>
      <point x="707" y="481"/>
      <point x="724" y="241"/>
      <point x="742" y="0" type="curve"/>
      <point x="767" y="0"/>
      <point x="742" y="0"/>
    </contour>
    <contour>
      <point x="166" y="0" type="curve"/>
      <point x="183" y="241"/>
      <point x="199" y="481"/>
      <point x="215" y="722" type="curve"/>
      <point x="191" y="722"/>
      <point x="215" y="722"/>
      <point x="191" y="722" type="curve"/>
      <point x="174" y="481"/>
      <point x="157" y="241"/>
      <point x="139" y="0" type="curve"/>
      <point x="166" y="0"/>
      <point x="139" y="0"/>
    </contour>
    <contour>
      <point x="463" y="0" type="curve"/>
      <point x="382" y="241"/>
      <point x="300" y="481"/>
      <point x="218" y="722" type="curve"/>
      <point x="193" y="722"/>
      <point x="217" y="722"/>
      <point x="193" y="722" type="curve"/>
      <point x="275" y="481"/>
      <point x="357" y="241"/>
      <point x="438" y="0" type="curve"/>
      <point x="463" y="0"/>
      <point x="438" y="0"/>
    </contour>
    <contour>
      <point x="471" y="0" type="curve"/>
      <point x="551" y="241"/>
      <point x="631" y="481"/>
      <point x="711" y="722" type="curve"/>
      <point x="688" y="722"/>
      <point x="710" y="722"/>
      <point x="687" y="722" type="curve"/>
      <point x="606" y="481"/>
      <point x="526" y="241"/>
      <point x="445" y="0" type="curve"/>
      <point x="471" y="0"/>
      <point x="445" y="0"/>
    </contour>
  </outline>
</glyph>
<glyph name="O" format="1">
  <advance width="665"/>
  <unicode hex="004F"/>
  <outline>
    <contour>
      <point x="332" y="825" type="move" name="top"/>
    </contour>
    <contour>
      <point x="94" y="360" type="curve"/>
      <point x="94" y="551"/>
      <point x="156" y="703"/>
      <point x="331" y="703" type="curve"/>
      <point x="506" y="703"/>
      <point x="572" y="554"/>
      <point x="572" y="363" type="curve"/>
      <point x="572" y="173"/>
      <point x="509" y="19"/>
      <point x="334" y="19" type="curve"/>
      <point x="158" y="19"/>
      <point x="94" y="169"/>
      <point x="94" y="360" type="curve"/>
      <point x="68" y="360"/>
      <point x="94" y="360"/>
      <point x="68" y="360" type="curve"/>
      <point x="68" y="153"/>
      <point x="143" y="-5"/>
      <point x="333" y="-5" type="curve"/>
      <point x="523" y="-5"/>
      <point x="597" y="155"/>
      <point x="597" y="363" type="curve"/>
      <point x="597" y="569"/>
      <point x="523" y="727"/>
      <point x="333" y="727" type="curve"/>
      <point x="142" y="727"/>
      <point x="68" y="567"/>
      <point x="68" y="360" type="curve"/>
      <point x="94" y="360"/>
      <point x="68" y="360"/>
    </contour>
  </outline>
</glyph>
<glyph name="P" format="1">
  <advance width="555"/>
  <unicode hex="0050"/>
  <outline>
    <contour>
      <point x="169" y="722" type="curve"/>
      <point x="121" y="722"/>
      <point x="89" y="722"/>
      <point x="42" y="722" type="curve"/>
      <point x="42" y="699"/>
      <point x="42" y="722"/>
      <point x="42" y="699" type="curve"/>
      <point x="183" y="699"/>
      <point x="27" y="699"/>
      <point x="169" y="699" type="curve"/>
      <point x="169" y="722"/>
      <point x="169" y="699"/>
    </contour>
    <contour>
      <point x="169" y="23" type="curve"/>
      <point x="27" y="23"/>
      <point x="183" y="23"/>
      <point x="42" y="23" type="curve"/>
      <point x="42" y="0"/>
      <point x="42" y="23"/>
      <point x="42" y="0" type="curve"/>
      <point x="89" y="0"/>
      <point x="121" y="0"/>
      <point x="169" y="0" type="curve"/>
      <point x="169" y="23"/>
      <point x="169" y="0"/>
    </contour>
    <contour>
      <point x="169" y="0" type="curve"/>
      <point x="216" y="0"/>
      <point x="155" y="0"/>
      <point x="296" y="0" type="curve"/>
      <point x="296" y="23"/>
      <point x="296" y="0"/>
      <point x="296" y="23" type="curve"/>
      <point x="155" y="23"/>
      <point x="310" y="23"/>
      <point x="169" y="23" type="curve"/>
      <point x="169" y="0"/>
      <point x="169" y="23"/>
    </contour>
    <contour>
      <point x="166" y="325" type="curve"/>
      <point x="208" y="300"/>
      <point x="253" y="280"/>
      <point x="304" y="280" type="curve"/>
      <point x="427" y="282"/>
      <point x="497" y="363"/>
      <point x="497" y="494" type="curve"/>
      <point x="497" y="630"/>
      <point x="417" y="722"/>
      <point x="284" y="722" type="curve"/>
      <point x="246" y="722"/>
      <point x="208" y="722"/>
      <point x="171" y="722" type="curve"/>
      <point x="171" y="699"/>
      <point x="171" y="722"/>
      <point x="171" y="699" type="curve"/>
      <point x="207" y="699"/>
      <point x="244" y="699"/>
      <point x="280" y="699" type="curve"/>
      <point x="401" y="699"/>
      <point x="472" y="616"/>
      <point x="472" y="493" type="curve"/>
      <point x="472" y="381"/>
      <point x="412" y="304"/>
      <point x="306" y="304" type="curve"/>
      <point x="254" y="304"/>
      <point x="219" y="320"/>
      <point x="175" y="346" type="curve"/>
      <point x="166" y="326"/>
      <point x="175" y="345"/>
    </contour>
    <contour>
      <point x="181" y="0" type="curve"/>
      <point x="181" y="241"/>
      <point x="181" y="481"/>
      <point x="181" y="722" type="curve"/>
      <point x="155" y="722"/>
      <point x="181" y="722"/>
      <point x="155" y="722" type="curve"/>
      <point x="155" y="481"/>
      <point x="155" y="241"/>
      <point x="155" y="0" type="curve"/>
      <point x="181" y="0"/>
      <point x="155" y="0"/>
    </contour>
  </outline>
</glyph>
<glyph name="Q" format="1">
  <advance width="689"/>
  <unicode hex="0051"/>
  <outline>
    <contour>
      <point x="330" y="4" type="curve"/>
      <point x="413" y="-163"/>
      <point x="511" y="-240"/>
      <point x="688" y="-240" type="curve"/>
      <point x="688" y="-216"/>
      <point x="688" y="-240"/>
      <point x="688" y="-216" type="curve"/>
      <point x="523" y="-216"/>
      <point x="431" y="-142"/>
      <point x="352" y="16" type="curve"/>
      <point x="330" y="4"/>
      <point x="352" y="16"/>
    </contour>
    <contour>
      <point x="93" y="360" type="curve"/>
      <point x="93" y="551"/>
      <point x="158" y="703"/>
      <point x="332" y="703" type="curve"/>
      <point x="507" y="703"/>
      <point x="574" y="553"/>
      <point x="574" y="363" type="curve"/>
      <point x="574" y="171"/>
      <point x="510" y="20"/>
      <point x="336" y="20" type="curve"/>
      <point x="159" y="20"/>
      <point x="93" y="168"/>
      <point x="93" y="360" type="curve"/>
      <point x="68" y="360"/>
      <point x="93" y="360"/>
      <point x="68" y="360" type="curve"/>
      <point x="68" y="153"/>
      <point x="144" y="-5"/>
      <point x="334" y="-5" type="curve"/>
      <point x="525" y="-5"/>
      <point x="599" y="156"/>
      <point x="599" y="364" type="curve"/>
      <point x="599" y="570"/>
      <point x="524" y="727"/>
      <point x="335" y="727" type="curve"/>
      <point x="144" y="727"/>
      <point x="68" y="567"/>
      <point x="68" y="360" type="curve"/>
      <point x="93" y="360"/>
      <point x="68" y="360"/>
    </contour>
  </outline>
</glyph>
<glyph name="T" format="1">
  <advance width="638"/>
  <unicode hex="0054"/>
  <outline>
    <contour>
      <point x="319" y="825" type="move" name="top"/>
    </contour>
    <contour>
      <point x="323" y="-58" type="move" name="bottom"/>
    </contour>
    <contour>
      <point x="49" y="710" type="curve"/>
      <point x="49" y="590"/>
      <point x="49" y="717"/>
      <point x="49" y="597" type="curve"/>
      <point x="72" y="597"/>
      <point x="49" y="597"/>
      <point x="72" y="597" type="curve"/>
      <point x="72" y="717"/>
      <point x="72" y="590"/>
      <point x="72" y="710" type="curve"/>
      <point x="49" y="710"/>
      <point x="72" y="710"/>
    </contour>
    <contour>
      <point x="567" y="710" type="curve"/>
      <point x="567" y="590"/>
      <point x="567" y="717"/>
      <point x="567" y="597" type="curve"/>
      <point x="590" y="597"/>
      <point x="567" y="597"/>
      <point x="590" y="597" type="curve"/>
      <point x="590" y="717"/>
      <point x="590" y="590"/>
      <point x="590" y="710" type="curve"/>
      <point x="567" y="710"/>
      <point x="590" y="710"/>
    </contour>
    <contour>
      <point x="319" y="0" type="curve"/>
      <point x="364" y="0"/>
      <point x="402" y="0"/>
      <point x="446" y="0" type="curve"/>
      <point x="446" y="23"/>
      <point x="446" y="0"/>
      <point x="446" y="23" type="curve"/>
      <point x="312" y="23"/>
      <point x="453" y="23"/>
      <point x="319" y="23" type="curve"/>
      <point x="319" y="0"/>
      <point x="319" y="23"/>
    </contour>
    <contour>
      <point x="319" y="23" type="curve"/>
      <point x="184" y="23"/>
      <point x="325" y="23"/>
      <point x="191" y="23" type="curve"/>
      <point x="191" y="0"/>
      <point x="191" y="23"/>
      <point x="191" y="0" type="curve"/>
      <point x="236" y="0"/>
      <point x="274" y="0"/>
      <point x="319" y="0" type="curve"/>
      <point x="319" y="23"/>
      <point x="319" y="0"/>
    </contour>
    <contour>
      <point x="331" y="0" type="curve"/>
      <point x="331" y="237"/>
      <point x="331" y="473"/>
      <point x="331" y="710" type="curve"/>
      <point x="306" y="710"/>
      <point x="331" y="710"/>
      <point x="306" y="710" type="curve"/>
      <point x="306" y="473"/>
      <point x="306" y="237"/>
      <point x="306" y="0" type="curve"/>
      <point x="331" y="0"/>
      <point x="306" y="0"/>
    </contour>
    <contour>
      <point x="49" y="697" type="curve"/>
      <point x="229" y="697"/>
      <point x="410" y="697"/>
      <point x="590" y="697" type="curve"/>
      <point x="590" y="722"/>
      <point x="590" y="697"/>
      <point x="590" y="722" type="curve"/>
      <point x="410" y="722"/>
      <point x="229" y="722"/>
      <point x="49" y="722" type="curve"/>
      <point x="49" y="697"/>
      <point x="49" y="722"/>
    </contour>
  </outline>
</glyph>
<glyph name="W" format="1">
  <advance width="902"/>
  <unicode hex="0057"/>
  <outline>
    <contour>
      <point x="119" y="699" type="curve"/>
      <point x="254" y="699"/>
      <point x="112" y="699"/>
      <point x="247" y="699" type="curve"/>
      <point x="247" y="722"/>
      <point x="247" y="699"/>
      <point x="247" y="722" type="curve"/>
      <point x="202" y="722"/>
      <point x="163" y="722"/>
      <point x="119" y="722" type="curve"/>
      <point x="119" y="699"/>
      <point x="119" y="722"/>
    </contour>
    <contour>
      <point x="119" y="722" type="curve"/>
      <point x="75" y="722"/>
      <point x="36" y="722"/>
      <point x="-8" y="722" type="curve"/>
      <point x="-8" y="699"/>
      <point x="-8" y="722"/>
      <point x="-8" y="699" type="curve"/>
      <point x="126" y="699"/>
      <point x="-15" y="699"/>
      <point x="119" y="699" type="curve"/>
      <point x="119" y="722"/>
      <point x="119" y="699"/>
    </contour>
    <contour>
      <point x="762" y="722" type="curve"/>
      <point x="717" y="722"/>
      <point x="679" y="722"/>
      <point x="635" y="722" type="curve"/>
      <point x="635" y="699"/>
      <point x="635" y="722"/>
      <point x="635" y="699" type="curve"/>
      <point x="768" y="699"/>
      <point x="628" y="699"/>
      <point x="762" y="699" type="curve"/>
      <point x="762" y="722"/>
      <point x="762" y="699"/>
    </contour>
    <contour>
      <point x="762" y="699" type="curve"/>
      <point x="895" y="699"/>
      <point x="755" y="699"/>
      <point x="889" y="699" type="curve"/>
      <point x="889" y="722"/>
      <point x="889" y="699"/>
      <point x="889" y="722" type="curve"/>
      <point x="845" y="722"/>
      <point x="806" y="722"/>
      <point x="762" y="722" type="curve"/>
      <point x="762" y="699"/>
      <point x="762" y="722"/>
    </contour>
    <contour>
      <point x="280" y="0" type="curve"/>
      <point x="338" y="241"/>
      <point x="396" y="481"/>
      <point x="454" y="722" type="curve"/>
      <point x="430" y="722"/>
      <point x="455" y="722"/>
      <point x="431" y="722" type="curve"/>
      <point x="374" y="481"/>
      <point x="315" y="241"/>
      <point x="258" y="0" type="curve"/>
      <point x="277" y="0"/>
      <point x="261" y="0"/>
    </contour>
    <contour>
      <point x="438" y="722" type="curve"/>
      <point x="491" y="481"/>
      <point x="543" y="241"/>
      <point x="596" y="0" type="curve"/>
      <point x="615" y="0"/>
      <point x="598" y="0"/>
      <point x="617" y="0" type="curve"/>
      <point x="565" y="241"/>
      <point x="513" y="481"/>
      <point x="461" y="722" type="curve"/>
      <point x="437" y="722"/>
      <point x="462" y="722"/>
    </contour>
    <contour>
      <point x="96" y="722" type="curve"/>
      <point x="149" y="481"/>
      <point x="202" y="241"/>
      <point x="256" y="0" type="curve"/>
      <point x="274" y="0"/>
      <point x="258" y="0"/>
      <point x="277" y="0" type="curve"/>
      <point x="225" y="241"/>
      <point x="173" y="481"/>
      <point x="122" y="722" type="curve"/>
      <point x="96" y="722"/>
      <point x="122" y="722"/>
    </contour>
    <contour>
      <point x="760" y="722" type="curve"/>
      <point x="706" y="481"/>
      <point x="652" y="241"/>
      <point x="599" y="0" type="curve"/>
      <point x="618" y="0"/>
      <point x="601" y="0"/>
      <point x="620" y="0" type="curve"/>
      <point x="675" y="241"/>
      <point x="730" y="481"/>
      <point x="786" y="722" type="curve"/>
      <point x="760" y="722"/>
      <point x="786" y="722"/>
    </contour>
  </outline>
</glyph>
<glyph name="X" format="1">
  <advance width="683"/>
  <unicode hex="0058"/>
  <outline>
    <contour>
      <point x="125" y="0" type="curve"/>
      <point x="170" y="0"/>
      <point x="118" y="0"/>
      <point x="253" y="0" type="curve"/>
      <point x="253" y="23"/>
      <point x="253" y="0"/>
      <point x="253" y="23" type="curve"/>
      <point x="118" y="23"/>
      <point x="259" y="23"/>
      <point x="125" y="23" type="curve"/>
      <point x="125" y="0"/>
      <point x="125" y="23"/>
    </contour>
    <contour>
      <point x="125" y="23" type="curve"/>
      <point x="-9" y="23"/>
      <point x="132" y="23"/>
      <point x="-2" y="23" type="curve"/>
      <point x="-2" y="0"/>
      <point x="-2" y="23"/>
      <point x="-2" y="0" type="curve"/>
      <point x="43" y="0"/>
      <point x="81" y="0"/>
      <point x="125" y="0" type="curve"/>
      <point x="125" y="23"/>
      <point x="125" y="0"/>
    </contour>
    <contour>
      <point x="555" y="0" type="curve"/>
      <point x="599" y="0"/>
      <point x="638" y="0"/>
      <point x="682" y="0" type="curve"/>
      <point x="682" y="23"/>
      <point x="682" y="0"/>
      <point x="682" y="23" type="curve"/>
      <point x="548" y="23"/>
      <point x="689" y="23"/>
      <point x="555" y="23" type="curve"/>
      <point x="555" y="0"/>
      <point x="555" y="23"/>
    </contour>
    <contour>
      <point x="555" y="23" type="curve"/>
      <point x="421" y="23"/>
      <point x="562" y="23"/>
      <point x="427" y="23" type="curve"/>
      <point x="427" y="0"/>
      <point x="427" y="23"/>
      <point x="427" y="0" type="curve"/>
      <point x="472" y="0"/>
      <point x="511" y="0"/>
      <point x="555" y="0" type="curve"/>
      <point x="555" y="23"/>
      <point x="555" y="0"/>
    </contour>
    <contour>
      <point x="532" y="699" type="curve"/>
      <point x="666" y="699"/>
      <point x="526" y="699"/>
      <point x="660" y="699" type="curve"/>
      <point x="660" y="722"/>
      <point x="660" y="699"/>
      <point x="660" y="722" type="curve"/>
      <point x="615" y="722"/>
      <point x="577" y="722"/>
      <point x="532" y="722" type="curve"/>
      <point x="532" y="699"/>
      <point x="532" y="722"/>
    </contour>
    <contour>
      <point x="532" y="722" type="curve"/>
      <point x="488" y="722"/>
      <point x="450" y="722"/>
      <point x="405" y="722" type="curve"/>
      <point x="405" y="699"/>
      <point x="405" y="722"/>
      <point x="405" y="699" type="curve"/>
      <point x="539" y="699"/>
      <point x="399" y="699"/>
      <point x="532" y="699" type="curve"/>
      <point x="532" y="722"/>
      <point x="532" y="699"/>
    </contour>
    <contour>
      <point x="151" y="722" type="curve"/>
      <point x="107" y="722"/>
      <point x="69" y="722"/>
      <point x="24" y="722" type="curve"/>
      <point x="24" y="699"/>
      <point x="24" y="722"/>
      <point x="24" y="699" type="curve"/>
      <point x="158" y="699"/>
      <point x="18" y="699"/>
      <point x="151" y="699" type="curve"/>
      <point x="151" y="722"/>
      <point x="151" y="699"/>
    </contour>
    <contour>
      <point x="151" y="699" type="curve"/>
      <point x="285" y="699"/>
      <point x="145" y="699"/>
      <point x="279" y="699" type="curve"/>
      <point x="279" y="722"/>
      <point x="279" y="699"/>
      <point x="279" y="722" type="curve"/>
      <point x="234" y="722"/>
      <point x="196" y="722"/>
      <point x="151" y="722" type="curve"/>
      <point x="151" y="699"/>
      <point x="151" y="722"/>
    </contour>
    <contour>
      <point x="532" y="722" type="curve"/>
      <point x="387" y="481"/>
      <point x="242" y="241"/>
      <point x="97" y="0" type="curve"/>
      <point x="129" y="0"/>
      <point x="97" y="0"/>
      <point x="129" y="0" type="curve"/>
      <point x="273" y="241"/>
      <point x="417" y="481"/>
      <point x="561" y="722" type="curve"/>
      <point x="532" y="722"/>
      <point x="561" y="722"/>
    </contour>
    <contour>
      <point x="125" y="722" type="curve"/>
      <point x="268" y="481"/>
      <point x="411" y="241"/>
      <point x="554" y="0" type="curve"/>
      <point x="586" y="0"/>
      <point x="554" y="0"/>
      <point x="586" y="0" type="curve"/>
      <point x="443" y="241"/>
      <point x="299" y="481"/>
      <point x="155" y="722" type="curve"/>
      <point x="125" y="722"/>
      <point x="155" y="722"/>
    </contour>
  </outline>
</glyph>
<glyph name="Z" format="1">
  <advance width="591"/>
  <unicode hex="005A"/>
  <outline>
    <contour>
      <point x="300" y="825" type="move" name="top"/>
    </contour>
    <contour>
      <point x="79" y="711" type="curve"/>
      <point x="79" y="591"/>
      <point x="79" y="717"/>
      <point x="79" y="597" type="curve"/>
      <point x="101" y="597"/>
      <point x="79" y="597"/>
      <point x="101" y="597" type="curve"/>
      <point x="101" y="717"/>
      <point x="101" y="591"/>
      <point x="101" y="711" type="curve"/>
      <point x="79" y="711"/>
      <point x="101" y="711"/>
    </contour>
    <contour>
      <point x="548" y="11" type="curve"/>
      <point x="548" y="131"/>
      <point x="548" y="5"/>
      <point x="548" y="125" type="curve"/>
      <point x="526" y="125"/>
      <point x="548" y="125"/>
      <point x="526" y="125" type="curve"/>
      <point x="526" y="5"/>
      <point x="526" y="131"/>
      <point x="526" y="11" type="curve"/>
      <point x="548" y="11"/>
      <point x="526" y="11"/>
    </contour>
    <contour>
      <point x="79" y="699" type="curve"/>
      <point x="220" y="699"/>
      <point x="360" y="699"/>
      <point x="502" y="699" type="curve"/>
      <point x="500" y="702"/>
      <point x="497" y="704"/>
      <point x="495" y="706" type="curve"/>
      <point x="493" y="707"/>
      <point x="492" y="710"/>
      <point x="490" y="712" type="curve"/>
      <point x="487" y="707"/>
      <point x="485" y="705"/>
      <point x="482" y="701" type="curve"/>
      <point x="42" y="23" type="line"/>
      <point x="42" y="10"/>
      <point x="42" y="23"/>
      <point x="42" y="10" type="curve"/>
      <point x="42" y="0"/>
      <point x="42" y="10"/>
      <point x="42" y="0" type="curve"/>
      <point x="48" y="0"/>
      <point x="42" y="0"/>
      <point x="48" y="0" type="curve"/>
      <point x="554" y="0"/>
      <point x="380" y="0"/>
      <point x="548" y="0" type="curve"/>
      <point x="548" y="23"/>
      <point x="548" y="0"/>
      <point x="548" y="23" type="curve"/>
      <point x="380" y="23"/>
      <point x="216" y="23"/>
      <point x="48" y="23" type="curve"/>
      <point x="50" y="21"/>
      <point x="53" y="19"/>
      <point x="55" y="17" type="curve"/>
      <point x="58" y="16"/>
      <point x="59" y="12"/>
      <point x="62" y="10" type="curve"/>
      <point x="64" y="15"/>
      <point x="67" y="17"/>
      <point x="70" y="21" type="curve"/>
      <point x="511" y="699" type="line"/>
      <point x="511" y="712"/>
      <point x="511" y="699"/>
      <point x="511" y="712" type="curve"/>
      <point x="511" y="722"/>
      <point x="511" y="712"/>
      <point x="511" y="722" type="curve"/>
      <point x="502" y="722"/>
      <point x="511" y="722"/>
      <point x="502" y="722" type="curve"/>
      <point x="360" y="722"/>
      <point x="220" y="722"/>
      <point x="79" y="722" type="curve"/>
      <point x="79" y="699"/>
      <point x="79" y="722"/>
    </contour>
  </outline>
</glyph>
<glyph name="bracketleft" format="1">
  <advance width="262"/>
  <unicode hex="005B"/>
  <outline>
    <contour>
      <point x="223" y="771" type="curve"/>
      <point x="178" y="771"/>
      <point x="134" y="771"/>
      <point x="89" y="771" type="curve"/>
      <point x="86" y="771"/>
      <point x="84" y="771"/>
      <point x="82" y="771" type="curve"/>
      <point x="82" y="769"/>
      <point x="82" y="767"/>
      <point x="82" y="764" type="curve"/>
      <point x="82" y="470"/>
      <point x="82" y="175"/>
      <point x="82" y="-119" type="curve"/>
      <point x="82" y="-121"/>
      <point x="82" y="-123"/>
      <point x="82" y="-124" type="curve"/>
      <point x="84" y="-124"/>
      <point x="86" y="-124"/>
      <point x="88" y="-124" type="curve"/>
      <point x="133" y="-124"/>
      <point x="177" y="-124"/>
      <point x="223" y="-124" type="curve"/>
      <point x="223" y="-99"/>
      <point x="223" y="-124"/>
      <point x="223" y="-99" type="curve"/>
      <point x="177" y="-99"/>
      <point x="133" y="-99"/>
      <point x="88" y="-99" type="curve"/>
      <point x="107" y="-99"/>
      <point x="88" y="-99"/>
      <point x="107" y="-99" type="curve"/>
      <point x="107" y="-119"/>
      <point x="107" y="-99"/>
      <point x="107" y="-119" type="curve"/>
      <point x="107" y="175"/>
      <point x="107" y="470"/>
      <point x="107" y="764" type="curve"/>
      <point x="107" y="746"/>
      <point x="107" y="764"/>
      <point x="107" y="746" type="curve"/>
      <point x="89" y="746"/>
      <point x="107" y="746"/>
      <point x="89" y="746" type="curve"/>
      <point x="134" y="746"/>
      <point x="178" y="746"/>
      <point x="223" y="746" type="curve"/>
      <point x="223" y="771"/>
      <point x="223" y="746"/>
    </contour>
  </outline>
</glyph>
<glyph name="backslash" format="1">
  <advance width="452"/>
  <unicode hex="005C"/>
  <outline>
    <contour>
      <point x="410" y="-68" type="curve"/>
      <point x="296" y="236"/>
      <point x="182" y="540"/>
      <point x="68" y="844" type="curve"/>
      <point x="42" y="844"/>
      <point x="68" y="844"/>
      <point x="42" y="844" type="curve"/>
      <point x="156" y="540"/>
      <point x="270" y="236"/>
      <point x="384" y="-68" type="curve"/>
      <point x="410" y="-68"/>
      <point x="384" y="-68"/>
    </contour>
  </outline>
</glyph>
<glyph name="asciicircum" format="1">
  <advance width="481"/>
  <unicode hex="005E"/>
  <outline>
    <contour>
      <point x="100" y="466" type="curve"/>
      <point x="151" y="581"/>
      <point x="202" y="695"/>
      <point x="252" y="809" type="curve"/>
      <point x="228" y="809"/>
      <point x="252" y="809"/>
      <point x="227" y="809" type="curve"/>
      <point x="176" y="695"/>
      <point x="126" y="581"/>
      <point x="75" y="466" type="curve"/>
      <point x="100" y="466"/>
      <point x="76" y="466"/>
    </contour>
    <contour>
      <point x="407" y="466" type="curve"/>
      <point x="357" y="577"/>
      <point x="303" y="699"/>
      <point x="253" y="809" type="curve"/>
      <point x="228" y="809"/>
      <point x="252" y="809"/>
      <point x="228" y="809" type="curve"/>
      <point x="277" y="699"/>
      <point x="332" y="577"/>
      <point x="381" y="466" type="curve"/>
      <point x="406" y="466"/>
      <point x="382" y="466"/>
    </contour>
  </outline>
</glyph>
<glyph name="underscore" format="1">
  <advance width="595"/>
  <unicode hex="005F"/>
  <outline>
    <contour>
      <point x="-1" y="-210" type="curve"/>
      <point x="198" y="-210"/>
      <point x="396" y="-210"/>
      <point x="594" y="-210" type="curve"/>
      <point x="594" y="-187"/>
      <point x="594" y="-210"/>
      <point x="594" y="-187" type="curve"/>
      <point x="396" y="-187"/>
      <point x="198" y="-187"/>
      <point x="-1" y="-187" type="curve"/>
      <point x="-1" y="-210"/>
      <point x="-1" y="-187"/>
    </contour>
  </outline>
</glyph>
<glyph name="b" format="1">
  <advance width="579"/>
  <unicode hex="0062"/>
  <outline>
    <contour>
      <point x="134" y="800" type="curve"/>
      <point x="90" y="800"/>
      <point x="52" y="800"/>
      <point x="7" y="800" type="curve"/>
      <point x="7" y="777"/>
      <point x="7" y="800"/>
      <point x="7" y="777" type="curve"/>
      <point x="141" y="777"/>
      <point x="1" y="777"/>
      <point x="134" y="777" type="curve"/>
      <point x="134" y="800"/>
      <point x="134" y="777"/>
    </contour>
    <contour>
      <point x="140" y="405" type="curve"/>
      <point x="167" y="453"/>
      <point x="233" y="515"/>
      <point x="314" y="515" type="curve"/>
      <point x="434" y="515"/>
      <point x="489" y="404"/>
      <point x="489" y="267" type="curve"/>
      <point x="489" y="136"/>
      <point x="429" y="17"/>
      <point x="315" y="18" type="curve"/>
      <point x="242" y="18"/>
      <point x="184" y="64"/>
      <point x="141" y="129" type="curve"/>
      <point x="124" y="115"/>
      <point x="144" y="125"/>
      <point x="126" y="112" type="curve"/>
      <point x="171" y="42"/>
      <point x="231" y="-5"/>
      <point x="315" y="-5" type="curve"/>
      <point x="453" y="-5"/>
      <point x="514" y="115"/>
      <point x="514" y="268" type="curve"/>
      <point x="514" y="417"/>
      <point x="454" y="538"/>
      <point x="316" y="538" type="curve"/>
      <point x="225" y="538"/>
      <point x="157" y="480"/>
      <point x="127" y="428" type="curve"/>
      <point x="140" y="410"/>
      <point x="127" y="423"/>
    </contour>
    <contour>
      <point x="145" y="0" type="curve"/>
      <point x="145" y="267"/>
      <point x="145" y="533"/>
      <point x="145" y="800" type="curve"/>
      <point x="120" y="800"/>
      <point x="145" y="800"/>
      <point x="120" y="800" type="curve"/>
      <point x="120" y="533"/>
      <point x="120" y="267"/>
      <point x="120" y="0" type="curve"/>
      <point x="145" y="0"/>
      <point x="120" y="0"/>
    </contour>
    <contour>
      <point x="134" y="23" type="curve"/>
      <point x="1" y="23"/>
      <point x="141" y="23"/>
      <point x="7" y="23" type="curve"/>
      <point x="7" y="0"/>
      <point x="7" y="23"/>
      <point x="7" y="0" type="curve"/>
      <point x="52" y="0"/>
      <point x="90" y="0"/>
      <point x="134" y="0" type="curve"/>
      <point x="134" y="23"/>
      <point x="134" y="0"/>
    </contour>
  </outline>
</glyph>
<glyph name="d" format="1">
  <advance width="580"/>
  <unicode hex="0064"/>
  <outline>
    <contour>
      <point x="444" y="800" type="curve"/>
      <point x="397" y="800"/>
      <point x="364" y="800"/>
      <point x="317" y="800" type="curve"/>
      <point x="317" y="777"/>
      <point x="317" y="800"/>
      <point x="317" y="777" type="curve"/>
      <point x="459" y="777"/>
      <point x="302" y="777"/>
      <point x="444" y="777" type="curve"/>
      <point x="444" y="800"/>
      <point x="444" y="777"/>
    </contour>
    <contour>
      <point x="445" y="0" type="curve"/>
      <point x="493" y="0"/>
      <point x="526" y="0"/>
      <point x="574" y="0" type="curve"/>
      <point x="574" y="23"/>
      <point x="574" y="0"/>
      <point x="574" y="23" type="curve"/>
      <point x="432" y="23"/>
      <point x="587" y="23"/>
      <point x="445" y="23" type="curve"/>
      <point x="445" y="0"/>
      <point x="445" y="23"/>
    </contour>
    <contour>
      <point x="452" y="441" type="curve"/>
      <point x="416" y="499"/>
      <point x="354" y="538"/>
      <point x="276" y="538" type="curve"/>
      <point x="132" y="538"/>
      <point x="62" y="418"/>
      <point x="62" y="264" type="curve"/>
      <point x="62" y="112"/>
      <point x="135" y="-5"/>
      <point x="279" y="-5" type="curve"/>
      <point x="362" y="-5"/>
      <point x="415" y="46"/>
      <point x="452" y="126" type="curve"/>
      <point x="437" y="142"/>
      <point x="452" y="126"/>
      <point x="437" y="142" type="curve"/>
      <point x="401" y="67"/>
      <point x="350" y="18"/>
      <point x="278" y="18" type="curve"/>
      <point x="151" y="18"/>
      <point x="87" y="127"/>
      <point x="87" y="265" type="curve"/>
      <point x="87" y="405"/>
      <point x="150" y="515"/>
      <point x="277" y="515" type="curve"/>
      <point x="344" y="515"/>
      <point x="404" y="480"/>
      <point x="437" y="424" type="curve"/>
      <point x="452" y="441"/>
      <point x="437" y="424"/>
    </contour>
    <contour>
      <point x="458" y="0" type="curve"/>
      <point x="458" y="267"/>
      <point x="458" y="533"/>
      <point x="458" y="800" type="curve"/>
      <point x="432" y="800"/>
      <point x="458" y="800"/>
      <point x="432" y="800" type="curve"/>
      <point x="432" y="533"/>
      <point x="432" y="267"/>
      <point x="432" y="0" type="curve"/>
      <point x="458" y="0"/>
      <point x="432" y="0"/>
    </contour>
  </outline>
</glyph>
<glyph name="f" format="1">
  <advance width="422"/>
  <unicode hex="0066"/>
  <outline>
    <contour>
      <point x="391" y="776" type="curve"/>
      <point x="391" y="656"/>
      <point x="391" y="783"/>
      <point x="391" y="663" type="curve"/>
      <point x="414" y="663"/>
      <point x="391" y="663"/>
      <point x="414" y="663" type="curve"/>
      <point x="414" y="783"/>
      <point x="414" y="656"/>
      <point x="414" y="776" type="curve"/>
      <point x="391" y="776"/>
      <point x="414" y="776"/>
    </contour>
    <contour>
      <point x="200" y="0" type="curve"/>
      <point x="245" y="0"/>
      <point x="283" y="0"/>
      <point x="327" y="0" type="curve"/>
      <point x="327" y="23"/>
      <point x="327" y="0"/>
      <point x="327" y="23" type="curve"/>
      <point x="194" y="23"/>
      <point x="334" y="23"/>
      <point x="200" y="23" type="curve"/>
      <point x="200" y="0"/>
      <point x="200" y="23"/>
    </contour>
    <contour>
      <point x="200" y="23" type="curve"/>
      <point x="67" y="23"/>
      <point x="207" y="23"/>
      <point x="73" y="23" type="curve"/>
      <point x="73" y="0"/>
      <point x="73" y="23"/>
      <point x="73" y="0" type="curve"/>
      <point x="117" y="0"/>
      <point x="156" y="0"/>
      <point x="200" y="0" type="curve"/>
      <point x="200" y="23"/>
      <point x="200" y="0"/>
    </contour>
    <contour>
      <point x="39" y="510" type="curve"/>
      <point x="381" y="510" type="line"/>
      <point x="381" y="533"/>
      <point x="381" y="510"/>
      <point x="381" y="533" type="curve"/>
      <point x="39" y="533" type="line"/>
      <point x="39" y="510"/>
      <point x="39" y="533"/>
    </contour>
    <contour>
      <point x="212" y="0" type="curve"/>
      <point x="212" y="640" type="line"/>
      <point x="212" y="722"/>
      <point x="246" y="783"/>
      <point x="320" y="783" type="curve"/>
      <point x="350" y="783"/>
      <point x="379" y="772"/>
      <point x="404" y="758" type="curve"/>
      <point x="414" y="776"/>
      <point x="404" y="758"/>
      <point x="414" y="776" type="curve"/>
      <point x="385" y="792"/>
      <point x="352" y="805"/>
      <point x="320" y="805" type="curve"/>
      <point x="232" y="805"/>
      <point x="187" y="735"/>
      <point x="187" y="640" type="curve"/>
      <point x="187" y="0" type="line"/>
      <point x="212" y="0"/>
      <point x="187" y="0"/>
    </contour>
  </outline>
</glyph>
<glyph name="g" format="1">
  <advance width="485"/>
  <unicode hex="0067"/>
  <outline>
    <contour>
      <point x="248" y="670" type="move" name="top"/>
    </contour>
    <contour>
      <point x="334" y="499" type="curve"/>
      <point x="464" y="578" type="line"/>
      <point x="454" y="592"/>
      <point x="459" y="585"/>
      <point x="449" y="599" type="curve"/>
      <point x="320" y="517" type="line"/>
      <point x="334" y="499"/>
      <point x="320" y="517"/>
    </contour>
    <contour>
      <point x="108" y="358" type="curve"/>
      <point x="108" y="447"/>
      <point x="160" y="516"/>
      <point x="248" y="516" type="curve"/>
      <point x="337" y="516"/>
      <point x="386" y="451"/>
      <point x="386" y="361" type="curve"/>
      <point x="386" y="275"/>
      <point x="335" y="210"/>
      <point x="247" y="210" type="curve"/>
      <point x="162" y="210"/>
      <point x="108" y="270"/>
      <point x="108" y="358" type="curve"/>
      <point x="83" y="357"/>
      <point x="108" y="358"/>
      <point x="83" y="357" type="curve"/>
      <point x="83" y="256"/>
      <point x="146" y="189"/>
      <point x="245" y="189" type="curve"/>
      <point x="347" y="189"/>
      <point x="411" y="258"/>
      <point x="411" y="362" type="curve"/>
      <point x="411" y="465"/>
      <point x="350" y="538"/>
      <point x="248" y="538" type="curve"/>
      <point x="144" y="538"/>
      <point x="83" y="463"/>
      <point x="83" y="357" type="curve"/>
      <point x="108" y="358"/>
      <point x="83" y="357"/>
    </contour>
    <contour>
      <point x="153" y="228" type="curve"/>
      <point x="111" y="198"/>
      <point x="87" y="162"/>
      <point x="87" y="109" type="curve"/>
      <point x="87" y="29"/>
      <point x="156" y="-4"/>
      <point x="242" y="-13" type="curve"/>
      <point x="345" y="-23"/>
      <point x="435" y="-51"/>
      <point x="435" y="-144" type="curve"/>
      <point x="435" y="-237"/>
      <point x="350" y="-282"/>
      <point x="245" y="-282" type="curve"/>
      <point x="144" y="-282"/>
      <point x="70" y="-227"/>
      <point x="70" y="-134" type="curve"/>
      <point x="70" y="-66"/>
      <point x="103" y="-20"/>
      <point x="164" y="10" type="curve"/>
      <point x="152" y="25"/>
      <point x="164" y="10"/>
      <point x="152" y="25" type="curve"/>
      <point x="84" y="-9"/>
      <point x="45" y="-59"/>
      <point x="45" y="-135" type="curve"/>
      <point x="45" y="-244"/>
      <point x="128" y="-304"/>
      <point x="243" y="-304" type="curve"/>
      <point x="363" y="-304"/>
      <point x="460" y="-254"/>
      <point x="458" y="-142" type="curve"/>
      <point x="458" y="-36"/>
      <point x="361" y="-2"/>
      <point x="247" y="9" type="curve"/>
      <point x="172" y="15"/>
      <point x="112" y="42"/>
      <point x="112" y="112" type="curve"/>
      <point x="112" y="157"/>
      <point x="129" y="188"/>
      <point x="167" y="214" type="curve"/>
      <point x="153" y="228"/>
      <point x="167" y="214"/>
    </contour>
  </outline>
</glyph>
<glyph name="i" format="1">
  <advance width="289"/>
  <unicode hex="0069"/>
  <outline>
    <contour>
      <point x="161" y="669" type="move" name="top"/>
    </contour>
    <contour>
      <point x="176" y="0" type="move" name="bottom"/>
    </contour>
    <contour>
      <point x="162" y="23" type="curve"/>
      <point x="28" y="23"/>
      <point x="168" y="23"/>
      <point x="35" y="23" type="curve"/>
      <point x="35" y="0"/>
      <point x="35" y="23"/>
      <point x="35" y="0" type="curve"/>
      <point x="79" y="0"/>
      <point x="117" y="0"/>
      <point x="162" y="0" type="curve"/>
      <point x="162" y="23"/>
      <point x="162" y="0"/>
    </contour>
    <contour>
      <point x="162" y="0" type="curve"/>
      <point x="203" y="0"/>
      <point x="238" y="0"/>
      <point x="280" y="0" type="curve"/>
      <point x="280" y="23"/>
      <point x="280" y="0"/>
      <point x="280" y="23" type="curve"/>
      <point x="155" y="23"/>
      <point x="287" y="23"/>
      <point x="162" y="23" type="curve"/>
      <point x="162" y="0"/>
      <point x="162" y="23"/>
    </contour>
    <contour>
      <point x="162" y="533" type="curve"/>
      <point x="117" y="533"/>
      <point x="79" y="533"/>
      <point x="35" y="533" type="curve"/>
      <point x="35" y="510"/>
      <point x="35" y="533"/>
      <point x="35" y="510" type="curve"/>
      <point x="168" y="510"/>
      <point x="28" y="510"/>
      <point x="162" y="510" type="curve"/>
      <point x="162" y="533"/>
      <point x="162" y="510"/>
    </contour>
    <contour>
      <point x="176" y="0" type="curve"/>
      <point x="176" y="178"/>
      <point x="176" y="355"/>
      <point x="176" y="533" type="curve"/>
      <point x="148" y="533"/>
      <point x="176" y="533"/>
      <point x="148" y="533" type="curve"/>
      <point x="148" y="355"/>
      <point x="148" y="178"/>
      <point x="148" y="0" type="curve"/>
      <point x="176" y="0"/>
      <point x="148" y="0"/>
    </contour>
    <contour>
      <point x="179" y="685" type="curve"/>
      <point x="179" y="696"/>
      <point x="171" y="703"/>
      <point x="160" y="703" type="curve"/>
      <point x="149" y="703"/>
      <point x="142" y="695"/>
      <point x="142" y="685" type="curve"/>
      <point x="173" y="685"/>
      <point x="148" y="685"/>
      <point x="179" y="685" type="curve"/>
      <point x="179" y="674"/>
      <point x="171" y="666"/>
      <point x="160" y="666" type="curve"/>
      <point x="149" y="666"/>
      <point x="142" y="674"/>
      <point x="142" y="685" type="curve"/>
      <point x="173" y="685"/>
      <point x="148" y="685"/>
    </contour>
  </outline>
</glyph>
<glyph name="j" format="1">
  <advance width="278"/>
  <unicode hex="006A"/>
  <outline>
    <contour>
      <point x="161" y="533" type="curve"/>
      <point x="116" y="533"/>
      <point x="78" y="533"/>
      <point x="34" y="533" type="curve"/>
      <point x="34" y="510"/>
      <point x="34" y="533"/>
      <point x="34" y="510" type="curve"/>
      <point x="168" y="510"/>
      <point x="27" y="510"/>
      <point x="161" y="510" type="curve"/>
      <point x="161" y="533"/>
      <point x="161" y="510"/>
    </contour>
    <contour>
      <point x="7" y="-301" type="curve"/>
      <point x="14" y="-302"/>
      <point x="24" y="-304"/>
      <point x="34" y="-304" type="curve"/>
      <point x="121" y="-304"/>
      <point x="174" y="-234"/>
      <point x="174" y="-142" type="curve"/>
      <point x="174" y="83"/>
      <point x="174" y="308"/>
      <point x="174" y="533" type="curve"/>
      <point x="149" y="533"/>
      <point x="174" y="533"/>
      <point x="149" y="533" type="curve"/>
      <point x="149" y="308"/>
      <point x="149" y="83"/>
      <point x="149" y="-142" type="curve"/>
      <point x="149" y="-214"/>
      <point x="106" y="-278"/>
      <point x="35" y="-278" type="curve"/>
      <point x="27" y="-278"/>
      <point x="17" y="-277"/>
      <point x="12" y="-276" type="curve"/>
      <point x="8" y="-298"/>
      <point x="11" y="-279"/>
    </contour>
    <contour>
      <point x="181" y="685" type="curve"/>
      <point x="181" y="696"/>
      <point x="174" y="702"/>
      <point x="163" y="702" type="curve"/>
      <point x="151" y="702"/>
      <point x="144" y="695"/>
      <point x="144" y="685" type="curve"/>
      <point x="176" y="685"/>
      <point x="151" y="685"/>
      <point x="181" y="685" type="curve"/>
      <point x="181" y="674"/>
      <point x="174" y="667"/>
      <point x="163" y="667" type="curve"/>
      <point x="151" y="667"/>
      <point x="144" y="674"/>
      <point x="144" y="685" type="curve"/>
      <point x="176" y="685"/>
      <point x="151" y="685"/>
    </contour>
  </outline>
</glyph>
<glyph name="k" format="1">
  <advance width="537"/>
  <unicode hex="006B"/>
  <outline>
    <contour>
      <point x="320" y="-57" type="move" name="bottom"/>
    </contour>
    <contour>
      <point x="134" y="23" type="curve"/>
      <point x="0" y="23"/>
      <point x="141" y="23"/>
      <point x="7" y="23" type="curve"/>
      <point x="7" y="0"/>
      <point x="7" y="23"/>
      <point x="7" y="0" type="curve"/>
      <point x="51" y="0"/>
      <point x="90" y="0"/>
      <point x="134" y="0" type="curve"/>
      <point x="134" y="23"/>
      <point x="134" y="0"/>
    </contour>
    <contour>
      <point x="402" y="0" type="curve"/>
      <point x="443" y="0"/>
      <point x="479" y="0"/>
      <point x="522" y="0" type="curve"/>
      <point x="522" y="23"/>
      <point x="522" y="0"/>
      <point x="522" y="23" type="curve"/>
      <point x="396" y="23"/>
      <point x="528" y="23"/>
      <point x="402" y="23" type="curve"/>
      <point x="402" y="0"/>
      <point x="402" y="23"/>
    </contour>
    <contour>
      <point x="381" y="510" type="curve"/>
      <point x="495" y="510"/>
      <point x="375" y="510"/>
      <point x="489" y="510" type="curve"/>
      <point x="489" y="533"/>
      <point x="489" y="510"/>
      <point x="489" y="533" type="curve"/>
      <point x="451" y="533"/>
      <point x="418" y="533"/>
      <point x="381" y="533" type="curve"/>
      <point x="381" y="510"/>
      <point x="381" y="533"/>
    </contour>
    <contour>
      <point x="134" y="0" type="curve"/>
      <point x="173" y="0"/>
      <point x="128" y="0"/>
      <point x="243" y="0" type="curve"/>
      <point x="243" y="23"/>
      <point x="243" y="0"/>
      <point x="243" y="23" type="curve"/>
      <point x="128" y="23"/>
      <point x="249" y="23"/>
      <point x="134" y="23" type="curve"/>
      <point x="134" y="0"/>
      <point x="134" y="23"/>
    </contour>
    <contour>
      <point x="381" y="533" type="curve"/>
      <point x="339" y="533"/>
      <point x="302" y="533"/>
      <point x="260" y="533" type="curve"/>
      <point x="260" y="510"/>
      <point x="260" y="533"/>
      <point x="260" y="510" type="curve"/>
      <point x="387" y="510"/>
      <point x="254" y="510"/>
      <point x="381" y="510" type="curve"/>
      <point x="381" y="533"/>
      <point x="381" y="510"/>
    </contour>
    <contour>
      <point x="136" y="800" type="curve"/>
      <point x="91" y="800"/>
      <point x="53" y="800"/>
      <point x="8" y="800" type="curve"/>
      <point x="8" y="777"/>
      <point x="8" y="800"/>
      <point x="8" y="777" type="curve"/>
      <point x="142" y="777"/>
      <point x="2" y="777"/>
      <point x="136" y="777" type="curve"/>
      <point x="136" y="800"/>
      <point x="136" y="777"/>
    </contour>
    <contour>
      <point x="147" y="0" type="curve"/>
      <point x="147" y="800" type="line"/>
      <point x="122" y="800"/>
      <point x="147" y="800"/>
      <point x="122" y="800" type="curve"/>
      <point x="122" y="533"/>
      <point x="122" y="267"/>
      <point x="122" y="0" type="curve"/>
      <point x="147" y="0"/>
      <point x="122" y="0"/>
    </contour>
    <contour>
      <point x="376" y="533" type="curve"/>
      <point x="134" y="275" type="line"/>
      <point x="173" y="275"/>
      <point x="131" y="275"/>
      <point x="170" y="275" type="curve"/>
      <point x="412" y="532" type="line"/>
      <point x="373" y="532"/>
      <point x="415" y="533"/>
    </contour>
    <contour>
      <point x="435" y="1" type="curve"/>
      <point x="170" y="275" type="line"/>
      <point x="131" y="275"/>
      <point x="173" y="275"/>
      <point x="134" y="275" type="curve"/>
      <point x="397" y="0" type="line"/>
      <point x="438" y="0"/>
      <point x="394" y="1"/>
    </contour>
  </outline>
</glyph>
<glyph name="l" format="1">
  <advance width="285"/>
  <unicode hex="006C"/>
  <outline>
    <contour>
      <point x="142" y="895" type="move" name="top"/>
    </contour>
    <contour>
      <point x="145" y="-57" type="move" name="bottom"/>
    </contour>
    <contour>
      <point x="142" y="23" type="curve"/>
      <point x="8" y="23"/>
      <point x="142" y="23"/>
      <point x="8" y="23" type="curve"/>
      <point x="8" y="0"/>
      <point x="8" y="23"/>
      <point x="8" y="0" type="curve"/>
      <point x="53" y="0"/>
      <point x="97" y="0"/>
      <point x="142" y="0" type="curve"/>
      <point x="142" y="23"/>
      <point x="142" y="0"/>
    </contour>
    <contour>
      <point x="144" y="800" type="curve"/>
      <point x="99" y="800"/>
      <point x="55" y="800"/>
      <point x="10" y="800" type="curve"/>
      <point x="10" y="777"/>
      <point x="10" y="800"/>
      <point x="10" y="777" type="curve"/>
      <point x="144" y="777"/>
      <point x="10" y="777"/>
      <point x="144" y="777" type="curve"/>
      <point x="144" y="800"/>
      <point x="144" y="777"/>
    </contour>
    <contour>
      <point x="142" y="0" type="curve"/>
      <point x="188" y="0"/>
      <point x="232" y="0"/>
      <point x="277" y="0" type="curve"/>
      <point x="277" y="23"/>
      <point x="277" y="0"/>
      <point x="277" y="23" type="curve"/>
      <point x="142" y="23"/>
      <point x="277" y="23"/>
      <point x="142" y="23" type="curve"/>
      <point x="142" y="0"/>
      <point x="142" y="23"/>
    </contour>
    <contour>
      <point x="154" y="0" type="curve"/>
      <point x="154" y="267"/>
      <point x="154" y="533"/>
      <point x="154" y="800" type="curve"/>
      <point x="129" y="800"/>
      <point x="154" y="800"/>
      <point x="129" y="800" type="curve"/>
      <point x="129" y="533"/>
      <point x="129" y="267"/>
      <point x="129" y="0" type="curve"/>
      <point x="154" y="0"/>
      <point x="129" y="0"/>
    </contour>
  </outline>
</glyph>
<glyph name="m" format="1">
  <advance width="874"/>
  <unicode hex="006D"/>
  <outline>
    <contour>
      <point x="452" y="0" type="curve"/>
      <point x="561" y="0"/>
      <point x="452" y="0"/>
      <point x="562" y="0" type="curve"/>
      <point x="562" y="23"/>
      <point x="562" y="0"/>
      <point x="562" y="23" type="curve"/>
      <point x="452" y="23"/>
      <point x="561" y="23"/>
      <point x="452" y="23" type="curve"/>
      <point x="452" y="0"/>
      <point x="452" y="23"/>
    </contour>
    <contour>
      <point x="743" y="0" type="curve"/>
      <point x="787" y="0"/>
      <point x="826" y="0"/>
      <point x="870" y="0" type="curve"/>
      <point x="870" y="23"/>
      <point x="870" y="0"/>
      <point x="870" y="23" type="curve"/>
      <point x="737" y="23"/>
      <point x="877" y="23"/>
      <point x="743" y="23" type="curve"/>
      <point x="743" y="0"/>
      <point x="743" y="23"/>
    </contour>
    <contour>
      <point x="162" y="23" type="curve"/>
      <point x="28" y="23"/>
      <point x="168" y="23"/>
      <point x="35" y="23" type="curve"/>
      <point x="35" y="0"/>
      <point x="35" y="23"/>
      <point x="35" y="0" type="curve"/>
      <point x="79" y="0"/>
      <point x="117" y="0"/>
      <point x="162" y="0" type="curve"/>
      <point x="162" y="23"/>
      <point x="162" y="0"/>
    </contour>
    <contour>
      <point x="162" y="0" type="curve"/>
      <point x="201" y="0"/>
      <point x="148" y="0"/>
      <point x="265" y="0" type="curve"/>
      <point x="265" y="23"/>
      <point x="265" y="0"/>
      <point x="265" y="23" type="curve"/>
      <point x="148" y="23"/>
      <point x="278" y="23"/>
      <point x="162" y="23" type="curve"/>
      <point x="162" y="0"/>
      <point x="162" y="23"/>
    </contour>
    <contour>
      <point x="162" y="533" type="curve"/>
      <point x="117" y="533"/>
      <point x="79" y="533"/>
      <point x="35" y="533" type="curve"/>
      <point x="35" y="510"/>
      <point x="35" y="533"/>
      <point x="35" y="510" type="curve"/>
      <point x="168" y="510"/>
      <point x="28" y="510"/>
      <point x="162" y="510" type="curve"/>
      <point x="162" y="533"/>
      <point x="162" y="510"/>
    </contour>
    <contour>
      <point x="459" y="353" type="curve"/>
      <point x="488" y="439"/>
      <point x="537" y="516"/>
      <point x="616" y="516" type="curve"/>
      <point x="712" y="516"/>
      <point x="729" y="448"/>
      <point x="729" y="341" type="curve"/>
      <point x="729" y="228"/>
      <point x="729" y="114"/>
      <point x="729" y="0" type="curve"/>
      <point x="754" y="0"/>
      <point x="729" y="0"/>
      <point x="754" y="0" type="curve"/>
      <point x="754" y="115"/>
      <point x="754" y="229"/>
      <point x="754" y="344" type="curve"/>
      <point x="754" y="463"/>
      <point x="730" y="538"/>
      <point x="621" y="538" type="curve"/>
      <point x="525" y="538"/>
      <point x="471" y="462"/>
      <point x="446" y="365" type="curve"/>
      <point x="459" y="353"/>
      <point x="446" y="365"/>
    </contour>
    <contour>
      <point x="170" y="353" type="curve"/>
      <point x="196" y="437"/>
      <point x="243" y="516"/>
      <point x="326" y="516" type="curve"/>
      <point x="422" y="516"/>
      <point x="440" y="448"/>
      <point x="440" y="341" type="curve"/>
      <point x="440" y="228"/>
      <point x="440" y="114"/>
      <point x="440" y="0" type="curve"/>
      <point x="465" y="0"/>
      <point x="440" y="0"/>
      <point x="465" y="0" type="curve"/>
      <point x="465" y="115"/>
      <point x="465" y="229"/>
      <point x="465" y="344" type="curve"/>
      <point x="465" y="463"/>
      <point x="441" y="539"/>
      <point x="332" y="539" type="curve"/>
      <point x="233" y="539"/>
      <point x="182" y="463"/>
      <point x="157" y="365" type="curve"/>
      <point x="170" y="353"/>
      <point x="157" y="365"/>
    </contour>
    <contour>
      <point x="175" y="0" type="curve"/>
      <point x="175" y="178"/>
      <point x="175" y="355"/>
      <point x="175" y="533" type="curve"/>
      <point x="150" y="533"/>
      <point x="175" y="533"/>
      <point x="150" y="533" type="curve"/>
      <point x="150" y="355"/>
      <point x="150" y="178"/>
      <point x="150" y="0" type="curve"/>
      <point x="175" y="0"/>
      <point x="150" y="0"/>
    </contour>
  </outline>
</glyph>
<glyph name="o" format="1">
  <advance width="531"/>
  <unicode hex="006F"/>
  <outline>
    <contour>
      <point x="261" y="670" type="move" name="top"/>
    </contour>
    <contour>
      <point x="90" y="268" type="curve"/>
      <point x="90" y="411"/>
      <point x="138" y="516"/>
      <point x="262" y="516" type="curve"/>
      <point x="392" y="516"/>
      <point x="441" y="410"/>
      <point x="441" y="266" type="curve"/>
      <point x="441" y="123"/>
      <point x="392" y="18"/>
      <point x="266" y="18" type="curve"/>
      <point x="134" y="18"/>
      <point x="90" y="125"/>
      <point x="90" y="268" type="curve"/>
      <point x="66" y="268"/>
      <point x="89" y="268"/>
      <point x="65" y="268" type="curve"/>
      <point x="65" y="110"/>
      <point x="119" y="-5"/>
      <point x="265" y="-5" type="curve"/>
      <point x="410" y="-5"/>
      <point x="466" y="108"/>
      <point x="466" y="266" type="curve"/>
      <point x="466" y="424"/>
      <point x="410" y="538"/>
      <point x="263" y="538" type="curve"/>
      <point x="120" y="538"/>
      <point x="65" y="423"/>
      <point x="65" y="268" type="curve"/>
      <point x="89" y="268"/>
      <point x="66" y="268"/>
    </contour>
  </outline>
</glyph>
<glyph name="p" format="1">
  <advance width="587"/>
  <unicode hex="0070"/>
  <outline>
    <contour>
      <point x="136" y="-277" type="curve"/>
      <point x="-1" y="-277"/>
      <point x="142" y="-277"/>
      <point x="6" y="-277" type="curve"/>
      <point x="6" y="-300"/>
      <point x="6" y="-277"/>
      <point x="6" y="-300" type="curve"/>
      <point x="52" y="-300"/>
      <point x="91" y="-300"/>
      <point x="136" y="-300" type="curve"/>
      <point x="136" y="-277"/>
      <point x="136" y="-300"/>
    </contour>
    <contour>
      <point x="136" y="-300" type="curve"/>
      <point x="179" y="-300"/>
      <point x="214" y="-300"/>
      <point x="257" y="-300" type="curve"/>
      <point x="257" y="-277"/>
      <point x="257" y="-300"/>
      <point x="257" y="-277" type="curve"/>
      <point x="129" y="-277"/>
      <point x="264" y="-277"/>
      <point x="136" y="-277" type="curve"/>
      <point x="136" y="-300"/>
      <point x="136" y="-277"/>
    </contour>
    <contour>
      <point x="137" y="533" type="curve"/>
      <point x="92" y="533"/>
      <point x="53" y="533"/>
      <point x="7" y="533" type="curve"/>
      <point x="7" y="510"/>
      <point x="7" y="533"/>
      <point x="7" y="510" type="curve"/>
      <point x="144" y="510"/>
      <point x="1" y="510"/>
      <point x="137" y="510" type="curve"/>
      <point x="137" y="533"/>
      <point x="137" y="510"/>
    </contour>
    <contour>
      <point x="142" y="409" type="curve"/>
      <point x="169" y="458"/>
      <point x="239" y="516"/>
      <point x="320" y="516" type="curve"/>
      <point x="444" y="516"/>
      <point x="497" y="409"/>
      <point x="497" y="276" type="curve"/>
      <point x="499" y="133"/>
      <point x="445" y="17"/>
      <point x="320" y="18" type="curve"/>
      <point x="241" y="18"/>
      <point x="190" y="62"/>
      <point x="144" y="123" type="curve"/>
      <point x="128" y="110"/>
      <point x="144" y="122"/>
      <point x="128" y="110" type="curve"/>
      <point x="176" y="40"/>
      <point x="233" y="-5"/>
      <point x="320" y="-5" type="curve"/>
      <point x="467" y="-5"/>
      <point x="522" y="122"/>
      <point x="521" y="278" type="curve"/>
      <point x="521" y="423"/>
      <point x="462" y="538"/>
      <point x="321" y="538" type="curve"/>
      <point x="230" y="538"/>
      <point x="162" y="483"/>
      <point x="130" y="430" type="curve"/>
      <point x="145" y="411"/>
      <point x="127" y="427"/>
    </contour>
    <contour>
      <point x="149" y="-300" type="curve"/>
      <point x="149" y="-22"/>
      <point x="149" y="255"/>
      <point x="149" y="533" type="curve"/>
      <point x="124" y="533"/>
      <point x="149" y="533"/>
      <point x="124" y="533" type="curve"/>
      <point x="124" y="255"/>
      <point x="124" y="-22"/>
      <point x="124" y="-300" type="curve"/>
      <point x="149" y="-300"/>
      <point x="124" y="-300"/>
    </contour>
  </outline>
</glyph>
<glyph name="q" format="1">
  <advance width="575"/>
  <unicode hex="0071"/>
  <outline>
    <contour>
      <point x="449" y="510" type="curve"/>
      <point x="574" y="510"/>
      <point x="444" y="510"/>
      <point x="568" y="510" type="curve"/>
      <point x="568" y="533"/>
      <point x="568" y="510"/>
      <point x="568" y="533" type="curve"/>
      <point x="527" y="533"/>
      <point x="491" y="533"/>
      <point x="449" y="533" type="curve"/>
      <point x="449" y="510"/>
      <point x="449" y="533"/>
    </contour>
    <contour>
      <point x="449" y="-277" type="curve"/>
      <point x="316" y="-277"/>
      <point x="456" y="-277"/>
      <point x="322" y="-277" type="curve"/>
      <point x="322" y="-300"/>
      <point x="322" y="-277"/>
      <point x="322" y="-300" type="curve"/>
      <point x="366" y="-300"/>
      <point x="405" y="-300"/>
      <point x="449" y="-300" type="curve"/>
      <point x="449" y="-277"/>
      <point x="449" y="-300"/>
    </contour>
    <contour>
      <point x="449" y="-300" type="curve"/>
      <point x="491" y="-300"/>
      <point x="527" y="-300"/>
      <point x="568" y="-300" type="curve"/>
      <point x="568" y="-277"/>
      <point x="568" y="-300"/>
      <point x="568" y="-277" type="curve"/>
      <point x="444" y="-277"/>
      <point x="574" y="-277"/>
      <point x="449" y="-277" type="curve"/>
      <point x="449" y="-300"/>
      <point x="449" y="-277"/>
    </contour>
    <contour>
      <point x="455" y="437" type="curve"/>
      <point x="411" y="503"/>
      <point x="336" y="538"/>
      <point x="263" y="538" type="curve"/>
      <point x="120" y="538"/>
      <point x="63" y="416"/>
      <point x="63" y="264" type="curve"/>
      <point x="64" y="113"/>
      <point x="125" y="-6"/>
      <point x="267" y="-6" type="curve"/>
      <point x="348" y="-6"/>
      <point x="418" y="51"/>
      <point x="455" y="121" type="curve"/>
      <point x="439" y="135"/>
      <point x="456" y="126"/>
      <point x="442" y="140" type="curve"/>
      <point x="406" y="72"/>
      <point x="340" y="17"/>
      <point x="267" y="17" type="curve"/>
      <point x="142" y="17"/>
      <point x="89" y="128"/>
      <point x="89" y="265" type="curve"/>
      <point x="89" y="403"/>
      <point x="140" y="515"/>
      <point x="264" y="515" type="curve"/>
      <point x="332" y="515"/>
      <point x="401" y="479"/>
      <point x="444" y="416" type="curve"/>
      <point x="456" y="431"/>
      <point x="442" y="421"/>
    </contour>
    <contour>
      <point x="461" y="-300" type="curve"/>
      <point x="461" y="-22"/>
      <point x="461" y="255"/>
      <point x="461" y="533" type="curve"/>
      <point x="435" y="533"/>
      <point x="461" y="533"/>
      <point x="435" y="533" type="curve"/>
      <point x="435" y="255"/>
      <point x="435" y="-22"/>
      <point x="435" y="-300" type="curve"/>
      <point x="461" y="-300"/>
      <point x="435" y="-300"/>
    </contour>
  </outline>
</glyph>
<glyph name="s" format="1">
  <advance width="439"/>
  <unicode hex="0073"/>
  <outline>
    <contour>
      <point x="220" y="670" type="move" name="top"/>
    </contour>
    <contour>
      <point x="237" y="-58" type="move" name="bottom"/>
    </contour>
    <contour>
      <point x="63" y="50" type="curve"/>
      <point x="116" y="18"/>
      <point x="169" y="-5"/>
      <point x="229" y="-5" type="curve"/>
      <point x="322" y="-5"/>
      <point x="376" y="46"/>
      <point x="376" y="133" type="curve"/>
      <point x="375" y="225"/>
      <point x="312" y="257"/>
      <point x="225" y="288" type="curve" smooth="yes"/>
      <point x="156" y="314"/>
      <point x="112" y="347"/>
      <point x="112" y="419" type="curve"/>
      <point x="112" y="479"/>
      <point x="151" y="515"/>
      <point x="214" y="515" type="curve"/>
      <point x="260" y="515"/>
      <point x="302" y="497"/>
      <point x="336" y="471" type="curve"/>
      <point x="343" y="483"/>
      <point x="341" y="480"/>
      <point x="348" y="491" type="curve"/>
      <point x="311" y="519"/>
      <point x="265" y="538"/>
      <point x="215" y="538" type="curve"/>
      <point x="138" y="538"/>
      <point x="89" y="493"/>
      <point x="89" y="419" type="curve"/>
      <point x="89" y="337"/>
      <point x="138" y="297"/>
      <point x="217" y="267" type="curve" smooth="yes"/>
      <point x="292" y="239"/>
      <point x="352" y="214"/>
      <point x="351" y="133" type="curve"/>
      <point x="351" y="62"/>
      <point x="305" y="18"/>
      <point x="233" y="18" type="curve"/>
      <point x="175" y="18"/>
      <point x="126" y="40"/>
      <point x="76" y="70" type="curve"/>
      <point x="63" y="50"/>
      <point x="77" y="70"/>
    </contour>
    <contour>
      <point x="325" y="491" type="curve"/>
      <point x="325" y="371"/>
      <point x="325" y="499"/>
      <point x="325" y="379" type="curve"/>
      <point x="348" y="379"/>
      <point x="325" y="379"/>
      <point x="348" y="379" type="curve"/>
      <point x="348" y="499"/>
      <point x="348" y="371"/>
      <point x="348" y="491" type="curve"/>
      <point x="335" y="491"/>
      <point x="338" y="491"/>
    </contour>
    <contour>
      <point x="86" y="50" type="curve"/>
      <point x="86" y="170"/>
      <point x="86" y="42"/>
      <point x="86" y="162" type="curve"/>
      <point x="63" y="162"/>
      <point x="86" y="162"/>
      <point x="63" y="162" type="curve"/>
      <point x="63" y="42"/>
      <point x="63" y="170"/>
      <point x="63" y="50" type="curve"/>
      <point x="86" y="50"/>
      <point x="63" y="50"/>
    </contour>
  </outline>
</glyph>
<glyph name="t" format="1">
  <advance width="382"/>
  <unicode hex="0074"/>
  <outline>
    <contour>
      <point x="255" y="-58" type="move" name="bottom"/>
    </contour>
    <contour>
      <point x="20" y="510" type="curve"/>
      <point x="362" y="510" type="line"/>
      <point x="362" y="533"/>
      <point x="362" y="510"/>
      <point x="362" y="533" type="curve"/>
      <point x="20" y="533" type="line"/>
      <point x="20" y="510"/>
      <point x="20" y="533"/>
    </contour>
    <contour>
      <point x="339" y="48" type="curve"/>
      <point x="311" y="31"/>
      <point x="289" y="19"/>
      <point x="255" y="19" type="curve"/>
      <point x="190" y="19"/>
      <point x="168" y="68"/>
      <point x="168" y="145" type="curve"/>
      <point x="168" y="679" type="line"/>
      <point x="160" y="674"/>
      <point x="149" y="661"/>
      <point x="142" y="656" type="curve"/>
      <point x="142" y="143" type="line"/>
      <point x="142" y="52"/>
      <point x="172" y="-5"/>
      <point x="253" y="-5" type="curve"/>
      <point x="291" y="-5"/>
      <point x="317" y="6"/>
      <point x="351" y="25" type="curve"/>
      <point x="339" y="48"/>
      <point x="351" y="25"/>
    </contour>
  </outline>
</glyph>
<glyph name="v" format="1">
  <advance width="607"/>
  <unicode hex="0076"/>
  <outline>
    <contour>
      <point x="128" y="533" type="curve"/>
      <point x="84" y="533"/>
      <point x="45" y="533"/>
      <point x="1" y="533" type="curve"/>
      <point x="1" y="510"/>
      <point x="1" y="533"/>
      <point x="1" y="510" type="curve"/>
      <point x="135" y="510"/>
      <point x="-6" y="510"/>
      <point x="128" y="510" type="curve"/>
      <point x="128" y="533"/>
      <point x="128" y="510"/>
    </contour>
    <contour>
      <point x="128" y="510" type="curve"/>
      <point x="240" y="510"/>
      <point x="122" y="510"/>
      <point x="234" y="510" type="curve"/>
      <point x="234" y="533"/>
      <point x="234" y="510"/>
      <point x="234" y="533" type="curve"/>
      <point x="196" y="533"/>
      <point x="165" y="533"/>
      <point x="128" y="533" type="curve"/>
      <point x="128" y="510"/>
      <point x="128" y="533"/>
    </contour>
    <contour>
      <point x="485" y="533" type="curve"/>
      <point x="446" y="533"/>
      <point x="412" y="533"/>
      <point x="373" y="533" type="curve"/>
      <point x="373" y="510"/>
      <point x="373" y="533"/>
      <point x="373" y="510" type="curve"/>
      <point x="492" y="510"/>
      <point x="366" y="510"/>
      <point x="485" y="510" type="curve"/>
      <point x="485" y="533"/>
      <point x="485" y="510"/>
    </contour>
    <contour>
      <point x="485" y="510" type="curve"/>
      <point x="611" y="510"/>
      <point x="479" y="510"/>
      <point x="605" y="510" type="curve"/>
      <point x="605" y="533"/>
      <point x="605" y="510"/>
      <point x="605" y="533" type="curve"/>
      <point x="563" y="533"/>
      <point x="528" y="533"/>
      <point x="485" y="533" type="curve"/>
      <point x="485" y="510"/>
      <point x="485" y="533"/>
    </contour>
    <contour>
      <point x="106" y="533" type="curve"/>
      <point x="166" y="355"/>
      <point x="227" y="178"/>
      <point x="287" y="0" type="curve"/>
      <point x="313" y="0"/>
      <point x="287" y="0"/>
      <point x="313" y="0" type="curve"/>
      <point x="253" y="178"/>
      <point x="194" y="355"/>
      <point x="135" y="533" type="curve"/>
      <point x="106" y="533"/>
      <point x="135" y="533"/>
    </contour>
    <contour>
      <point x="481" y="533" type="curve"/>
      <point x="292" y="0" type="line"/>
      <point x="318" y="0"/>
      <point x="292" y="0"/>
      <point x="318" y="0" type="curve"/>
      <point x="381" y="178"/>
      <point x="445" y="355"/>
      <point x="508" y="533" type="curve"/>
      <point x="481" y="533"/>
      <point x="508" y="533"/>
    </contour>
  </outline>
</glyph>
<glyph name="w" format="1">
  <advance width="898"/>
  <unicode hex="0077"/>
  <outline>
    <contour>
      <point x="769" y="510" type="curve"/>
      <point x="902" y="510"/>
      <point x="762" y="510"/>
      <point x="896" y="510" type="curve"/>
      <point x="896" y="533"/>
      <point x="896" y="510"/>
      <point x="896" y="533" type="curve"/>
      <point x="852" y="533"/>
      <point x="813" y="533"/>
      <point x="769" y="533" type="curve"/>
      <point x="769" y="510"/>
      <point x="769" y="533"/>
    </contour>
    <contour>
      <point x="769" y="533" type="curve"/>
      <point x="725" y="533"/>
      <point x="701" y="533"/>
      <point x="656" y="533" type="curve"/>
      <point x="656" y="510"/>
      <point x="656" y="533"/>
      <point x="656" y="510" type="curve"/>
      <point x="789" y="510"/>
      <point x="637" y="510"/>
      <point x="769" y="510" type="curve"/>
      <point x="769" y="533"/>
      <point x="769" y="510"/>
    </contour>
    <contour>
      <point x="128" y="533" type="curve"/>
      <point x="84" y="533"/>
      <point x="45" y="533"/>
      <point x="1" y="533" type="curve"/>
      <point x="1" y="510"/>
      <point x="1" y="533"/>
      <point x="1" y="510" type="curve"/>
      <point x="135" y="510"/>
      <point x="-6" y="510"/>
      <point x="128" y="510" type="curve"/>
      <point x="128" y="533"/>
      <point x="128" y="510"/>
    </contour>
    <contour>
      <point x="128" y="510" type="curve"/>
      <point x="261" y="510"/>
      <point x="115" y="510"/>
      <point x="248" y="510" type="curve"/>
      <point x="248" y="533"/>
      <point x="248" y="510"/>
      <point x="248" y="533" type="curve"/>
      <point x="204" y="533"/>
      <point x="172" y="533"/>
      <point x="128" y="533" type="curve"/>
      <point x="128" y="510"/>
      <point x="128" y="533"/>
    </contour>
    <contour>
      <point x="288" y="0" type="curve"/>
      <point x="348" y="178"/>
      <point x="407" y="355"/>
      <point x="466" y="533" type="curve"/>
      <point x="438" y="533"/>
      <point x="466" y="533"/>
      <point x="438" y="533" type="curve"/>
      <point x="381" y="355"/>
      <point x="322" y="178"/>
      <point x="264" y="0" type="curve"/>
      <point x="288" y="0"/>
      <point x="264" y="0"/>
    </contour>
    <contour>
      <point x="767" y="533" type="curve"/>
      <point x="713" y="355"/>
      <point x="658" y="178"/>
      <point x="605" y="0" type="curve"/>
      <point x="629" y="0"/>
      <point x="605" y="0"/>
      <point x="629" y="0" type="curve"/>
      <point x="684" y="178"/>
      <point x="739" y="355"/>
      <point x="795" y="533" type="curve"/>
      <point x="767" y="533"/>
      <point x="795" y="533"/>
    </contour>
    <contour>
      <point x="444" y="533" type="curve"/>
      <point x="497" y="355"/>
      <point x="550" y="178"/>
      <point x="603" y="0" type="curve"/>
      <point x="627" y="0"/>
      <point x="603" y="0"/>
      <point x="627" y="0" type="curve"/>
      <point x="575" y="178"/>
      <point x="522" y="355"/>
      <point x="470" y="533" type="curve"/>
      <point x="444" y="533"/>
      <point x="470" y="533"/>
    </contour>
    <contour>
      <point x="103" y="533" type="curve"/>
      <point x="156" y="355"/>
      <point x="210" y="178"/>
      <point x="263" y="0" type="curve"/>
      <point x="287" y="0"/>
      <point x="263" y="0"/>
      <point x="287" y="0" type="curve"/>
      <point x="235" y="178"/>
      <point x="183" y="355"/>
      <point x="131" y="533" type="curve"/>
      <point x="103" y="533"/>
      <point x="131" y="533"/>
    </contour>
  </outline>
</glyph>
<glyph name="braceleft" format="1">
  <advance width="289"/>
  <unicode hex="007B"/>
  <outline>
    <contour>
      <point x="241" y="-101" type="curve"/>
      <point x="174" y="-101"/>
      <point x="152" y="-46"/>
      <point x="152" y="26" type="curve"/>
      <point x="152" y="85"/>
      <point x="152" y="144"/>
      <point x="152" y="203" type="curve"/>
      <point x="152" y="287"/>
      <point x="118" y="351"/>
      <point x="40" y="351" type="curve"/>
      <point x="40" y="327"/>
      <point x="40" y="351"/>
      <point x="40" y="327" type="curve"/>
      <point x="104" y="327"/>
      <point x="128" y="275"/>
      <point x="128" y="205" type="curve"/>
      <point x="128" y="146"/>
      <point x="128" y="86"/>
      <point x="128" y="27" type="curve"/>
      <point x="128" y="-59"/>
      <point x="162" y="-124"/>
      <point x="241" y="-124" type="curve"/>
      <point x="241" y="-101"/>
      <point x="241" y="-124"/>
    </contour>
    <contour>
      <point x="241" y="800" type="curve"/>
      <point x="162" y="800"/>
      <point x="128" y="737"/>
      <point x="128" y="650" type="curve"/>
      <point x="128" y="590"/>
      <point x="128" y="530"/>
      <point x="128" y="470" type="curve"/>
      <point x="128" y="400"/>
      <point x="104" y="351"/>
      <point x="40" y="351" type="curve"/>
      <point x="40" y="327"/>
      <point x="40" y="351"/>
      <point x="40" y="327" type="curve"/>
      <point x="117" y="327"/>
      <point x="152" y="389"/>
      <point x="152" y="473" type="curve"/>
      <point x="152" y="532"/>
      <point x="152" y="591"/>
      <point x="152" y="650" type="curve"/>
      <point x="152" y="722"/>
      <point x="174" y="777"/>
      <point x="241" y="777" type="curve"/>
      <point x="241" y="800"/>
      <point x="241" y="777"/>
    </contour>
  </outline>
</glyph>
<glyph name="bar" format="1">
  <advance width="191"/>
  <unicode hex="007C"/>
  <outline>
    <contour>
      <point x="108" y="-300" type="curve"/>
      <point x="108" y="67"/>
      <point x="108" y="433"/>
      <point x="108" y="800" type="curve"/>
      <point x="83" y="800"/>
      <point x="108" y="800"/>
      <point x="83" y="800" type="curve"/>
      <point x="83" y="433"/>
      <point x="83" y="67"/>
      <point x="83" y="-300" type="curve"/>
      <point x="108" y="-300"/>
      <point x="83" y="-300"/>
    </contour>
  </outline>
</glyph>
<glyph name="braceright" format="1">
  <advance width="289"/>
  <unicode hex="007D"/>
  <outline>
    <contour>
      <point x="48" y="-124" type="curve"/>
      <point x="128" y="-124"/>
      <point x="161" y="-60"/>
      <point x="161" y="27" type="curve"/>
      <point x="161" y="86"/>
      <point x="161" y="146"/>
      <point x="161" y="205" type="curve"/>
      <point x="161" y="275"/>
      <point x="185" y="327"/>
      <point x="249" y="327" type="curve"/>
      <point x="249" y="351"/>
      <point x="249" y="327"/>
      <point x="249" y="351" type="curve"/>
      <point x="172" y="351"/>
      <point x="137" y="286"/>
      <point x="137" y="203" type="curve"/>
      <point x="137" y="144"/>
      <point x="137" y="85"/>
      <point x="137" y="26" type="curve"/>
      <point x="137" y="-46"/>
      <point x="115" y="-101"/>
      <point x="48" y="-101" type="curve"/>
      <point x="48" y="-124"/>
      <point x="48" y="-101"/>
    </contour>
    <contour>
      <point x="48" y="777" type="curve"/>
      <point x="115" y="777"/>
      <point x="137" y="722"/>
      <point x="137" y="650" type="curve"/>
      <point x="137" y="591"/>
      <point x="137" y="532"/>
      <point x="137" y="473" type="curve"/>
      <point x="137" y="388"/>
      <point x="172" y="327"/>
      <point x="249" y="327" type="curve"/>
      <point x="249" y="351"/>
      <point x="249" y="327"/>
      <point x="249" y="351" type="curve"/>
      <point x="186" y="351"/>
      <point x="161" y="400"/>
      <point x="161" y="470" type="curve"/>
      <point x="161" y="530"/>
      <point x="161" y="590"/>
      <point x="161" y="650" type="curve"/>
      <point x="161" y="736"/>
      <point x="127" y="800"/>
      <point x="48" y="800" type="curve"/>
      <point x="48" y="777"/>
      <point x="48" y="800"/>
    </contour>
  </outline>
</glyph>
<glyph name="asciitilde" format="1">
  <advance width="616"/>
  <unicode hex="007E"/>
  <outline>
    <contour>
      <point x="506" y="344" type="curve"/>
      <point x="491" y="296"/>
      <point x="475" y="242"/>
      <point x="418" y="242" type="curve"/>
      <point x="374" y="242"/>
      <point x="349" y="260"/>
      <point x="317" y="290" type="curve"/>
      <point x="283" y="324"/>
      <point x="254" y="345"/>
      <point x="208" y="345" type="curve"/>
      <point x="133" y="345"/>
      <point x="107" y="296"/>
      <point x="90" y="225" type="curve"/>
      <point x="110" y="219"/>
      <point x="90" y="225"/>
      <point x="111" y="219" type="curve"/>
      <point x="125" y="275"/>
      <point x="145" y="323"/>
      <point x="206" y="323" type="curve"/>
      <point x="245" y="323"/>
      <point x="267" y="306"/>
      <point x="295" y="279" type="curve"/>
      <point x="332" y="243"/>
      <point x="363" y="220"/>
      <point x="416" y="220" type="curve"/>
      <point x="487" y="220"/>
      <point x="509" y="274"/>
      <point x="528" y="339" type="curve"/>
      <point x="507" y="344"/>
      <point x="527" y="339"/>
    </contour>
  </outline>
</glyph>
<glyph name="cent" format="1">
  <advance width="564"/>
  <unicode hex="00A2"/>
  <outline>
    <contour>
      <point x="305" y="-53" type="curve"/>
      <point x="305" y="-13"/>
      <point x="305" y="27"/>
      <point x="305" y="67" type="curve"/>
      <point x="280" y="67"/>
      <point x="305" y="67"/>
      <point x="280" y="67" type="curve"/>
      <point x="280" y="27"/>
      <point x="280" y="-13"/>
      <point x="280" y="-53" type="curve"/>
      <point x="305" y="-53"/>
      <point x="280" y="-53"/>
    </contour>
    <contour>
      <point x="298" y="778" type="curve"/>
      <point x="298" y="742"/>
      <point x="298" y="706"/>
      <point x="298" y="670" type="curve"/>
      <point x="322" y="670"/>
      <point x="298" y="670"/>
      <point x="322" y="670" type="curve"/>
      <point x="322" y="706"/>
      <point x="322" y="742"/>
      <point x="322" y="778" type="curve"/>
      <point x="298" y="778"/>
      <point x="322" y="778"/>
    </contour>
    <contour>
      <point x="502" y="605" type="curve"/>
      <point x="443" y="656"/>
      <point x="391" y="679"/>
      <point x="314" y="679" type="curve"/>
      <point x="142" y="679"/>
      <point x="61" y="549"/>
      <point x="61" y="366" type="curve"/>
      <point x="61" y="189"/>
      <point x="126" y="54"/>
      <point x="290" y="54" type="curve"/>
      <point x="378" y="54"/>
      <point x="436" y="87"/>
      <point x="501" y="148" type="curve"/>
      <point x="484" y="165"/>
      <point x="501" y="148"/>
      <point x="484" y="165" type="curve"/>
      <point x="426" y="109"/>
      <point x="373" y="77"/>
      <point x="293" y="77" type="curve"/>
      <point x="144" y="77"/>
      <point x="86" y="202"/>
      <point x="86" y="367" type="curve"/>
      <point x="86" y="535"/>
      <point x="159" y="655"/>
      <point x="311" y="655" type="curve"/>
      <point x="384" y="655"/>
      <point x="432" y="634"/>
      <point x="486" y="589" type="curve"/>
      <point x="502" y="605"/>
      <point x="486" y="589"/>
    </contour>
    <contour>
      <point x="479" y="605" type="curve"/>
      <point x="479" y="485"/>
      <point x="479" y="605"/>
      <point x="479" y="485" type="curve"/>
      <point x="502" y="485"/>
      <point x="479" y="485"/>
      <point x="502" y="485" type="curve"/>
      <point x="502" y="605"/>
      <point x="502" y="485"/>
      <point x="502" y="605" type="curve"/>
      <point x="479" y="605"/>
      <point x="502" y="605"/>
    </contour>
  </outline>
</glyph>
<glyph name="sterling" format="1">
  <advance width="466"/>
  <unicode hex="00A3"/>
  <outline>
    <contour>
      <point x="398" y="23" type="curve"/>
      <point x="278" y="23"/>
      <point x="164" y="23"/>
      <point x="47" y="23" type="curve"/>
      <point x="47" y="0"/>
      <point x="47" y="23"/>
      <point x="47" y="0" type="curve"/>
      <point x="164" y="0"/>
      <point x="281" y="0"/>
      <point x="398" y="0" type="curve"/>
      <point x="398" y="23"/>
      <point x="398" y="0"/>
    </contour>
    <contour>
      <point x="357" y="388" type="curve"/>
      <point x="263" y="388"/>
      <point x="170" y="388"/>
      <point x="77" y="388" type="curve"/>
      <point x="77" y="366"/>
      <point x="77" y="388"/>
      <point x="77" y="366" type="curve"/>
      <point x="170" y="366"/>
      <point x="263" y="366"/>
      <point x="357" y="366" type="curve"/>
      <point x="357" y="388"/>
      <point x="357" y="366"/>
    </contour>
    <contour>
      <point x="408" y="676" type="curve"/>
      <point x="370" y="708"/>
      <point x="339" y="725"/>
      <point x="290" y="725" type="curve"/>
      <point x="139" y="725"/>
      <point x="123" y="562"/>
      <point x="158" y="375" type="curve"/>
      <point x="191" y="191"/>
      <point x="192" y="23"/>
      <point x="47" y="23" type="curve"/>
      <point x="47" y="0"/>
      <point x="47" y="23"/>
      <point x="47" y="0" type="curve"/>
      <point x="215" y="0"/>
      <point x="217" y="179"/>
      <point x="182" y="379" type="curve"/>
      <point x="153" y="549"/>
      <point x="163" y="702"/>
      <point x="288" y="702" type="curve"/>
      <point x="333" y="702"/>
      <point x="362" y="686"/>
      <point x="394" y="659" type="curve"/>
      <point x="408" y="676"/>
      <point x="394" y="659"/>
    </contour>
  </outline>
</glyph>
<glyph name="currency" format="1">
  <advance width="595"/>
  <unicode hex="00A4"/>
  <outline>
    <contour>
      <point x="181" y="310" type="curve"/>
      <point x="181" y="395"/>
      <point x="219" y="457"/>
      <point x="298" y="457" type="curve"/>
      <point x="379" y="457"/>
      <point x="412" y="396"/>
      <point x="412" y="310" type="curve"/>
      <point x="412" y="223"/>
      <point x="381" y="157"/>
      <point x="301" y="157" type="curve"/>
      <point x="218" y="157"/>
      <point x="181" y="221"/>
      <point x="181" y="310" type="curve"/>
      <point x="157" y="310"/>
      <point x="181" y="310"/>
      <point x="157" y="310" type="curve"/>
      <point x="157" y="207"/>
      <point x="203" y="135"/>
      <point x="300" y="135" type="curve"/>
      <point x="395" y="135"/>
      <point x="438" y="210"/>
      <point x="438" y="311" type="curve"/>
      <point x="438" y="409"/>
      <point x="393" y="480"/>
      <point x="300" y="480" type="curve"/>
      <point x="204" y="480"/>
      <point x="157" y="410"/>
      <point x="157" y="310" type="curve"/>
      <point x="181" y="310"/>
      <point x="157" y="310"/>
    </contour>
    <contour>
      <point x="391" y="423" type="line"/>
      <point x="526" y="554" type="line"/>
      <point x="504" y="576" type="line"/>
      <point x="373" y="441" type="line"/>
    </contour>
    <contour>
      <point x="374" y="178" type="line"/>
      <point x="505" y="43" type="line"/>
      <point x="527" y="65" type="line"/>
      <point x="392" y="196" type="line"/>
    </contour>
    <contour>
      <point x="201" y="197" type="line"/>
      <point x="66" y="66" type="line"/>
      <point x="88" y="44" type="line"/>
      <point x="219" y="179" type="line"/>
    </contour>
    <contour>
      <point x="222" y="442" type="line"/>
      <point x="91" y="577" type="line"/>
      <point x="69" y="555" type="line"/>
      <point x="204" y="424" type="line"/>
    </contour>
  </outline>
</glyph>
<glyph name="yen" format="1">
  <advance width="738"/>
  <unicode hex="00A5"/>
  <outline>
    <contour>
      <point x="564" y="372" type="curve"/>
      <point x="502" y="372"/>
      <point x="441" y="372"/>
      <point x="380" y="372" type="curve"/>
      <point x="380" y="347"/>
      <point x="380" y="372"/>
      <point x="380" y="347" type="curve"/>
      <point x="441" y="347"/>
      <point x="502" y="347"/>
      <point x="564" y="347" type="curve"/>
      <point x="564" y="372"/>
      <point x="564" y="347"/>
    </contour>
    <contour>
      <point x="355" y="372" type="curve"/>
      <point x="294" y="372"/>
      <point x="234" y="372"/>
      <point x="174" y="372" type="curve"/>
      <point x="174" y="347"/>
      <point x="174" y="372"/>
      <point x="174" y="347" type="curve"/>
      <point x="234" y="347"/>
      <point x="294" y="347"/>
      <point x="355" y="347" type="curve"/>
      <point x="355" y="372"/>
      <point x="355" y="347"/>
    </contour>
    <contour>
      <point x="564" y="252" type="curve"/>
      <point x="434" y="252"/>
      <point x="304" y="252"/>
      <point x="174" y="252" type="curve"/>
      <point x="174" y="227"/>
      <point x="174" y="252"/>
      <point x="174" y="227" type="curve"/>
      <point x="304" y="227"/>
      <point x="434" y="227"/>
      <point x="564" y="227" type="curve"/>
      <point x="564" y="252"/>
      <point x="564" y="227"/>
    </contour>
    <contour>
      <point x="364" y="23" type="curve"/>
      <point x="222" y="23"/>
      <point x="371" y="23"/>
      <point x="229" y="23" type="curve"/>
      <point x="229" y="0"/>
      <point x="229" y="23"/>
      <point x="229" y="0" type="curve"/>
      <point x="276" y="0"/>
      <point x="317" y="0"/>
      <point x="364" y="0" type="curve"/>
      <point x="364" y="23"/>
      <point x="364" y="0"/>
    </contour>
    <contour>
      <point x="364" y="0" type="curve"/>
      <point x="411" y="0"/>
      <point x="452" y="0"/>
      <point x="499" y="0" type="curve"/>
      <point x="499" y="23"/>
      <point x="499" y="0"/>
      <point x="499" y="23" type="curve"/>
      <point x="357" y="23"/>
      <point x="506" y="23"/>
      <point x="364" y="23" type="curve"/>
      <point x="364" y="0"/>
      <point x="364" y="23"/>
    </contour>
    <contour>
      <point x="569" y="722" type="curve"/>
      <point x="522" y="722"/>
      <point x="481" y="722"/>
      <point x="434" y="722" type="curve"/>
      <point x="434" y="699"/>
      <point x="434" y="722"/>
      <point x="434" y="699" type="curve"/>
      <point x="575" y="699"/>
      <point x="427" y="699"/>
      <point x="569" y="699" type="curve"/>
      <point x="569" y="722"/>
      <point x="569" y="699"/>
    </contour>
    <contour>
      <point x="170" y="722" type="curve"/>
      <point x="123" y="722"/>
      <point x="81" y="722"/>
      <point x="35" y="722" type="curve"/>
      <point x="35" y="699"/>
      <point x="35" y="722"/>
      <point x="35" y="699" type="curve"/>
      <point x="176" y="699"/>
      <point x="28" y="699"/>
      <point x="170" y="699" type="curve"/>
      <point x="170" y="722"/>
      <point x="170" y="699"/>
    </contour>
    <contour>
      <point x="170" y="699" type="curve"/>
      <point x="311" y="699"/>
      <point x="163" y="699"/>
      <point x="305" y="699" type="curve"/>
      <point x="305" y="722"/>
      <point x="305" y="699"/>
      <point x="305" y="722" type="curve"/>
      <point x="258" y="722"/>
      <point x="216" y="722"/>
      <point x="170" y="722" type="curve"/>
      <point x="170" y="699"/>
      <point x="170" y="722"/>
    </contour>
    <contour>
      <point x="570" y="699" type="curve"/>
      <point x="710" y="699"/>
      <point x="563" y="699"/>
      <point x="704" y="699" type="curve"/>
      <point x="704" y="722"/>
      <point x="704" y="699"/>
      <point x="704" y="722" type="curve"/>
      <point x="657" y="722"/>
      <point x="616" y="722"/>
      <point x="570" y="722" type="curve"/>
      <point x="570" y="699"/>
      <point x="570" y="722"/>
    </contour>
    <contour>
      <point x="145" y="722" type="curve"/>
      <point x="213" y="594"/>
      <point x="282" y="465"/>
      <point x="350" y="336" type="curve"/>
      <point x="376" y="336"/>
      <point x="350" y="336"/>
      <point x="376" y="336" type="curve"/>
      <point x="308" y="465"/>
      <point x="240" y="594"/>
      <point x="172" y="722" type="curve"/>
      <point x="145" y="722"/>
      <point x="172" y="722"/>
    </contour>
    <contour>
      <point x="566" y="722" type="curve"/>
      <point x="494" y="593"/>
      <point x="422" y="465"/>
      <point x="350" y="336" type="curve"/>
      <point x="376" y="336"/>
      <point x="350" y="336"/>
      <point x="376" y="336" type="curve"/>
      <point x="449" y="465"/>
      <point x="521" y="594"/>
      <point x="593" y="722" type="curve"/>
      <point x="566" y="722"/>
      <point x="593" y="722"/>
    </contour>
    <contour>
      <point x="376" y="0" type="curve"/>
      <point x="376" y="114"/>
      <point x="376" y="229"/>
      <point x="376" y="343" type="curve"/>
      <point x="350" y="343"/>
      <point x="376" y="343"/>
      <point x="350" y="343" type="curve"/>
      <point x="350" y="229"/>
      <point x="350" y="114"/>
      <point x="350" y="0" type="curve"/>
      <point x="376" y="0"/>
      <point x="350" y="0"/>
    </contour>
  </outline>
</glyph>
<glyph name="section" format="1">
  <advance width="443"/>
  <unicode hex="00A7"/>
  <outline>
    <contour>
      <point x="352" y="709" type="curve"/>
      <point x="309" y="737"/>
      <point x="275" y="752"/>
      <point x="224" y="752" type="curve"/>
      <point x="144" y="752"/>
      <point x="99" y="703"/>
      <point x="99" y="627" type="curve"/>
      <point x="99" y="554"/>
      <point x="140" y="512"/>
      <point x="207" y="484" type="curve"/>
      <point x="283" y="455"/>
      <point x="354" y="438"/>
      <point x="354" y="361" type="curve"/>
      <point x="354" y="291"/>
      <point x="318" y="245"/>
      <point x="247" y="229" type="curve"/>
      <point x="262" y="211"/>
      <point x="247" y="229"/>
      <point x="262" y="211" type="curve"/>
      <point x="339" y="233"/>
      <point x="379" y="282"/>
      <point x="379" y="361" type="curve"/>
      <point x="378" y="448"/>
      <point x="305" y="473"/>
      <point x="220" y="505" type="curve"/>
      <point x="161" y="529"/>
      <point x="123" y="565"/>
      <point x="123" y="627" type="curve"/>
      <point x="123" y="688"/>
      <point x="157" y="729"/>
      <point x="222" y="729" type="curve"/>
      <point x="268" y="729"/>
      <point x="300" y="715"/>
      <point x="339" y="691" type="curve"/>
      <point x="352" y="709"/>
      <point x="339" y="691"/>
    </contour>
    <contour>
      <point x="179" y="513" type="curve"/>
      <point x="109" y="487"/>
      <point x="69" y="442"/>
      <point x="69" y="367" type="curve"/>
      <point x="69" y="283"/>
      <point x="133" y="251"/>
      <point x="215" y="220" type="curve"/>
      <point x="278" y="194"/>
      <point x="329" y="166"/>
      <point x="329" y="100" type="curve"/>
      <point x="329" y="36"/>
      <point x="291" y="-7"/>
      <point x="224" y="-7" type="curve"/>
      <point x="170" y="-7"/>
      <point x="135" y="12"/>
      <point x="93" y="45" type="curve"/>
      <point x="76" y="28"/>
      <point x="93" y="45"/>
      <point x="76" y="28" type="curve"/>
      <point x="123" y="-10"/>
      <point x="164" y="-30"/>
      <point x="223" y="-30" type="curve"/>
      <point x="304" y="-30"/>
      <point x="354" y="19"/>
      <point x="354" y="100" type="curve"/>
      <point x="353" y="175"/>
      <point x="303" y="214"/>
      <point x="231" y="241" type="curve"/>
      <point x="158" y="269"/>
      <point x="94" y="294"/>
      <point x="94" y="367" type="curve"/>
      <point x="94" y="434"/>
      <point x="128" y="473"/>
      <point x="192" y="496" type="curve"/>
      <point x="179" y="513"/>
      <point x="192" y="496"/>
    </contour>
    <contour>
      <point x="99" y="28" type="curve"/>
      <point x="99" y="148"/>
      <point x="99" y="28"/>
      <point x="99" y="148" type="curve"/>
      <point x="76" y="148"/>
      <point x="99" y="148"/>
      <point x="76" y="148" type="curve"/>
      <point x="76" y="28"/>
      <point x="76" y="148"/>
      <point x="76" y="28" type="curve"/>
      <point x="99" y="28"/>
      <point x="76" y="28"/>
    </contour>
    <contour>
      <point x="352" y="589" type="curve"/>
      <point x="352" y="709"/>
      <point x="352" y="589"/>
      <point x="352" y="709" type="curve"/>
      <point x="329" y="709"/>
      <point x="352" y="709"/>
      <point x="329" y="709" type="curve"/>
      <point x="329" y="589"/>
      <point x="329" y="709"/>
      <point x="329" y="589" type="curve"/>
      <point x="352" y="589"/>
      <point x="329" y="589"/>
    </contour>
  </outline>
</glyph>
<glyph name="dieresis" format="1">
  <advance width="349"/>
  <unicode hex="00A8"/>
  <outline>
    <contour>
      <point x="126" y="653" type="move" name="_top"/>
    </contour>
    <contour>
      <point x="91" y="669" type="curve"/>
      <point x="91" y="680"/>
      <point x="83" y="686"/>
      <point x="71" y="686" type="curve"/>
      <point x="60" y="686"/>
      <point x="54" y="679"/>
      <point x="54" y="669" type="curve"/>
      <point x="84" y="669"/>
      <point x="60" y="669"/>
      <point x="91" y="669" type="curve"/>
      <point x="91" y="657"/>
      <point x="83" y="651"/>
      <point x="71" y="651" type="curve"/>
      <point x="60" y="651"/>
      <point x="54" y="657"/>
      <point x="54" y="669" type="curve"/>
      <point x="84" y="669"/>
      <point x="60" y="669"/>
    </contour>
    <contour>
      <point x="196" y="669" type="curve"/>
      <point x="196" y="680"/>
      <point x="189" y="686"/>
      <point x="177" y="686" type="curve"/>
      <point x="166" y="686"/>
      <point x="159" y="679"/>
      <point x="159" y="669" type="curve"/>
      <point x="190" y="669"/>
      <point x="166" y="669"/>
      <point x="196" y="669" type="curve"/>
      <point x="196" y="657"/>
      <point x="189" y="651"/>
      <point x="177" y="651" type="curve"/>
      <point x="166" y="651"/>
      <point x="159" y="657"/>
      <point x="159" y="669" type="curve"/>
      <point x="190" y="669"/>
      <point x="166" y="669"/>
    </contour>
  </outline>
</glyph>
<glyph name="copyright" format="1">
  <advance width="684"/>
  <unicode hex="00A9"/>
  <outline>
    <contour>
      <point x="91" y="319" type="curve"/>
      <point x="91" y="493"/>
      <point x="180" y="624"/>
      <point x="345" y="624" type="curve"/>
      <point x="507" y="624"/>
      <point x="593" y="492"/>
      <point x="593" y="318" type="curve"/>
      <point x="593" y="148"/>
      <point x="510" y="18"/>
      <point x="350" y="18" type="curve"/>
      <point x="186" y="18"/>
      <point x="91" y="144"/>
      <point x="91" y="319" type="curve"/>
      <point x="66" y="319"/>
      <point x="91" y="319"/>
      <point x="66" y="319" type="curve"/>
      <point x="66" y="133"/>
      <point x="170" y="-5"/>
      <point x="349" y="-5" type="curve"/>
      <point x="524" y="-5"/>
      <point x="618" y="135"/>
      <point x="618" y="319" type="curve"/>
      <point x="618" y="505"/>
      <point x="521" y="646"/>
      <point x="345" y="646" type="curve"/>
      <point x="167" y="646"/>
      <point x="66" y="506"/>
      <point x="66" y="319" type="curve"/>
      <point x="91" y="319"/>
      <point x="66" y="319"/>
    </contour>
    <contour>
      <point x="428" y="452" type="curve"/>
      <point x="428" y="429"/>
      <point x="428" y="405"/>
      <point x="428" y="381" type="curve"/>
      <point x="451" y="381"/>
      <point x="428" y="381"/>
      <point x="451" y="381" type="curve"/>
      <point x="451" y="409"/>
      <point x="451" y="436"/>
      <point x="451" y="464" type="curve"/>
      <point x="428" y="452"/>
      <point x="451" y="464"/>
    </contour>
    <contour>
      <point x="451" y="464" type="curve"/>
      <point x="419" y="487"/>
      <point x="391" y="496"/>
      <point x="350" y="496" type="curve"/>
      <point x="253" y="496"/>
      <point x="205" y="422"/>
      <point x="205" y="319" type="curve"/>
      <point x="205" y="219"/>
      <point x="246" y="146"/>
      <point x="339" y="146" type="curve"/>
      <point x="390" y="146"/>
      <point x="425" y="159"/>
      <point x="461" y="193" type="curve"/>
      <point x="445" y="209"/>
      <point x="461" y="193"/>
      <point x="445" y="209" type="curve"/>
      <point x="414" y="181"/>
      <point x="384" y="168"/>
      <point x="340" y="168" type="curve"/>
      <point x="261" y="168"/>
      <point x="231" y="233"/>
      <point x="231" y="320" type="curve"/>
      <point x="231" y="409"/>
      <point x="266" y="474"/>
      <point x="349" y="474" type="curve"/>
      <point x="383" y="474"/>
      <point x="404" y="467"/>
      <point x="428" y="452" type="curve"/>
      <point x="451" y="464"/>
      <point x="428" y="452"/>
    </contour>
  </outline>
</glyph>
<glyph name="guillemotleft" format="1">
  <advance width="584"/>
  <unicode hex="00AB"/>
  <outline>
    <contour>
      <point x="289" y="400" type="curve"/>
      <point x="289" y="400"/>
      <point x="76" y="289"/>
      <point x="76" y="289" type="curve"/>
      <point x="76" y="264"/>
      <point x="76" y="289"/>
      <point x="76" y="264" type="curve"/>
      <point x="76" y="264"/>
      <point x="289" y="374"/>
      <point x="289" y="375" type="curve"/>
      <point x="289" y="400"/>
      <point x="289" y="375"/>
    </contour>
    <contour>
      <point x="289" y="177" type="curve"/>
      <point x="289" y="178"/>
      <point x="76" y="288"/>
      <point x="76" y="289" type="curve"/>
      <point x="76" y="264"/>
      <point x="76" y="289"/>
      <point x="76" y="264" type="curve"/>
      <point x="76" y="263"/>
      <point x="289" y="154"/>
      <point x="289" y="153" type="curve"/>
      <point x="289" y="177"/>
      <point x="289" y="153"/>
    </contour>
    <contour>
      <point x="487" y="400" type="curve"/>
      <point x="486" y="400"/>
      <point x="274" y="289"/>
      <point x="274" y="289" type="curve"/>
      <point x="274" y="264"/>
      <point x="274" y="289"/>
      <point x="274" y="264" type="curve"/>
      <point x="274" y="264"/>
      <point x="486" y="374"/>
      <point x="487" y="375" type="curve"/>
      <point x="487" y="400"/>
      <point x="487" y="375"/>
    </contour>
    <contour>
      <point x="488" y="177" type="curve"/>
      <point x="487" y="178"/>
      <point x="274" y="288"/>
      <point x="274" y="289" type="curve"/>
      <point x="274" y="264"/>
      <point x="274" y="289"/>
      <point x="274" y="264" type="curve"/>
      <point x="274" y="263"/>
      <point x="487" y="154"/>
      <point x="488" y="153" type="curve"/>
      <point x="488" y="177"/>
      <point x="488" y="153"/>
    </contour>
  </outline>
</glyph>
<glyph name="logicalnot" format="1">
  <advance width="683"/>
  <unicode hex="00AC"/>
  <outline>
    <contour>
      <point x="112" y="297" type="curve"/>
      <point x="594" y="297" type="line"/>
      <point x="594" y="322"/>
      <point x="594" y="297"/>
      <point x="594" y="322" type="curve"/>
      <point x="112" y="322" type="line"/>
      <point x="112" y="297"/>
      <point x="112" y="322"/>
    </contour>
    <contour>
      <point x="594" y="153" type="curve"/>
      <point x="594" y="322" type="line"/>
      <point x="569" y="322"/>
      <point x="594" y="322"/>
      <point x="569" y="322" type="curve"/>
      <point x="569" y="153" type="line"/>
      <point x="594" y="153"/>
      <point x="569" y="153"/>
    </contour>
  </outline>
</glyph>
<glyph name="macron" format="1">
  <advance width="326"/>
  <unicode hex="00AF"/>
  <outline>
    <contour>
      <point x="123" y="658" type="move" name="_top"/>
    </contour>
    <contour>
      <point x="218" y="680" type="curve"/>
      <point x="153" y="680"/>
      <point x="87" y="680"/>
      <point x="22" y="680" type="curve"/>
      <point x="22" y="658"/>
      <point x="22" y="680"/>
      <point x="22" y="658" type="curve"/>
      <point x="87" y="658"/>
      <point x="153" y="658"/>
      <point x="218" y="658" type="curve"/>
      <point x="218" y="680"/>
      <point x="218" y="658"/>
    </contour>
  </outline>
</glyph>
<glyph name="degree" format="1">
  <advance width="435"/>
  <unicode hex="00B0"/>
  <outline>
    <contour>
      <point x="362" y="433" type="curve"/>
      <point x="362" y="550"/>
      <point x="323" y="639"/>
      <point x="217" y="639" type="curve"/>
      <point x="111" y="639"/>
      <point x="73" y="550"/>
      <point x="73" y="435" type="curve"/>
      <point x="96" y="435"/>
      <point x="73" y="435"/>
      <point x="97" y="435" type="curve"/>
      <point x="97" y="536"/>
      <point x="122" y="617"/>
      <point x="214" y="617" type="curve"/>
      <point x="308" y="617"/>
      <point x="338" y="536"/>
      <point x="338" y="433" type="curve"/>
      <point x="338" y="326"/>
      <point x="312" y="241"/>
      <point x="217" y="241" type="curve"/>
      <point x="122" y="241"/>
      <point x="97" y="328"/>
      <point x="97" y="435" type="curve"/>
      <point x="73" y="435"/>
      <point x="96" y="435"/>
      <point x="73" y="435" type="curve"/>
      <point x="73" y="314"/>
      <point x="107" y="219"/>
      <point x="216" y="219" type="curve"/>
      <point x="325" y="219"/>
      <point x="362" y="313"/>
    </contour>
  </outline>
</glyph>
<glyph name="plusminus" format="1">
  <advance width="668"/>
  <unicode hex="00B1"/>
  <outline>
    <contour>
      <point x="74" y="17" type="line"/>
      <point x="594" y="17" type="line"/>
      <point x="594" y="42" type="line"/>
      <point x="74" y="42" type="line"/>
    </contour>
    <contour>
      <point x="74" y="297" type="curve"/>
      <point x="594" y="297" type="line"/>
      <point x="594" y="322"/>
      <point x="594" y="297"/>
      <point x="594" y="322" type="curve"/>
      <point x="74" y="322" type="line"/>
      <point x="74" y="297"/>
      <point x="74" y="322"/>
    </contour>
    <contour>
      <point x="346" y="18" type="curve"/>
      <point x="346" y="588" type="line"/>
      <point x="320" y="588"/>
      <point x="346" y="588"/>
      <point x="320" y="588" type="curve"/>
      <point x="320" y="18" type="line"/>
      <point x="346" y="18"/>
      <point x="320" y="18"/>
    </contour>
  </outline>
</glyph>
<glyph name="twosuperior" format="1">
  <advance width="448"/>
  <unicode hex="00B2"/>
  <outline>
    <contour>
      <point x="241" y="699" type="move" name="_top"/>
    </contour>
    <contour>
      <point x="212" y="284" type="move" name="_bottom"/>
    </contour>
    <contour>
      <point x="360" y="285" type="curve"/>
      <point x="360" y="321"/>
      <point x="360" y="334"/>
      <point x="360" y="371" type="curve"/>
      <point x="337" y="371"/>
      <point x="360" y="371"/>
      <point x="337" y="371" type="curve"/>
      <point x="337" y="342"/>
      <point x="337" y="335"/>
      <point x="337" y="307" type="curve"/>
      <point x="360" y="285"/>
      <point x="337" y="307"/>
    </contour>
    <contour>
      <point x="81" y="285" type="curve"/>
      <point x="176" y="285"/>
      <point x="267" y="285"/>
      <point x="360" y="285" type="curve"/>
      <point x="337" y="307"/>
      <point x="360" y="285"/>
      <point x="337" y="307" type="curve"/>
      <point x="252" y="307"/>
      <point x="167" y="307"/>
      <point x="81" y="307" type="curve"/>
      <point x="81" y="285"/>
      <point x="81" y="307"/>
    </contour>
    <contour>
      <point x="127" y="602" type="curve"/>
      <point x="150" y="646"/>
      <point x="176" y="677"/>
      <point x="228" y="677" type="curve"/>
      <point x="286" y="677"/>
      <point x="319" y="638"/>
      <point x="319" y="580" type="curve"/>
      <point x="319" y="526"/>
      <point x="288" y="498"/>
      <point x="251" y="460" type="curve"/>
      <point x="195" y="409"/>
      <point x="137" y="358"/>
      <point x="81" y="307" type="curve"/>
      <point x="92" y="285"/>
      <point x="81" y="307"/>
      <point x="92" y="285" type="curve"/>
      <point x="150" y="338"/>
      <point x="209" y="390"/>
      <point x="267" y="443" type="curve"/>
      <point x="308" y="486"/>
      <point x="343" y="520"/>
      <point x="343" y="581" type="curve"/>
      <point x="343" y="653"/>
      <point x="299" y="700"/>
      <point x="229" y="700" type="curve"/>
      <point x="169" y="700"/>
      <point x="132" y="669"/>
      <point x="108" y="613" type="curve"/>
      <point x="127" y="602"/>
      <point x="108" y="613"/>
    </contour>
  </outline>
</glyph>
<glyph name="threesuperior" format="1">
  <advance width="402"/>
  <unicode hex="00B3"/>
  <outline>
    <contour>
      <point x="213" y="699" type="move" name="_top"/>
    </contour>
    <contour>
      <point x="198" y="280" type="move" name="_bottom"/>
    </contour>
    <contour>
      <point x="108" y="633" type="curve"/>
      <point x="129" y="657"/>
      <point x="156" y="678"/>
      <point x="191" y="678" type="curve"/>
      <point x="248" y="678"/>
      <point x="284" y="648"/>
      <point x="284" y="593" type="curve"/>
      <point x="284" y="531"/>
      <point x="222" y="509"/>
      <point x="153" y="504" type="curve"/>
      <point x="153" y="485"/>
      <point x="153" y="504"/>
      <point x="153" y="485" type="curve"/>
      <point x="239" y="487"/>
      <point x="308" y="516"/>
      <point x="308" y="595" type="curve"/>
      <point x="308" y="663"/>
      <point x="264" y="699"/>
      <point x="194" y="699" type="curve"/>
      <point x="152" y="699"/>
      <point x="116" y="677"/>
      <point x="91" y="647" type="curve"/>
      <point x="108" y="633"/>
      <point x="91" y="647"/>
    </contour>
    <contour>
      <point x="86" y="314" type="curve"/>
      <point x="116" y="292"/>
      <point x="148" y="281"/>
      <point x="185" y="281" type="curve"/>
      <point x="266" y="277"/>
      <point x="324" y="315"/>
      <point x="322" y="393" type="curve"/>
      <point x="322" y="475"/>
      <point x="244" y="494"/>
      <point x="153" y="497" type="curve"/>
      <point x="153" y="481"/>
      <point x="153" y="497"/>
      <point x="153" y="481" type="curve"/>
      <point x="233" y="476"/>
      <point x="297" y="456"/>
      <point x="297" y="392" type="curve"/>
      <point x="297" y="329"/>
      <point x="253" y="299"/>
      <point x="187" y="301" type="curve"/>
      <point x="155" y="301"/>
      <point x="125" y="311"/>
      <point x="98" y="329" type="curve"/>
      <point x="86" y="314"/>
      <point x="98" y="329"/>
    </contour>
  </outline>
</glyph>
<glyph name="acute" format="1">
  <advance width="206"/>
  <unicode hex="00B4"/>
  <outline>
    <contour>
      <point x="20" y="590" type="move" name="_top"/>
    </contour>
    <contour>
      <point x="33" y="590" type="line"/>
      <point x="139" y="756" type="line"/>
      <point x="104" y="756" type="line"/>
      <point x="6" y="590" type="line"/>
    </contour>
  </outline>
</glyph>
<glyph name="paragraph" format="1">
  <advance width="618"/>
  <unicode hex="00B6"/>
  <outline>
    <contour>
      <point x="375" y="699" type="curve"/>
      <point x="525" y="699"/>
      <point x="375" y="699"/>
      <point x="525" y="699" type="curve"/>
      <point x="525" y="722"/>
      <point x="525" y="699"/>
      <point x="525" y="722" type="curve"/>
      <point x="475" y="722"/>
      <point x="425" y="722"/>
      <point x="375" y="722" type="curve"/>
      <point x="375" y="699"/>
      <point x="375" y="722"/>
    </contour>
    <contour>
      <point x="375" y="0" type="curve"/>
      <point x="425" y="0"/>
      <point x="475" y="0"/>
      <point x="525" y="0" type="curve"/>
      <point x="525" y="23"/>
      <point x="525" y="0"/>
      <point x="525" y="23" type="curve"/>
      <point x="375" y="23"/>
      <point x="525" y="23"/>
      <point x="375" y="23" type="curve"/>
      <point x="375" y="0"/>
      <point x="375" y="23"/>
    </contour>
    <contour>
      <point x="375" y="23" type="curve"/>
      <point x="246" y="23"/>
      <point x="375" y="23"/>
      <point x="246" y="23" type="curve"/>
      <point x="246" y="0"/>
      <point x="246" y="23"/>
      <point x="246" y="0" type="curve"/>
      <point x="375" y="0"/>
      <point x="333" y="0"/>
      <point x="375" y="0" type="curve"/>
      <point x="375" y="23"/>
      <point x="375" y="0"/>
    </contour>
    <contour>
      <point x="369" y="346" type="curve"/>
      <point x="325" y="320"/>
      <point x="290" y="304"/>
      <point x="238" y="304" type="curve"/>
      <point x="132" y="304"/>
      <point x="72" y="381"/>
      <point x="72" y="493" type="curve"/>
      <point x="72" y="616"/>
      <point x="142" y="699"/>
      <point x="264" y="699" type="curve"/>
      <point x="300" y="699"/>
      <point x="336" y="699"/>
      <point x="373" y="699" type="curve"/>
      <point x="373" y="722"/>
      <point x="373" y="699"/>
      <point x="373" y="722" type="curve"/>
      <point x="335" y="722"/>
      <point x="298" y="722"/>
      <point x="260" y="722" type="curve"/>
      <point x="126" y="722"/>
      <point x="47" y="630"/>
      <point x="47" y="494" type="curve"/>
      <point x="47" y="363"/>
      <point x="117" y="282"/>
      <point x="240" y="280" type="curve"/>
      <point x="292" y="280"/>
      <point x="335" y="300"/>
      <point x="378" y="325" type="curve"/>
      <point x="369" y="345"/>
      <point x="378" y="326"/>
    </contour>
    <contour>
      <point x="388" y="0" type="curve"/>
      <point x="388" y="241"/>
      <point x="388" y="481"/>
      <point x="388" y="722" type="curve"/>
      <point x="363" y="722"/>
      <point x="388" y="722"/>
      <point x="363" y="722" type="curve"/>
      <point x="363" y="481"/>
      <point x="363" y="241"/>
      <point x="363" y="0" type="curve"/>
      <point x="388" y="0"/>
      <point x="363" y="0"/>
    </contour>
    <contour>
      <point x="534" y="0" type="curve"/>
      <point x="534" y="241"/>
      <point x="534" y="481"/>
      <point x="534" y="722" type="curve"/>
      <point x="509" y="722"/>
      <point x="534" y="722"/>
      <point x="509" y="722" type="curve"/>
      <point x="509" y="481"/>
      <point x="509" y="241"/>
      <point x="509" y="0" type="curve"/>
      <point x="534" y="0"/>
      <point x="509" y="0"/>
    </contour>
  </outline>
</glyph>
<glyph name="periodcentered" format="1">
  <advance width="211"/>
  <unicode hex="00B7"/>
  <outline>
    <contour>
      <point x="124" y="440" type="curve"/>
      <point x="124" y="451"/>
      <point x="117" y="458"/>
      <point x="104" y="458" type="curve"/>
      <point x="93" y="458"/>
      <point x="87" y="450"/>
      <point x="87" y="440" type="curve"/>
      <point x="117" y="440"/>
      <point x="93" y="440"/>
      <point x="124" y="440" type="curve"/>
      <point x="124" y="429"/>
      <point x="117" y="422"/>
      <point x="104" y="422" type="curve"/>
      <point x="93" y="422"/>
      <point x="87" y="429"/>
      <point x="87" y="440" type="curve"/>
      <point x="117" y="440"/>
      <point x="93" y="440"/>
    </contour>
  </outline>
</glyph>
<glyph name="onesuperior" format="1">
  <advance width="354"/>
  <unicode hex="00B9"/>
  <outline>
    <contour>
      <point x="211" y="688" type="move" name="_top"/>
    </contour>
    <contour>
      <point x="211" y="288" type="move" name="_bottom"/>
    </contour>
    <contour>
      <point x="197" y="285" type="curve"/>
      <point x="233" y="285"/>
      <point x="248" y="285"/>
      <point x="284" y="285" type="curve"/>
      <point x="284" y="308"/>
      <point x="284" y="285"/>
      <point x="284" y="307" type="curve"/>
      <point x="256" y="307"/>
      <point x="249" y="307"/>
      <point x="221" y="307" type="curve"/>
      <point x="197" y="285"/>
      <point x="221" y="308"/>
    </contour>
    <contour>
      <point x="222" y="307" type="curve"/>
      <point x="185" y="307"/>
      <point x="169" y="307"/>
      <point x="132" y="307" type="curve"/>
      <point x="132" y="285"/>
      <point x="132" y="308"/>
      <point x="132" y="285" type="curve"/>
      <point x="160" y="285"/>
      <point x="169" y="285"/>
      <point x="197" y="285" type="curve"/>
      <point x="222" y="308"/>
      <point x="197" y="285"/>
    </contour>
    <contour>
      <point x="97" y="564" type="line"/>
      <point x="220" y="682" type="line"/>
      <point x="197" y="691" type="line"/>
      <point x="81" y="579" type="line"/>
    </contour>
    <contour>
      <point x="222" y="307" type="curve"/>
      <point x="222" y="691" type="line"/>
      <point x="197" y="691" type="line"/>
      <point x="197" y="285" type="line"/>
      <point x="222" y="308"/>
      <point x="197" y="285"/>
    </contour>
  </outline>
</glyph>
<glyph name="ordmasculine" format="1">
  <advance width="411"/>
  <unicode hex="00BA"/>
  <outline>
    <contour>
      <point x="103" y="604" type="curve"/>
      <point x="103" y="686"/>
      <point x="133" y="745"/>
      <point x="207" y="745" type="curve"/>
      <point x="279" y="745"/>
      <point x="307" y="684"/>
      <point x="307" y="602" type="curve"/>
      <point x="307" y="513"/>
      <point x="280" y="446"/>
      <point x="211" y="446" type="curve"/>
      <point x="131" y="446"/>
      <point x="103" y="514"/>
      <point x="103" y="604" type="curve"/>
      <point x="83" y="604"/>
      <point x="99" y="604"/>
      <point x="79" y="604" type="curve"/>
      <point x="79" y="500"/>
      <point x="115" y="423"/>
      <point x="210" y="423" type="curve"/>
      <point x="297" y="423"/>
      <point x="333" y="499"/>
      <point x="333" y="602" type="curve"/>
      <point x="333" y="698"/>
      <point x="296" y="766"/>
      <point x="208" y="766" type="curve"/>
      <point x="116" y="766"/>
      <point x="79" y="698"/>
      <point x="79" y="604" type="curve"/>
      <point x="99" y="604"/>
      <point x="83" y="604"/>
    </contour>
  </outline>
</glyph>
<glyph name="guillemotright" format="1">
  <advance width="584"/>
  <unicode hex="00BB"/>
  <outline>
    <contour>
      <point x="295" y="400" type="curve"/>
      <point x="295" y="400"/>
      <point x="507" y="289"/>
      <point x="508" y="289" type="curve"/>
      <point x="508" y="264"/>
      <point x="508" y="289"/>
      <point x="508" y="264" type="curve"/>
      <point x="507" y="264"/>
      <point x="295" y="374"/>
      <point x="295" y="375" type="curve"/>
      <point x="295" y="400"/>
      <point x="295" y="375"/>
    </contour>
    <contour>
      <point x="294" y="177" type="curve"/>
      <point x="294" y="178"/>
      <point x="507" y="288"/>
      <point x="508" y="289" type="curve"/>
      <point x="508" y="264"/>
      <point x="508" y="289"/>
      <point x="508" y="264" type="curve"/>
      <point x="507" y="263"/>
      <point x="294" y="154"/>
      <point x="294" y="153" type="curve"/>
      <point x="294" y="177"/>
      <point x="294" y="153"/>
    </contour>
    <contour>
      <point x="97" y="400" type="curve"/>
      <point x="97" y="400"/>
      <point x="310" y="289"/>
      <point x="310" y="289" type="curve"/>
      <point x="310" y="264"/>
      <point x="310" y="289"/>
      <point x="310" y="264" type="curve"/>
      <point x="310" y="264"/>
      <point x="97" y="374"/>
      <point x="97" y="375" type="curve"/>
      <point x="97" y="400"/>
      <point x="97" y="375"/>
    </contour>
    <contour>
      <point x="96" y="177" type="curve"/>
      <point x="96" y="178"/>
      <point x="310" y="288"/>
      <point x="310" y="289" type="curve"/>
      <point x="310" y="264"/>
      <point x="310" y="289"/>
      <point x="310" y="264" type="curve"/>
      <point x="310" y="263"/>
      <point x="96" y="154"/>
      <point x="96" y="153" type="curve"/>
      <point x="96" y="177"/>
      <point x="96" y="153"/>
    </contour>
  </outline>
</glyph>
<glyph name="onequarter" format="1">
  <advance width="833"/>
  <unicode hex="00BC"/>
  <outline>
    <contour>
      <point x="257" y="-92" type="line"/>
      <point x="629" y="756" type="line"/>
      <point x="600" y="756" type="line"/>
      <point x="229" y="-92" type="line"/>
    </contour>
    <contour>
      <point x="162" y="355" type="curve"/>
      <point x="198" y="355"/>
      <point x="213" y="355"/>
      <point x="249" y="355" type="curve"/>
      <point x="249" y="377"/>
      <point x="249" y="355"/>
      <point x="249" y="377" type="curve"/>
      <point x="221" y="377"/>
      <point x="215" y="377"/>
      <point x="187" y="377" type="curve"/>
      <point x="162" y="355"/>
      <point x="187" y="377"/>
    </contour>
    <contour>
      <point x="187" y="377" type="curve"/>
      <point x="151" y="377"/>
      <point x="134" y="377"/>
      <point x="97" y="377" type="curve"/>
      <point x="97" y="355"/>
      <point x="97" y="377"/>
      <point x="97" y="355" type="curve"/>
      <point x="126" y="355"/>
      <point x="133" y="355"/>
      <point x="162" y="355" type="curve"/>
      <point x="187" y="377"/>
      <point x="162" y="355"/>
    </contour>
    <contour>
      <point x="61" y="633" type="line"/>
      <point x="186" y="753" type="line"/>
      <point x="162" y="761" type="line"/>
      <point x="46" y="650" type="line"/>
    </contour>
    <contour>
      <point x="187" y="377" type="curve"/>
      <point x="187" y="761" type="line"/>
      <point x="162" y="761" type="line"/>
      <point x="162" y="355" type="line"/>
      <point x="187" y="377"/>
      <point x="162" y="355"/>
    </contour>
    <contour>
      <point x="810" y="43" type="line"/>
      <point x="479" y="43" type="line"/>
      <point x="479" y="23" type="line"/>
      <point x="810" y="23" type="line"/>
    </contour>
    <contour>
      <point x="493" y="23" type="line"/>
      <point x="710" y="329" type="line"/>
      <point x="686" y="338" type="line"/>
      <point x="479" y="43" type="line"/>
    </contour>
    <contour>
      <point x="710" y="-95" type="line"/>
      <point x="710" y="338" type="line"/>
      <point x="686" y="338" type="line"/>
      <point x="686" y="-95" type="line"/>
    </contour>
    <contour>
      <point x="698" y="-75" type="line"/>
      <point x="611" y="-75" type="line"/>
      <point x="611" y="-96" type="line"/>
      <point x="698" y="-96" type="line"/>
    </contour>
    <contour>
      <point x="698" y="-96" type="line"/>
      <point x="785" y="-96" type="line"/>
      <point x="785" y="-75" type="line"/>
      <point x="698" y="-75" type="line"/>
    </contour>
  </outline>
</glyph>
<glyph name="onehalf" format="1">
  <advance width="875"/>
  <unicode hex="00BD"/>
  <outline>
    <contour>
      <point x="263" y="-92" type="line"/>
      <point x="635" y="756" type="line"/>
      <point x="606" y="756" type="line"/>
      <point x="235" y="-92" type="line"/>
    </contour>
    <contour>
      <point x="159" y="355" type="curve"/>
      <point x="195" y="355"/>
      <point x="210" y="355"/>
      <point x="246" y="355" type="curve"/>
      <point x="246" y="377"/>
      <point x="246" y="355"/>
      <point x="246" y="377" type="curve"/>
      <point x="218" y="377"/>
      <point x="212" y="377"/>
      <point x="184" y="377" type="curve"/>
      <point x="159" y="355"/>
      <point x="184" y="377"/>
    </contour>
    <contour>
      <point x="184" y="377" type="curve"/>
      <point x="148" y="377"/>
      <point x="131" y="377"/>
      <point x="94" y="377" type="curve"/>
      <point x="94" y="355"/>
      <point x="94" y="377"/>
      <point x="94" y="355" type="curve"/>
      <point x="123" y="355"/>
      <point x="130" y="355"/>
      <point x="159" y="355" type="curve"/>
      <point x="184" y="377"/>
      <point x="159" y="355"/>
    </contour>
    <contour>
      <point x="58" y="633" type="line"/>
      <point x="183" y="753" type="line"/>
      <point x="159" y="761" type="line"/>
      <point x="43" y="650" type="line"/>
    </contour>
    <contour>
      <point x="184" y="377" type="curve"/>
      <point x="184" y="761" type="line"/>
      <point x="159" y="761" type="line"/>
      <point x="159" y="355" type="line"/>
      <point x="184" y="377"/>
      <point x="159" y="355"/>
    </contour>
    <contour>
      <point x="832" y="-93" type="curve"/>
      <point x="832" y="-57"/>
      <point x="832" y="-43"/>
      <point x="832" y="-6" type="curve"/>
      <point x="809" y="-6"/>
      <point x="832" y="-6"/>
      <point x="809" y="-6" type="curve"/>
      <point x="809" y="-35"/>
      <point x="809" y="-42"/>
      <point x="809" y="-71" type="curve"/>
      <point x="832" y="-93"/>
      <point x="809" y="-71"/>
    </contour>
    <contour>
      <point x="553" y="-93" type="curve"/>
      <point x="648" y="-93"/>
      <point x="741" y="-93"/>
      <point x="832" y="-93" type="curve"/>
      <point x="809" y="-71"/>
      <point x="832" y="-93"/>
      <point x="809" y="-71" type="curve"/>
      <point x="724" y="-71"/>
      <point x="639" y="-71"/>
      <point x="553" y="-71" type="curve"/>
      <point x="553" y="-92"/>
      <point x="553" y="-71"/>
    </contour>
    <contour>
      <point x="599" y="224" type="curve"/>
      <point x="622" y="268"/>
      <point x="648" y="299"/>
      <point x="700" y="299" type="curve"/>
      <point x="759" y="299"/>
      <point x="791" y="261"/>
      <point x="791" y="202" type="curve"/>
      <point x="791" y="149"/>
      <point x="761" y="120"/>
      <point x="723" y="82" type="curve"/>
      <point x="667" y="31"/>
      <point x="610" y="-20"/>
      <point x="553" y="-71" type="curve"/>
      <point x="564" y="-92"/>
      <point x="553" y="-71"/>
      <point x="564" y="-92" type="curve"/>
      <point x="622" y="-40"/>
      <point x="681" y="13"/>
      <point x="739" y="65" type="curve"/>
      <point x="782" y="109"/>
      <point x="815" y="142"/>
      <point x="815" y="203" type="curve"/>
      <point x="815" y="276"/>
      <point x="772" y="322"/>
      <point x="701" y="322" type="curve"/>
      <point x="641" y="322"/>
      <point x="605" y="291"/>
      <point x="580" y="235" type="curve"/>
      <point x="599" y="224"/>
      <point x="580" y="235"/>
    </contour>
  </outline>
</glyph>
<glyph name="threequarters" format="1">
  <advance width="843"/>
  <unicode hex="00BE"/>
  <outline>
    <contour>
      <point x="266" y="-92" type="line"/>
      <point x="638" y="756" type="line"/>
      <point x="610" y="756" type="line"/>
      <point x="238" y="-92" type="line"/>
    </contour>
    <contour>
      <point x="71" y="693" type="curve"/>
      <point x="93" y="717"/>
      <point x="120" y="738"/>
      <point x="154" y="738" type="curve"/>
      <point x="211" y="738"/>
      <point x="248" y="708"/>
      <point x="248" y="652" type="curve"/>
      <point x="248" y="590"/>
      <point x="186" y="569"/>
      <point x="116" y="564" type="curve"/>
      <point x="116" y="544"/>
      <point x="116" y="564"/>
      <point x="116" y="544" type="curve"/>
      <point x="202" y="546"/>
      <point x="273" y="575"/>
      <point x="273" y="654" type="curve"/>
      <point x="273" y="722"/>
      <point x="227" y="758"/>
      <point x="157" y="758" type="curve"/>
      <point x="116" y="758"/>
      <point x="79" y="736"/>
      <point x="55" y="706" type="curve"/>
      <point x="71" y="693"/>
      <point x="55" y="706"/>
    </contour>
    <contour>
      <point x="50" y="373" type="curve"/>
      <point x="79" y="351"/>
      <point x="111" y="340"/>
      <point x="148" y="340" type="curve"/>
      <point x="229" y="336"/>
      <point x="288" y="374"/>
      <point x="286" y="452" type="curve"/>
      <point x="286" y="535"/>
      <point x="208" y="554"/>
      <point x="116" y="557" type="curve"/>
      <point x="116" y="540"/>
      <point x="116" y="557"/>
      <point x="116" y="540" type="curve"/>
      <point x="197" y="535"/>
      <point x="262" y="516"/>
      <point x="262" y="451" type="curve"/>
      <point x="261" y="390"/>
      <point x="217" y="359"/>
      <point x="151" y="361" type="curve"/>
      <point x="118" y="361"/>
      <point x="89" y="372"/>
      <point x="62" y="389" type="curve"/>
      <point x="50" y="373"/>
      <point x="62" y="389"/>
    </contour>
    <contour>
      <point x="820" y="43" type="line"/>
      <point x="488" y="43" type="line"/>
      <point x="488" y="23" type="line"/>
      <point x="820" y="23" type="line"/>
    </contour>
    <contour>
      <point x="502" y="23" type="line"/>
      <point x="719" y="329" type="line"/>
      <point x="696" y="338" type="line"/>
      <point x="488" y="43" type="line"/>
    </contour>
    <contour>
      <point x="720" y="-95" type="line"/>
      <point x="720" y="338" type="line"/>
      <point x="696" y="338" type="line"/>
      <point x="696" y="-95" type="line"/>
    </contour>
    <contour>
      <point x="707" y="-75" type="line"/>
      <point x="620" y="-75" type="line"/>
      <point x="620" y="-96" type="line"/>
      <point x="707" y="-96" type="line"/>
    </contour>
    <contour>
      <point x="707" y="-96" type="line"/>
      <point x="794" y="-96" type="line"/>
      <point x="794" y="-75" type="line"/>
      <point x="707" y="-75" type="line"/>
    </contour>
  </outline>
</glyph>
<glyph name="questiondown" format="1">
  <advance width="447"/>
  <unicode hex="00BF"/>
  <outline>
    <contour>
      <point x="261" y="374" type="curve"/>
      <point x="261" y="411"/>
      <point x="261" y="450"/>
      <point x="261" y="487" type="curve"/>
      <point x="236" y="487"/>
      <point x="261" y="487"/>
      <point x="236" y="487" type="curve"/>
      <point x="236" y="450"/>
      <point x="236" y="411"/>
      <point x="236" y="374" type="curve"/>
      <point x="261" y="374"/>
      <point x="236" y="374"/>
    </contour>
    <contour>
      <point x="366" y="86" type="line"/>
      <point x="340" y="51"/>
      <point x="299" y="22"/>
      <point x="243" y="22" type="curve"/>
      <point x="145" y="22"/>
      <point x="91" y="90"/>
      <point x="91" y="189" type="curve"/>
      <point x="91" y="298"/>
      <point x="151" y="374"/>
      <point x="257" y="374" type="curve"/>
      <point x="257" y="393"/>
      <point x="257" y="378"/>
      <point x="257" y="398" type="curve"/>
      <point x="136" y="398"/>
      <point x="66" y="313"/>
      <point x="66" y="189" type="curve"/>
      <point x="66" y="77"/>
      <point x="131" y="-2"/>
      <point x="241" y="-2" type="curve"/>
      <point x="309" y="-2"/>
      <point x="352" y="31"/>
      <point x="382" y="71" type="curve"/>
    </contour>
    <contour>
      <point x="231" y="696" type="curve"/>
      <point x="231" y="685"/>
      <point x="238" y="679"/>
      <point x="248" y="679" type="curve"/>
      <point x="260" y="679"/>
      <point x="266" y="686"/>
      <point x="266" y="696" type="curve"/>
      <point x="231" y="696"/>
      <point x="266" y="696"/>
      <point x="231" y="696" type="curve"/>
      <point x="231" y="707"/>
      <point x="238" y="712"/>
      <point x="248" y="712" type="curve"/>
      <point x="260" y="712"/>
      <point x="266" y="706"/>
      <point x="266" y="696" type="curve"/>
      <point x="231" y="696"/>
      <point x="266" y="696"/>
    </contour>
  </outline>
</glyph>
<glyph name="Atilde" format="1">
  <advance width="717"/>
  <unicode hex="00C3"/>
  <outline>
    <contour>
      <point x="101" y="23" type="curve"/>
      <point x="-38" y="23"/>
      <point x="116" y="23"/>
      <point x="-23" y="23" type="curve"/>
      <point x="-23" y="0"/>
      <point x="-23" y="23"/>
      <point x="-23" y="0" type="curve"/>
      <point x="23" y="0"/>
      <point x="55" y="0"/>
      <point x="101" y="0" type="curve"/>
      <point x="101" y="23"/>
      <point x="101" y="0"/>
    </contour>
    <contour>
      <point x="101" y="0" type="curve"/>
      <point x="150" y="0"/>
      <point x="86" y="0"/>
      <point x="232" y="0" type="curve"/>
      <point x="232" y="23"/>
      <point x="232" y="0"/>
      <point x="232" y="23" type="curve"/>
      <point x="86" y="23"/>
      <point x="246" y="23"/>
      <point x="101" y="23" type="curve"/>
      <point x="101" y="0"/>
      <point x="101" y="23"/>
    </contour>
    <contour>
      <point x="578" y="0" type="curve"/>
      <point x="625" y="0"/>
      <point x="656" y="0"/>
      <point x="703" y="0" type="curve"/>
      <point x="703" y="23"/>
      <point x="703" y="0"/>
      <point x="703" y="23" type="curve"/>
      <point x="564" y="23"/>
      <point x="717" y="23"/>
      <point x="578" y="23" type="curve"/>
      <point x="578" y="0"/>
      <point x="578" y="23"/>
    </contour>
    <contour>
      <point x="578" y="23" type="curve"/>
      <point x="433" y="23"/>
      <point x="593" y="23"/>
      <point x="448" y="23" type="curve"/>
      <point x="448" y="0"/>
      <point x="448" y="23"/>
      <point x="448" y="0" type="curve"/>
      <point x="496" y="0"/>
      <point x="530" y="0"/>
      <point x="578" y="0" type="curve"/>
      <point x="578" y="23"/>
      <point x="578" y="0"/>
    </contour>
    <contour>
      <point x="499" y="277" type="curve"/>
      <point x="397" y="277"/>
      <point x="296" y="277"/>
      <point x="196" y="277" type="curve"/>
      <point x="185" y="253"/>
      <point x="196" y="277"/>
      <point x="185" y="253" type="curve"/>
      <point x="292" y="253"/>
      <point x="399" y="253"/>
      <point x="507" y="253" type="curve"/>
      <point x="499" y="277"/>
      <point x="507" y="253"/>
    </contour>
    <contour>
      <point x="602" y="0" type="curve"/>
      <point x="523" y="241"/>
      <point x="445" y="481"/>
      <point x="366" y="722" type="curve"/>
      <point x="343" y="722"/>
      <point x="366" y="722"/>
      <point x="343" y="722" type="curve"/>
      <point x="421" y="481"/>
      <point x="498" y="241"/>
      <point x="575" y="0" type="curve"/>
      <point x="602" y="0"/>
      <point x="575" y="0"/>
    </contour>
    <contour>
      <point x="105" y="0" type="curve"/>
      <point x="191" y="241"/>
      <point x="278" y="481"/>
      <point x="364" y="722" type="curve"/>
      <point x="341" y="722"/>
      <point x="364" y="722"/>
      <point x="341" y="722" type="curve"/>
      <point x="254" y="481"/>
      <point x="165" y="241"/>
      <point x="77" y="0" type="curve"/>
      <point x="105" y="0"/>
      <point x="77" y="0"/>
    </contour>
    <contour>
      <point x="498" y="949" type="curve"/>
      <point x="487" y="897"/>
      <point x="476" y="847"/>
      <point x="436" y="847" type="curve"/>
      <point x="401" y="847"/>
      <point x="382" y="867"/>
      <point x="360" y="895" type="curve"/>
      <point x="336" y="926"/>
      <point x="316" y="950"/>
      <point x="277" y="950" type="curve"/>
      <point x="216" y="950"/>
      <point x="199" y="896"/>
      <point x="187" y="831" type="curve"/>
      <point x="208" y="825"/>
      <point x="187" y="831"/>
      <point x="208" y="825" type="curve"/>
      <point x="218" y="879"/>
      <point x="230" y="927"/>
      <point x="277" y="927" type="curve"/>
      <point x="309" y="927"/>
      <point x="323" y="905"/>
      <point x="343" y="880" type="curve"/>
      <point x="369" y="847"/>
      <point x="392" y="825"/>
      <point x="434" y="825" type="curve"/>
      <point x="495" y="825"/>
      <point x="506" y="882"/>
      <point x="520" y="945" type="curve"/>
      <point x="498" y="949"/>
      <point x="520" y="945"/>
    </contour>
  </outline>
</glyph>
<glyph name="AE" format="1">
  <advance width="877"/>
  <unicode hex="00C6"/>
  <outline>
    <contour>
      <point x="100" y="23" type="curve"/>
      <point x="-25" y="23"/>
      <point x="106" y="23"/>
      <point x="-19" y="23" type="curve"/>
      <point x="-19" y="0"/>
      <point x="-19" y="23"/>
      <point x="-19" y="0" type="curve"/>
      <point x="23" y="0"/>
      <point x="58" y="0"/>
      <point x="100" y="0" type="curve"/>
      <point x="100" y="23"/>
      <point x="100" y="0"/>
    </contour>
    <contour>
      <point x="100" y="0" type="curve"/>
      <point x="144" y="0"/>
      <point x="89" y="0"/>
      <point x="220" y="0" type="curve"/>
      <point x="220" y="23"/>
      <point x="220" y="0"/>
      <point x="220" y="23" type="curve"/>
      <point x="89" y="23"/>
      <point x="231" y="23"/>
      <point x="100" y="23" type="curve"/>
      <point x="100" y="0"/>
      <point x="100" y="23"/>
    </contour>
    <contour>
      <point x="449" y="266" type="curve"/>
      <point x="347" y="266"/>
      <point x="320" y="266"/>
      <point x="219" y="266" type="curve"/>
      <point x="209" y="242"/>
      <point x="219" y="266"/>
      <point x="209" y="242" type="curve"/>
      <point x="316" y="242"/>
      <point x="350" y="242"/>
      <point x="458" y="242" type="curve"/>
      <point x="449" y="266"/>
      <point x="458" y="242"/>
    </contour>
    <contour>
      <point x="104" y="0" type="curve"/>
      <point x="463" y="722" type="line"/>
      <point x="440" y="722"/>
      <point x="462" y="722"/>
      <point x="439" y="722" type="curve"/>
      <point x="75" y="0" type="line"/>
      <point x="104" y="0"/>
      <point x="76" y="0"/>
    </contour>
    <contour>
      <point x="827" y="11" type="curve"/>
      <point x="827" y="131"/>
      <point x="827" y="5"/>
      <point x="827" y="125" type="curve"/>
      <point x="804" y="125"/>
      <point x="827" y="125"/>
      <point x="804" y="125" type="curve"/>
      <point x="804" y="5"/>
      <point x="804" y="131"/>
      <point x="804" y="11" type="curve"/>
      <point x="827" y="11"/>
      <point x="804" y="11"/>
    </contour>
    <contour>
      <point x="775" y="711" type="curve"/>
      <point x="775" y="591"/>
      <point x="775" y="717"/>
      <point x="775" y="597" type="curve"/>
      <point x="798" y="597"/>
      <point x="775" y="597"/>
      <point x="798" y="597" type="curve"/>
      <point x="798" y="717"/>
      <point x="798" y="591"/>
      <point x="798" y="711" type="curve"/>
      <point x="775" y="711"/>
      <point x="798" y="711"/>
    </contour>
    <contour>
      <point x="454" y="23" type="curve"/>
      <point x="311" y="23"/>
      <point x="467" y="23"/>
      <point x="326" y="23" type="curve"/>
      <point x="326" y="0"/>
      <point x="326" y="23"/>
      <point x="326" y="0" type="curve"/>
      <point x="373" y="0"/>
      <point x="406" y="0"/>
      <point x="454" y="0" type="curve"/>
      <point x="454" y="23"/>
      <point x="454" y="0"/>
    </contour>
    <contour>
      <point x="454" y="722" type="curve"/>
      <point x="406" y="722"/>
      <point x="373" y="722"/>
      <point x="326" y="722" type="curve"/>
      <point x="326" y="699"/>
      <point x="326" y="722"/>
      <point x="326" y="699" type="curve"/>
      <point x="467" y="699"/>
      <point x="311" y="699"/>
      <point x="454" y="699" type="curve"/>
      <point x="454" y="722"/>
      <point x="454" y="699"/>
    </contour>
    <contour>
      <point x="456" y="363" type="curve"/>
      <point x="552" y="363"/>
      <point x="647" y="363"/>
      <point x="743" y="363" type="curve"/>
      <point x="743" y="385"/>
      <point x="743" y="363"/>
      <point x="743" y="385" type="curve"/>
      <point x="647" y="385"/>
      <point x="552" y="385"/>
      <point x="456" y="385" type="curve"/>
      <point x="456" y="363"/>
      <point x="456" y="385"/>
    </contour>
    <contour>
      <point x="443" y="699" type="curve"/>
      <point x="562" y="699"/>
      <point x="679" y="699"/>
      <point x="798" y="699" type="curve"/>
      <point x="798" y="722"/>
      <point x="798" y="699"/>
      <point x="798" y="722" type="curve"/>
      <point x="679" y="722"/>
      <point x="562" y="722"/>
      <point x="443" y="722" type="curve"/>
      <point x="443" y="699"/>
      <point x="443" y="722"/>
    </contour>
    <contour>
      <point x="465" y="0" type="curve"/>
      <point x="465" y="722" type="line"/>
      <point x="440" y="722"/>
      <point x="465" y="722"/>
      <point x="440" y="722" type="curve"/>
      <point x="440" y="481"/>
      <point x="440" y="241"/>
      <point x="440" y="0" type="curve"/>
      <point x="465" y="0"/>
      <point x="440" y="0"/>
    </contour>
    <contour>
      <point x="443" y="0" type="curve"/>
      <point x="572" y="0"/>
      <point x="699" y="0"/>
      <point x="827" y="0" type="curve"/>
      <point x="827" y="23"/>
      <point x="827" y="0"/>
      <point x="827" y="23" type="curve"/>
      <point x="699" y="23"/>
      <point x="572" y="23"/>
      <point x="443" y="23" type="curve"/>
      <point x="443" y="0"/>
      <point x="443" y="23"/>
    </contour>
  </outline>
</glyph>
<glyph name="Ccedilla" format="1">
  <advance width="613"/>
  <unicode hex="00C7"/>
  <outline>
    <contour>
      <point x="526" y="655" type="curve"/>
      <point x="526" y="535"/>
      <point x="526" y="655"/>
      <point x="526" y="535" type="curve"/>
      <point x="549" y="535"/>
      <point x="526" y="535"/>
      <point x="549" y="535" type="curve"/>
      <point x="549" y="655"/>
      <point x="549" y="535"/>
      <point x="549" y="655" type="curve"/>
      <point x="526" y="655"/>
      <point x="549" y="655"/>
    </contour>
    <contour>
      <point x="549" y="655" type="curve"/>
      <point x="492" y="695"/>
      <point x="428" y="727"/>
      <point x="350" y="727" type="curve"/>
      <point x="147" y="727"/>
      <point x="68" y="568"/>
      <point x="68" y="344" type="curve"/>
      <point x="68" y="139"/>
      <point x="143" y="-5"/>
      <point x="332" y="-5" type="curve"/>
      <point x="433" y="-5"/>
      <point x="495" y="32"/>
      <point x="566" y="96" type="curve"/>
      <point x="549" y="114"/>
      <point x="565" y="96"/>
      <point x="548" y="114" type="curve"/>
      <point x="484" y="54"/>
      <point x="425" y="21"/>
      <point x="334" y="21" type="curve"/>
      <point x="160" y="21"/>
      <point x="93" y="157"/>
      <point x="93" y="345" type="curve"/>
      <point x="93" y="552"/>
      <point x="165" y="702"/>
      <point x="349" y="702" type="curve"/>
      <point x="421" y="702"/>
      <point x="482" y="675"/>
      <point x="535" y="637" type="curve"/>
      <point x="549" y="655"/>
      <point x="535" y="637"/>
    </contour>
    <contour>
      <point x="313" y="15" type="curve"/>
      <point x="299" y="-12"/>
      <point x="287" y="-40"/>
      <point x="274" y="-66" type="curve"/>
      <point x="292" y="-85"/>
      <point x="274" y="-66"/>
      <point x="292" y="-85" type="curve"/>
      <point x="305" y="-57"/>
      <point x="319" y="-28"/>
      <point x="332" y="-1" type="curve"/>
      <point x="313" y="15"/>
      <point x="332" y="-1"/>
    </contour>
    <contour>
      <point x="292" y="-85" type="curve"/>
      <point x="303" y="-76"/>
      <point x="313" y="-72"/>
      <point x="329" y="-72" type="curve"/>
      <point x="361" y="-72"/>
      <point x="374" y="-95"/>
      <point x="374" y="-128" type="curve"/>
      <point x="374" y="-163"/>
      <point x="353" y="-183"/>
      <point x="318" y="-183" type="curve"/>
      <point x="295" y="-183"/>
      <point x="277" y="-180"/>
      <point x="258" y="-166" type="curve"/>
      <point x="248" y="-184"/>
      <point x="258" y="-166"/>
      <point x="248" y="-184" type="curve"/>
      <point x="270" y="-199"/>
      <point x="290" y="-206"/>
      <point x="317" y="-206" type="curve"/>
      <point x="368" y="-206"/>
      <point x="399" y="-178"/>
      <point x="399" y="-128" type="curve"/>
      <point x="399" y="-82"/>
      <point x="376" y="-50"/>
      <point x="331" y="-50" type="curve"/>
      <point x="309" y="-50"/>
      <point x="294" y="-56"/>
      <point x="274" y="-67" type="curve"/>
      <point x="292" y="-85"/>
      <point x="274" y="-67"/>
    </contour>
  </outline>
</glyph>
<glyph name="Egrave" format="1">
  <advance width="591"/>
  <unicode hex="00C8"/>
  <outline>
    <contour>
      <point x="542" y="11" type="curve"/>
      <point x="542" y="131"/>
      <point x="542" y="5"/>
      <point x="542" y="125" type="curve"/>
      <point x="519" y="125"/>
      <point x="542" y="125"/>
      <point x="519" y="125" type="curve"/>
      <point x="519" y="5"/>
      <point x="519" y="131"/>
      <point x="519" y="11" type="curve"/>
      <point x="542" y="11"/>
      <point x="519" y="11"/>
    </contour>
    <contour>
      <point x="489" y="711" type="curve"/>
      <point x="489" y="591"/>
      <point x="489" y="717"/>
      <point x="489" y="597" type="curve"/>
      <point x="512" y="597"/>
      <point x="489" y="597"/>
      <point x="512" y="597" type="curve"/>
      <point x="512" y="717"/>
      <point x="512" y="591"/>
      <point x="512" y="711" type="curve"/>
      <point x="489" y="711"/>
      <point x="512" y="711"/>
    </contour>
    <contour>
      <point x="168" y="23" type="curve"/>
      <point x="26" y="23"/>
      <point x="182" y="23"/>
      <point x="41" y="23" type="curve"/>
      <point x="41" y="0"/>
      <point x="41" y="23"/>
      <point x="41" y="0" type="curve"/>
      <point x="88" y="0"/>
      <point x="120" y="0"/>
      <point x="168" y="0" type="curve"/>
      <point x="168" y="23"/>
      <point x="168" y="0"/>
    </contour>
    <contour>
      <point x="168" y="722" type="curve"/>
      <point x="120" y="722"/>
      <point x="88" y="722"/>
      <point x="41" y="722" type="curve"/>
      <point x="41" y="699"/>
      <point x="41" y="722"/>
      <point x="41" y="699" type="curve"/>
      <point x="182" y="699"/>
      <point x="26" y="699"/>
      <point x="168" y="699" type="curve"/>
      <point x="168" y="722"/>
      <point x="168" y="699"/>
    </contour>
    <contour>
      <point x="170" y="363" type="curve"/>
      <point x="266" y="363"/>
      <point x="361" y="363"/>
      <point x="458" y="363" type="curve"/>
      <point x="458" y="385"/>
      <point x="458" y="363"/>
      <point x="458" y="385" type="curve"/>
      <point x="361" y="385"/>
      <point x="266" y="385"/>
      <point x="170" y="385" type="curve"/>
      <point x="170" y="363"/>
      <point x="170" y="385"/>
    </contour>
    <contour>
      <point x="157" y="699" type="curve"/>
      <point x="276" y="699"/>
      <point x="394" y="699"/>
      <point x="512" y="699" type="curve"/>
      <point x="512" y="722"/>
      <point x="512" y="699"/>
      <point x="512" y="722" type="curve"/>
      <point x="394" y="722"/>
      <point x="276" y="722"/>
      <point x="157" y="722" type="curve"/>
      <point x="157" y="699"/>
      <point x="157" y="722"/>
    </contour>
    <contour>
      <point x="180" y="0" type="curve"/>
      <point x="180" y="722" type="line"/>
      <point x="155" y="722"/>
      <point x="180" y="722"/>
      <point x="155" y="722" type="curve"/>
      <point x="155" y="481"/>
      <point x="155" y="241"/>
      <point x="155" y="0" type="curve"/>
      <point x="180" y="0"/>
      <point x="155" y="0"/>
    </contour>
    <contour>
      <point x="157" y="0" type="curve"/>
      <point x="285" y="0"/>
      <point x="414" y="0"/>
      <point x="542" y="0" type="curve"/>
      <point x="542" y="23"/>
      <point x="542" y="0"/>
      <point x="542" y="23" type="curve"/>
      <point x="414" y="23"/>
      <point x="285" y="23"/>
      <point x="157" y="23" type="curve"/>
      <point x="157" y="0"/>
      <point x="157" y="23"/>
    </contour>
    <contour>
      <point x="318" y="825" type="line"/>
      <point x="220" y="991" type="line"/>
      <point x="185" y="991" type="line"/>
      <point x="292" y="825" type="line"/>
    </contour>
  </outline>
</glyph>
<glyph name="Edieresis" format="1">
  <advance width="591"/>
  <unicode hex="00CB"/>
  <outline>
    <contour>
      <point x="542" y="11" type="curve"/>
      <point x="542" y="131"/>
      <point x="542" y="5"/>
      <point x="542" y="125" type="curve"/>
      <point x="519" y="125"/>
      <point x="542" y="125"/>
      <point x="519" y="125" type="curve"/>
      <point x="519" y="5"/>
      <point x="519" y="131"/>
      <point x="519" y="11" type="curve"/>
      <point x="542" y="11"/>
      <point x="519" y="11"/>
    </contour>
    <contour>
      <point x="489" y="711" type="curve"/>
      <point x="489" y="591"/>
      <point x="489" y="717"/>
      <point x="489" y="597" type="curve"/>
      <point x="512" y="597"/>
      <point x="489" y="597"/>
      <point x="512" y="597" type="curve"/>
      <point x="512" y="717"/>
      <point x="512" y="591"/>
      <point x="512" y="711" type="curve"/>
      <point x="489" y="711"/>
      <point x="512" y="711"/>
    </contour>
    <contour>
      <point x="168" y="23" type="curve"/>
      <point x="26" y="23"/>
      <point x="182" y="23"/>
      <point x="41" y="23" type="curve"/>
      <point x="41" y="0"/>
      <point x="41" y="23"/>
      <point x="41" y="0" type="curve"/>
      <point x="88" y="0"/>
      <point x="120" y="0"/>
      <point x="168" y="0" type="curve"/>
      <point x="168" y="23"/>
      <point x="168" y="0"/>
    </contour>
    <contour>
      <point x="168" y="722" type="curve"/>
      <point x="120" y="722"/>
      <point x="88" y="722"/>
      <point x="41" y="722" type="curve"/>
      <point x="41" y="699"/>
      <point x="41" y="722"/>
      <point x="41" y="699" type="curve"/>
      <point x="182" y="699"/>
      <point x="26" y="699"/>
      <point x="168" y="699" type="curve"/>
      <point x="168" y="722"/>
      <point x="168" y="699"/>
    </contour>
    <contour>
      <point x="170" y="363" type="curve"/>
      <point x="266" y="363"/>
      <point x="361" y="363"/>
      <point x="458" y="363" type="curve"/>
      <point x="458" y="385"/>
      <point x="458" y="363"/>
      <point x="458" y="385" type="curve"/>
      <point x="361" y="385"/>
      <point x="266" y="385"/>
      <point x="170" y="385" type="curve"/>
      <point x="170" y="363"/>
      <point x="170" y="385"/>
    </contour>
    <contour>
      <point x="157" y="699" type="curve"/>
      <point x="276" y="699"/>
      <point x="394" y="699"/>
      <point x="512" y="699" type="curve"/>
      <point x="512" y="722"/>
      <point x="512" y="699"/>
      <point x="512" y="722" type="curve"/>
      <point x="394" y="722"/>
      <point x="276" y="722"/>
      <point x="157" y="722" type="curve"/>
      <point x="157" y="699"/>
      <point x="157" y="722"/>
    </contour>
    <contour>
      <point x="180" y="0" type="curve"/>
      <point x="180" y="722" type="line"/>
      <point x="155" y="722"/>
      <point x="180" y="722"/>
      <point x="155" y="722" type="curve"/>
      <point x="155" y="481"/>
      <point x="155" y="241"/>
      <point x="155" y="0" type="curve"/>
      <point x="180" y="0"/>
      <point x="155" y="0"/>
    </contour>
    <contour>
      <point x="157" y="0" type="curve"/>
      <point x="285" y="0"/>
      <point x="414" y="0"/>
      <point x="542" y="0" type="curve"/>
      <point x="542" y="23"/>
      <point x="542" y="0"/>
      <point x="542" y="23" type="curve"/>
      <point x="414" y="23"/>
      <point x="285" y="23"/>
      <point x="157" y="23" type="curve"/>
      <point x="157" y="0"/>
      <point x="157" y="23"/>
    </contour>
    <contour>
      <point x="267" y="840" type="curve"/>
      <point x="267" y="851"/>
      <point x="260" y="858"/>
      <point x="249" y="858" type="curve"/>
      <point x="237" y="858"/>
      <point x="230" y="850"/>
      <point x="230" y="840" type="curve"/>
      <point x="261" y="840"/>
      <point x="237" y="840"/>
      <point x="267" y="840" type="curve"/>
      <point x="267" y="829"/>
      <point x="260" y="823"/>
      <point x="249" y="823" type="curve"/>
      <point x="237" y="823"/>
      <point x="230" y="829"/>
      <point x="230" y="840" type="curve"/>
      <point x="261" y="840"/>
      <point x="237" y="840"/>
    </contour>
    <contour>
      <point x="373" y="840" type="curve"/>
      <point x="373" y="851"/>
      <point x="366" y="858"/>
      <point x="354" y="858" type="curve"/>
      <point x="343" y="858"/>
      <point x="336" y="850"/>
      <point x="336" y="840" type="curve"/>
      <point x="368" y="840"/>
      <point x="343" y="840"/>
      <point x="373" y="840" type="curve"/>
      <point x="373" y="829"/>
      <point x="366" y="823"/>
      <point x="354" y="823" type="curve"/>
      <point x="342" y="823"/>
      <point x="336" y="829"/>
      <point x="336" y="840" type="curve"/>
      <point x="368" y="840"/>
      <point x="343" y="840"/>
    </contour>
  </outline>
</glyph>
<glyph name="Igrave" format="1">
  <advance width="341"/>
  <unicode hex="00CC"/>
  <outline>
    <contour>
      <point x="173" y="722" type="curve"/>
      <point x="126" y="722"/>
      <point x="94" y="722"/>
      <point x="46" y="722" type="curve"/>
      <point x="46" y="699"/>
      <point x="46" y="722"/>
      <point x="46" y="699" type="curve"/>
      <point x="188" y="699"/>
      <point x="32" y="699"/>
      <point x="173" y="699" type="curve"/>
      <point x="173" y="722"/>
      <point x="173" y="699"/>
    </contour>
    <contour>
      <point x="173" y="699" type="curve"/>
      <point x="316" y="699"/>
      <point x="159" y="699"/>
      <point x="301" y="699" type="curve"/>
      <point x="301" y="722"/>
      <point x="301" y="699"/>
      <point x="301" y="722" type="curve"/>
      <point x="253" y="722"/>
      <point x="221" y="722"/>
      <point x="173" y="722" type="curve"/>
      <point x="173" y="699"/>
      <point x="173" y="722"/>
    </contour>
    <contour>
      <point x="173" y="0" type="curve"/>
      <point x="221" y="0"/>
      <point x="253" y="0"/>
      <point x="301" y="0" type="curve"/>
      <point x="301" y="23"/>
      <point x="301" y="0"/>
      <point x="301" y="23" type="curve"/>
      <point x="159" y="23"/>
      <point x="316" y="23"/>
      <point x="173" y="23" type="curve"/>
      <point x="173" y="0"/>
      <point x="173" y="23"/>
    </contour>
    <contour>
      <point x="173" y="23" type="curve"/>
      <point x="32" y="23"/>
      <point x="188" y="23"/>
      <point x="46" y="23" type="curve"/>
      <point x="46" y="0"/>
      <point x="46" y="23"/>
      <point x="46" y="0" type="curve"/>
      <point x="94" y="0"/>
      <point x="126" y="0"/>
      <point x="173" y="0" type="curve"/>
      <point x="173" y="23"/>
      <point x="173" y="0"/>
    </contour>
    <contour>
      <point x="186" y="0" type="curve"/>
      <point x="186" y="241"/>
      <point x="186" y="481"/>
      <point x="186" y="722" type="curve"/>
      <point x="161" y="722"/>
      <point x="186" y="722"/>
      <point x="161" y="722" type="curve"/>
      <point x="161" y="481"/>
      <point x="161" y="241"/>
      <point x="161" y="0" type="curve"/>
      <point x="186" y="0"/>
      <point x="161" y="0"/>
    </contour>
    <contour>
      <point x="190" y="825" type="line"/>
      <point x="92" y="991" type="line"/>
      <point x="56" y="991" type="line"/>
      <point x="163" y="825" type="line"/>
    </contour>
  </outline>
</glyph>
<glyph name="Icircumflex" format="1">
  <advance width="337"/>
  <unicode hex="00CE"/>
  <outline>
    <contour>
      <point x="169" y="722" type="curve"/>
      <point x="122" y="722"/>
      <point x="89" y="722"/>
      <point x="42" y="722" type="curve"/>
      <point x="42" y="699"/>
      <point x="42" y="722"/>
      <point x="42" y="699" type="curve"/>
      <point x="184" y="699"/>
      <point x="27" y="699"/>
      <point x="169" y="699" type="curve"/>
      <point x="169" y="722"/>
      <point x="169" y="699"/>
    </contour>
    <contour>
      <point x="169" y="699" type="curve"/>
      <point x="312" y="699"/>
      <point x="155" y="699"/>
      <point x="297" y="699" type="curve"/>
      <point x="297" y="722"/>
      <point x="297" y="699"/>
      <point x="297" y="722" type="curve"/>
      <point x="249" y="722"/>
      <point x="216" y="722"/>
      <point x="169" y="722" type="curve"/>
      <point x="169" y="699"/>
      <point x="169" y="722"/>
    </contour>
    <contour>
      <point x="169" y="0" type="curve"/>
      <point x="216" y="0"/>
      <point x="249" y="0"/>
      <point x="297" y="0" type="curve"/>
      <point x="297" y="23"/>
      <point x="297" y="0"/>
      <point x="297" y="23" type="curve"/>
      <point x="155" y="23"/>
      <point x="312" y="23"/>
      <point x="169" y="23" type="curve"/>
      <point x="169" y="0"/>
      <point x="169" y="23"/>
    </contour>
    <contour>
      <point x="169" y="23" type="curve"/>
      <point x="27" y="23"/>
      <point x="184" y="23"/>
      <point x="42" y="23" type="curve"/>
      <point x="42" y="0"/>
      <point x="42" y="23"/>
      <point x="42" y="0" type="curve"/>
      <point x="89" y="0"/>
      <point x="122" y="0"/>
      <point x="169" y="0" type="curve"/>
      <point x="169" y="23"/>
      <point x="169" y="0"/>
    </contour>
    <contour>
      <point x="182" y="0" type="curve"/>
      <point x="182" y="241"/>
      <point x="182" y="481"/>
      <point x="182" y="722" type="curve"/>
      <point x="157" y="722"/>
      <point x="182" y="722"/>
      <point x="157" y="722" type="curve"/>
      <point x="157" y="481"/>
      <point x="157" y="241"/>
      <point x="157" y="0" type="curve"/>
      <point x="182" y="0"/>
      <point x="157" y="0"/>
    </contour>
    <contour>
      <point x="75" y="825" type="line"/>
      <point x="182" y="991" type="line"/>
      <point x="147" y="991" type="line"/>
      <point x="48" y="825" type="line"/>
    </contour>
    <contour>
      <point x="290" y="825" type="line"/>
      <point x="192" y="991" type="line"/>
      <point x="158" y="991" type="line"/>
      <point x="264" y="825" type="line"/>
    </contour>
  </outline>
</glyph>
